<svg width="24" height="24" viewBox="0 0 24 24" fill="none" xmlns="http://www.w3.org/2000/svg">
<path fill-rule="evenodd" clip-rule="evenodd" d="M11.9837 23.9998L12.0124 24H12.0025L11.9837 23.9998ZM12.0747 24H12.0648L12.0934 23.9998L12.0747 24ZM11.9465 23.9998L11.9774 24H11.9596L11.9465 23.9998ZM12.1175 24H12.0998L12.1307 23.9998L12.1175 24ZM11.9155 23.9998L11.9361 24L11.9196 23.9998H11.9155ZM12.1595 23.9998L12.143 24L12.1636 23.9998H12.1595ZM12.1896 23.998L12.1824 23.9981L12.2102 23.9978L12.1896 23.998ZM11.8669 23.9978L11.8948 23.9981L11.8875 23.998L11.8669 23.9978ZM12.2321 23.9979L12.2152 23.9982L12.2496 23.9977L12.2321 23.9979ZM11.8275 23.9977L11.8619 23.9982L11.845 23.9979L11.8275 23.9977ZM12.2754 23.9979L12.2527 23.9983L12.2844 23.9976L12.2754 23.9979ZM11.7937 23.9976L11.8254 23.9983L11.8027 23.9979L11.7937 23.9976ZM11.7496 23.9976L11.7777 23.9983L11.7727 23.9981L11.7496 23.9976ZM12.3044 23.9981L12.2994 23.9983L12.3275 23.9976L12.3044 23.9981ZM11.7092 23.9955L11.7478 23.9965L11.7322 23.9961L11.7092 23.9955ZM12.3459 23.9961L12.3303 23.9965L12.3689 23.9955L12.3459 23.9961ZM12.3911 23.9958L12.366 23.9966L12.4055 23.9954L12.3911 23.9958ZM11.6736 23.9954L11.7131 23.9966L11.688 23.9958L11.6736 23.9954ZM11.6506 23.994L11.6787 23.9949L11.6522 23.994L11.6279 23.9932L11.6506 23.994ZM12.4269 23.994L12.4004 23.9949L12.4285 23.994L12.4512 23.9932L12.4269 23.994ZM12.4592 23.9943L12.4452 23.9948L12.4884 23.9933L12.4592 23.9943ZM11.5898 23.9933L11.6329 23.9948L11.6189 23.9943L11.5898 23.9933ZM11.5535 23.9893L11.5988 23.9909L11.5737 23.9901L11.5535 23.9893ZM12.5035 23.9901L12.4784 23.9909L12.5236 23.9893L12.5035 23.9901ZM11.5199 23.9892L11.5641 23.9911L11.5295 23.9897L11.5199 23.9892ZM12.5496 23.9897L12.515 23.9911L12.5592 23.9892L12.5496 23.9897ZM11.4704 23.9871L11.5179 23.9892L11.5063 23.9889L11.4704 23.9871ZM12.5719 23.9889L12.5602 23.9892L12.6077 23.9871L12.5719 23.9889ZM11.4353 23.9851L11.4846 23.9874L11.4613 23.9864L11.4353 23.9851ZM12.6168 23.9864L12.5935 23.9874L12.6428 23.9851L12.6168 23.9864ZM11.401 23.983L11.4506 23.9855L11.4157 23.9839L11.401 23.983ZM12.6624 23.9839L12.6275 23.9855L12.6772 23.983L12.6624 23.9839ZM12.6959 23.9843L12.6506 23.9866L12.6908 23.9845L12.738 23.9819L12.6959 23.9843ZM11.3883 23.9845L11.4285 23.9866L11.3832 23.9843L11.3411 23.9819L11.3883 23.9845ZM12.729 23.9807L12.709 23.9818L12.7598 23.9789L12.729 23.9807ZM11.3174 23.9789L11.3681 23.9818L11.3481 23.9807L11.3174 23.9789ZM11.2852 23.9769L11.3359 23.9799L11.3042 23.9782L11.2852 23.9769ZM12.7749 23.9782L12.7432 23.9799L12.7939 23.9769L12.7749 23.9782ZM11.2656 23.9763L11.3112 23.9791L11.2687 23.9765L11.2259 23.9738L11.2656 23.9763ZM12.8085 23.9765L12.766 23.9791L12.8116 23.9763L12.8512 23.9738L12.8085 23.9765ZM12.8416 23.9751L12.8264 23.9761L12.8748 23.9729L12.8416 23.9751ZM11.2024 23.9729L11.2507 23.9761L11.2355 23.9751L11.2024 23.9729ZM11.1696 23.9689L11.2171 23.9723L11.1911 23.9705L11.1696 23.9689ZM12.887 23.9705L12.861 23.9723L12.9085 23.9689L12.887 23.9705ZM11.1364 23.9671L11.18 23.9702L11.1461 23.9678L11.1364 23.9671ZM12.931 23.9678L12.8971 23.9702L12.9408 23.9671L12.931 23.9678ZM11.0932 23.9633L11.1314 23.9662L11.1222 23.9656L11.0932 23.9633ZM12.955 23.9656L12.9457 23.9662L12.984 23.9633L12.955 23.9656ZM12.9998 23.961L12.9815 23.9624L13.0204 23.9593L12.9998 23.961ZM11.0587 23.9593L11.0976 23.9624L11.0793 23.961L11.0587 23.9593ZM11.0265 23.9575L11.0595 23.9603L11.0362 23.9584L11.0265 23.9575ZM13.0419 23.9584L13.0187 23.9603L13.0517 23.9575L13.0419 23.9584ZM13.1119 23.9513L13.1029 23.9521L13.1256 23.9501L13.1119 23.9513ZM10.9516 23.9501L10.9742 23.9521L10.9652 23.9513L10.9516 23.9501ZM10.9183 23.9483L10.9352 23.9499L10.9247 23.9489L10.9183 23.9483ZM13.1525 23.9489L13.142 23.9499L13.1588 23.9483L13.1525 23.9489ZM10.125 23.8153C4.3913 22.9156 0 17.956 0 11.9805C0 5.3683 5.37703 0 12 0C18.623 0 24 5.3683 24 11.9805C24 17.956 19.6087 22.9156 13.875 23.8153V15.4436H16.6711L17.2031 11.9805H13.875V9.73318C13.875 8.78573 14.3399 7.86221 15.8306 7.86221H17.3438V4.91388C17.3438 4.91388 15.9705 4.67988 14.6576 4.67988C11.9165 4.67988 10.125 6.33844 10.125 9.34105V11.9805H7.07812V15.4436H10.125V23.8153Z" fill="black"/>
</svg>
