<svg width="24" height="24" viewBox="0 0 24 24" fill="none" xmlns="http://www.w3.org/2000/svg">
<path fill-rule="evenodd" clip-rule="evenodd" d="M12 0C18.623 0 24 5.37703 24 12C24 18.623 18.623 24 12 24C5.37703 24 0 18.623 0 12C0 5.37703 5.37703 0 12 0ZM12 4.5C9.96314 4.5 9.70772 4.50863 8.90775 4.54514C8.10947 4.58156 7.56427 4.70836 7.08717 4.89375C6.594 5.08542 6.17573 5.34188 5.75878 5.75883C5.34183 6.17578 5.08537 6.59405 4.8937 7.08722C4.70831 7.56427 4.58156 8.10947 4.54509 8.90775C4.50863 9.70772 4.5 9.96314 4.5 12C4.5 14.0369 4.50863 14.2923 4.54509 15.0922C4.58156 15.8905 4.70831 16.4357 4.8937 16.9128C5.08537 17.406 5.34183 17.8242 5.75878 18.2412C6.17573 18.6582 6.594 18.9146 7.08717 19.1063C7.56427 19.2916 8.10947 19.4184 8.90775 19.4549C9.70772 19.4914 9.96314 19.5 12 19.5C14.0369 19.5 14.2923 19.4914 15.0922 19.4549C15.8905 19.4184 16.4357 19.2916 16.9128 19.1063C17.406 18.9146 17.8242 18.6582 18.2412 18.2412C18.6582 17.8242 18.9146 17.406 19.1063 16.9128C19.2916 16.4357 19.4184 15.8905 19.4549 15.0922C19.4914 14.2923 19.5 14.0369 19.5 12C19.5 9.96314 19.4914 9.70772 19.4549 8.90775C19.4184 8.10947 19.2916 7.56427 19.1063 7.08722C18.9146 6.59405 18.6582 6.17578 18.2412 5.75883C17.8242 5.34188 17.406 5.08542 16.9128 4.89375C16.4357 4.70836 15.8905 4.58156 15.0922 4.54514C14.2923 4.50863 14.0369 4.5 12 4.5ZM12.0002 5.85156C14.0028 5.85156 14.24 5.8592 15.0309 5.8953C15.7621 5.92867 16.1592 6.05083 16.4235 6.15353C16.7736 6.28956 17.0234 6.45213 17.2858 6.71458C17.5483 6.97698 17.7108 7.22687 17.8469 7.57694C17.9496 7.84122 18.0718 8.2383 18.1051 8.96955C18.1412 9.76042 18.1488 9.99761 18.1488 12.0002C18.1488 14.0028 18.1412 14.24 18.1051 15.0309C18.0718 15.7621 17.9496 16.1592 17.8469 16.4235C17.7108 16.7736 17.5483 17.0234 17.2858 17.2858C17.0234 17.5483 16.7736 17.7108 16.4235 17.8469C16.1592 17.9496 15.7621 18.0718 15.0309 18.1051C14.2401 18.1412 14.0029 18.1488 12.0002 18.1488C9.99747 18.1488 9.76033 18.1412 8.96955 18.1051C8.2383 18.0718 7.84122 17.9496 7.57694 17.8469C7.22683 17.7108 6.97698 17.5483 6.71453 17.2858C6.45208 17.0234 6.28956 16.7736 6.15353 16.4235C6.05083 16.1592 5.92863 15.7621 5.89525 15.0309C5.85916 14.24 5.85156 14.0028 5.85156 12.0002C5.85156 9.99761 5.85916 9.76042 5.89525 8.96955C5.92863 8.2383 6.05083 7.84122 6.15353 7.57694C6.28956 7.22687 6.45208 6.97698 6.71453 6.71458C6.97698 6.45213 7.22683 6.28956 7.57694 6.15353C7.84122 6.05083 8.2383 5.92867 8.96955 5.8953C9.76042 5.8592 9.99761 5.85156 12.0002 5.85156ZM12.0008 8.14844C9.87371 8.14844 8.14941 9.87273 8.14941 11.9998C8.14941 14.1268 9.87371 15.8511 12.0008 15.8511C14.1278 15.8511 15.8521 14.1268 15.8521 11.9998C15.8521 9.87273 14.1278 8.14844 12.0008 8.14844ZM12 14.5C10.6193 14.5 9.5 13.3807 9.5 12C9.5 10.6193 10.6193 9.5 12 9.5C13.3807 9.5 14.5 10.6193 14.5 12C14.5 13.3807 13.3807 14.5 12 14.5ZM16.9035 7.99766C16.9035 8.49472 16.5005 8.89761 16.0035 8.89761C15.5065 8.89761 15.1035 8.49472 15.1035 7.99766C15.1035 7.50059 15.5065 7.09766 16.0035 7.09766C16.5005 7.09766 16.9035 7.50059 16.9035 7.99766Z" fill="black"/>
</svg>
