<svg width="24" height="24" viewBox="0 0 24 24" fill="none" xmlns="http://www.w3.org/2000/svg">
<path d="M16.3168 8.60845L9.58294 14.6084C9.49661 14.6954 9.49661 14.7824 9.49661 14.8693L9.23762 17.2171C9.23762 17.3041 9.15129 17.3041 9.06496 17.2171L8.02899 13.7389C7.94265 13.565 8.02899 13.3911 8.20165 13.3041L16.0578 8.34758C16.3168 8.26062 16.4894 8.52149 16.3168 8.60845Z" fill="#222A30"/>
<path fill-rule="evenodd" clip-rule="evenodd" d="M3.53957 3.47826C5.69784 1.30435 8.71942 0 12 0C18.5612 0 23.9137 5.3913 24 12C24 15.3043 22.6187 18.3478 20.4604 20.5217C18.3022 22.6957 15.2806 24 12 24C8.71942 24 5.69784 22.6957 3.53957 20.5217C1.29496 18.3478 0 15.3043 0 12C0 8.69565 1.38129 5.65217 3.53957 3.47826ZM16.662 18.696L19.0792 6.86995C19.2519 6.26125 18.6476 5.82647 18.2159 5.91342L3.79865 11.5656C3.28066 11.7395 3.28066 12.3482 3.79865 12.5221L7.42454 13.6526L8.80584 18.0004C8.9785 18.4352 9.49649 18.6091 9.84181 18.2612L11.7411 16.3482L15.4533 19.1308C15.885 19.4786 16.5756 19.2178 16.662 18.696Z" fill="black"/>
</svg>
