<svg width="24" height="24" viewBox="0 0 24 24" fill="none" xmlns="http://www.w3.org/2000/svg">
<path fill-rule="evenodd" clip-rule="evenodd" d="M0 12.0005C0 5.37378 5.37281 0 12.0005 0C18.6277 0 24 5.37378 24 12.0005C24 18.6282 18.6282 24 12.0005 24C5.37281 24 0 18.6282 0 12.0005ZM18.0537 9.97143C18.0537 9.83986 18.0513 9.70974 18.045 9.58011C18.6361 9.1537 19.1492 8.62104 19.5537 8.01334C19.0118 8.2536 18.429 8.41637 17.8164 8.48947C18.4412 8.11568 18.9202 7.52309 19.1468 6.81646C18.5625 7.16295 17.9153 7.41539 17.2262 7.55038C16.6746 6.96315 15.889 6.5957 15.0191 6.5957C13.3486 6.5957 11.9948 7.94999 11.9948 9.61958C11.9948 9.85642 12.0216 10.0879 12.0732 10.3087C9.55958 10.1829 7.33102 8.97874 5.8393 7.14931C5.57907 7.5957 5.42995 8.11568 5.42995 8.66978C5.42995 9.71948 5.96357 10.6439 6.77547 11.1873C6.27936 11.1712 5.81299 11.0353 5.40558 10.8087C5.40509 10.8218 5.40509 10.8345 5.40509 10.8477C5.40509 12.3116 6.44749 13.5348 7.83151 13.8126C7.57761 13.8823 7.31055 13.9183 7.03472 13.9183C6.83979 13.9183 6.65022 13.9003 6.46601 13.8642C6.851 15.0655 7.96747 15.9402 9.29057 15.9651C8.25597 16.776 6.95188 17.2594 5.53472 17.2594C5.29057 17.2594 5.05032 17.2453 4.81348 17.2175C6.15168 18.0752 7.74184 18.5757 9.44944 18.5757C15.0118 18.5757 18.0537 13.968 18.0537 9.97143Z" fill="black"/>
</svg>
