<svg width="24" height="24" viewBox="0 0 24 24" fill="none" xmlns="http://www.w3.org/2000/svg">
<path fill-rule="evenodd" clip-rule="evenodd" d="M24 12C24 18.6274 18.6274 24 12 24C5.37258 24 0 18.6274 0 12C0 5.37258 5.37258 0 12 0C18.6274 0 24 5.37258 24 12ZM8.16566 18.9487C9.34764 19.5973 10.7062 19.9669 12.1523 19.9669C16.7073 19.9669 20.3996 16.303 20.3996 11.7833C20.3996 7.2635 16.7072 3.59961 12.1525 3.59961C7.59726 3.59961 3.90481 7.2635 3.90481 11.7833C3.90481 13.3292 4.33732 14.7755 5.08809 16.0088L3.59961 20.3996L8.16566 18.9487ZM5.21838 11.7833C5.21838 7.98945 8.32862 4.90292 12.1523 4.90292C15.9754 4.90292 19.0862 7.98964 19.0862 11.7835C19.0862 15.5773 15.9754 18.6636 12.1523 18.6636C10.7439 18.6636 9.43238 18.2444 8.3374 17.5255L5.67292 18.3724L6.53905 15.8173C5.70913 14.6829 5.21838 13.2887 5.21838 11.7833ZM16.0394 13.4874C16.1805 13.555 16.2759 13.6008 16.3168 13.668C16.3671 13.7517 16.3671 14.1534 16.1989 14.6221C16.0299 15.0904 15.2045 15.5422 14.8343 15.5756C14.7708 15.5813 14.7182 15.5939 14.6642 15.6068C14.4033 15.6694 14.1114 15.7393 12.4079 15.0738C10.5088 14.3315 9.25689 12.4891 8.99815 12.1083C8.97691 12.0771 8.96236 12.0557 8.9547 12.0455L8.95436 12.0451C8.85174 11.9098 8.12926 10.9571 8.12926 9.9711C8.12926 9.04767 8.58637 8.56337 8.79686 8.34035C8.81133 8.32502 8.82463 8.31093 8.83654 8.29801C9.0219 8.09734 9.24105 8.04713 9.37582 8.04713C9.44545 8.04713 9.51508 8.05161 9.58239 8.05595C9.64537 8.06 9.70632 8.06393 9.76334 8.06393C9.77748 8.06393 9.79233 8.06297 9.8078 8.06198C9.92174 8.05464 10.0698 8.04511 10.2181 8.39844C10.272 8.5271 10.3501 8.71582 10.4331 8.91622C10.6093 9.34149 10.8071 9.81934 10.8415 9.88748C10.8921 9.98809 10.9259 10.1051 10.8583 10.239C10.8485 10.2585 10.8394 10.2771 10.8307 10.2947C10.7799 10.3981 10.7427 10.4736 10.6564 10.5737C10.6223 10.613 10.5871 10.6555 10.552 10.6979C10.4826 10.7816 10.4134 10.8653 10.353 10.925C10.2519 11.0248 10.1464 11.1333 10.2644 11.334C10.3821 11.535 10.788 12.1913 11.3888 12.7229C12.0353 13.2948 12.597 13.5365 12.8814 13.6589C12.9368 13.6828 12.9818 13.7021 13.0147 13.7184C13.2169 13.8189 13.3346 13.8021 13.4526 13.668C13.5708 13.5342 13.9583 13.0827 14.0929 12.8818C14.2275 12.6809 14.3624 12.7147 14.548 12.7816C14.733 12.8482 15.7272 13.3337 15.9295 13.434C15.9687 13.4534 16.0054 13.471 16.0394 13.4874Z" fill="black"/>
</svg>
