<svg width="149" height="202" viewBox="0 0 149 202" fill="none" xmlns="http://www.w3.org/2000/svg">
<path fill-rule="evenodd" clip-rule="evenodd" d="M120.465 156.706C119.938 153.728 119.454 150.742 119.015 147.75C118.807 146.33 118.604 144.908 118.421 143.484C118.293 142.486 118.098 141.345 118.777 140.606C119.731 139.566 120.599 138.675 120.716 137.185C120.826 135.783 120.352 134.255 120.056 132.894C119.434 130.041 118.661 127.222 117.806 124.431C116.938 121.594 115.985 118.785 115.019 115.98C114.116 113.358 113.248 110.713 112.072 108.197C109.84 103.423 106.064 99.8879 101.397 97.5273C100.236 96.9402 97.8686 94.8444 96.6559 94.3752C95.5411 93.9437 95.545 95.2036 94.4479 94.729C93.5707 94.3497 92.754 93.8438 92.2629 92.9966C91.7297 92.0767 90.3924 90.79 90.1889 89.7192C89.7575 87.4495 90.2248 85.5176 88.6055 83.8093C87.1679 82.2924 85.2357 81.2531 83.2364 80.6953C78.8382 79.468 72.9727 80.326 70.3191 84.4145C69.0517 86.367 68.6088 88.7269 66.8986 90.3204C65.4052 91.7117 65.7394 92.663 63.8053 93.38C63.6957 93.4207 60.7265 92.7836 60.6169 92.8243C58.501 92.3714 56.4787 93.6393 54.5374 94.3752C51.6434 95.472 48.888 96.8996 46.2994 98.5962C41.0797 102.018 36.6091 106.46 32.9234 111.488C29.2073 116.556 26.324 122.238 24.2709 128.176C23.7724 129.618 23.3245 131.078 22.9295 132.552C22.7084 133.377 22.4721 134.233 22.7413 135.077C22.9615 135.768 23.4513 136.283 24.0265 136.697C24.8063 137.259 26.3702 137.625 26.3398 138.755C26.3165 139.615 26.025 140.519 25.8828 141.368C25.7135 142.38 25.5743 143.397 25.4352 144.413C24.8023 149.037 24.3098 153.687 24.0919 158.351C23.8775 162.942 23.6995 167.628 24.0179 172.218C24.039 172.521 24.1292 172.799 24.2747 173.034C24.1389 173.086 24.1284 173.339 24.2975 173.375C24.4159 173.4 24.5341 173.425 24.6526 173.45C24.8987 173.636 25.2056 173.751 25.5588 173.762C25.7982 173.769 26.0375 173.78 26.2766 173.792C28.8004 174.32 31.3237 174.819 33.8805 175.196C36.9883 175.655 40.1053 176.029 43.232 176.333C49.6568 176.958 56.031 176.751 62.4642 176.414C68.8876 176.078 75.3071 175.999 81.7372 176.166C88.1728 176.334 94.6061 176.614 101.043 176.729C108.235 176.856 115.415 176.66 122.586 176.088C123.569 176.01 124.177 175.227 123.984 174.25C122.822 168.398 121.505 162.584 120.465 156.706Z" fill="white"/>
<path fill-rule="evenodd" clip-rule="evenodd" d="M58.6105 92.6806C59.2755 92.6517 59.9537 92.7594 60.6171 92.8246C60.6749 92.8303 60.6969 92.9195 60.6318 92.9331C59.4444 93.1812 58.27 93.5207 57.1039 93.8655L56.6046 94.0133C55.2895 94.4024 54.0131 94.8039 52.74 95.323C50.2028 96.3574 47.7931 97.7536 45.5753 99.3578C37.0352 105.535 30.8543 114.887 26.9538 124.569C25.8945 127.199 24.997 129.894 24.27 132.634C24.0932 133.301 23.9269 133.97 23.7692 134.642C23.7229 134.839 23.5211 135.343 23.6318 135.544C23.7296 135.722 24.1098 135.832 24.2865 135.925L24.8829 136.234C26.0462 136.834 27.984 137.82 28.1783 137.916L28.4814 138.065C33.4385 140.496 38.7352 142.558 44.3135 142.701L44.3571 142.224C44.6058 139.589 44.9322 136.941 45.6446 134.387C45.6829 134.25 45.8574 134.296 45.8734 134.418C46.2702 137.441 46.1434 140.488 46.0049 143.525C45.7598 148.904 45.4342 154.28 45.1448 159.657C44.9999 162.347 44.8127 165.035 44.6436 167.723C44.4743 170.417 44.4195 173.176 44.0329 175.847C43.9467 176.443 43.2495 176.767 42.7215 176.704C42.1373 176.634 41.6878 176.119 41.6851 175.529C41.678 173.973 41.8735 172.398 41.9822 170.846C42.0853 169.371 42.1961 167.897 42.3096 166.422C42.7244 161.042 43.2015 155.668 43.6428 150.29C43.7992 148.383 43.9681 146.477 44.142 144.571C38.2327 144.381 32.712 142.191 27.4453 139.633C27.3691 141.364 27.185 143.093 27.0067 144.817C26.5092 149.629 26.0705 154.439 25.7422 159.266C25.5764 161.704 25.4557 164.145 25.3506 166.586C25.2989 167.786 25.2568 168.986 25.2245 170.186C25.2137 170.586 25.2039 170.986 25.1953 171.387L25.1773 172.303C25.1626 172.884 25.1036 173.422 24.6151 173.845C24.1188 174.275 23.4486 174.297 22.9574 173.845C22.3 173.239 22.4162 172.414 22.4357 171.601C22.4519 170.915 22.4714 170.229 22.494 169.543C22.5394 168.171 22.5973 166.8 22.6678 165.429C22.9144 160.637 23.4072 155.864 24.0512 151.11L24.3026 149.275C24.772 145.863 25.2874 142.374 26.3369 139.088C25.9283 138.884 25.5208 138.68 25.1149 138.474C24.395 138.109 23.6506 137.767 22.9508 137.365C22.3956 137.045 21.9167 136.607 21.7622 135.961C21.5898 135.241 21.8534 134.453 22.0285 133.751L22.0437 133.689C22.2154 132.982 22.4003 132.277 22.5954 131.576C23.3865 128.732 24.3647 125.944 25.5094 123.224C27.8016 117.778 30.7603 112.605 34.3743 107.927C37.6274 103.716 41.4704 99.8975 45.9745 97.0335C48.1764 95.6334 50.523 94.4837 53.0047 93.6708C54.1646 93.291 55.4267 92.9605 56.6412 92.8245C57.2963 92.7512 57.9523 92.7093 58.6105 92.6806ZM70.3934 84.0503C71.1837 83.2013 72.7539 84.0799 72.3744 85.204C71.4818 87.8488 70.0605 90.2614 67.8423 91.9993C65.7573 93.6331 63.2709 94.6941 60.5933 94.4677C60.5726 94.4658 60.5547 94.4606 60.5389 94.4531L60.7696 94.7662C62.5812 97.2177 64.4924 99.6354 66.7959 101.639C71.4892 105.722 77.8793 107.924 84.0498 106.357C88.9045 105.125 93.1816 101.285 94.4395 96.3903C94.2592 96.4711 94.0449 96.4987 93.8097 96.4476C92.8032 96.229 91.8068 95.1701 91.1577 94.4109C90.4556 93.5895 89.9072 92.7026 89.5052 91.7001C88.7696 89.8654 88.5337 87.5031 89.5382 85.7258C89.6621 85.5067 89.948 85.6295 89.9723 85.8434L90.0105 86.1773C90.2042 87.8429 90.4454 89.4541 91.2305 90.9726C91.6146 91.7156 92.0751 92.4408 92.6357 93.063C92.9357 93.3959 93.2609 93.7141 93.6119 93.9932C93.9541 94.2652 94.3681 94.4618 94.6748 94.7739L94.731 94.8338L94.7325 94.8231C94.8101 94.1637 95.2723 93.8731 95.7246 93.8913C96.1623 93.9089 96.6764 94.1016 96.8755 94.194L96.8944 94.2028C99.9478 95.6692 102.76 97.5805 105.407 99.7009C110.88 104.086 114.98 109.819 116.967 116.57C117.942 119.883 118.502 123.297 119.093 126.695L119.456 128.777C120.007 131.914 120.623 135.113 121.868 138.031C122.19 138.786 121.942 139.494 121.152 139.79C120.167 140.161 119.177 140.52 118.186 140.875C118.673 142.963 118.97 145.123 119.334 147.222C120.109 151.682 121.059 156.114 121.873 160.569C122.289 162.846 122.664 165.131 123.08 167.409C123.28 168.506 123.489 169.602 123.693 170.698C123.802 171.289 123.901 171.882 124.006 172.475L124.024 172.573C124.084 172.885 124.159 173.208 124.073 173.521C123.975 173.877 123.697 174.129 123.449 174.385C123.244 174.595 122.949 174.596 122.698 174.482L122.616 174.443C122.169 174.234 121.819 174.025 121.66 173.521C121.559 173.201 121.523 172.841 121.458 172.512C121.332 171.881 121.212 171.249 121.1 170.615C120.874 169.347 120.654 168.078 120.439 166.808L120.238 165.619C119.549 161.521 118.895 157.398 118.564 153.257C118.417 151.419 118.261 149.584 118.105 147.748L117.987 146.371C117.838 144.628 117.655 142.84 117.63 141.074L117.037 141.284L114.146 142.307C113.429 142.56 112.517 143.079 111.745 142.985C111.367 142.939 111.079 142.82 110.857 142.604C111.123 146.362 111.484 150.114 111.964 153.847C112.401 157.244 112.886 160.636 113.458 164.012C113.741 165.684 114.032 167.355 114.349 169.021C114.507 169.854 114.67 170.686 114.838 171.517C114.922 171.932 115.022 172.347 115.087 172.765C115.162 173.243 115.03 173.538 114.763 173.932C114.543 174.255 114.104 174.421 113.748 174.198C113.276 173.902 113.03 173.646 112.892 173.107C112.765 172.617 112.689 172.106 112.591 171.61C112.411 170.695 112.237 169.778 112.069 168.86C111.718 166.941 111.394 165.017 111.105 163.088C110.085 156.29 109.439 149.435 109.112 142.569C108.951 139.181 108.901 135.79 108.93 132.399C108.944 130.661 109.001 128.918 109.124 127.184C109.248 125.429 109.507 123.709 109.739 121.971C109.747 121.91 109.833 121.906 109.837 121.971C109.946 123.92 110.118 125.866 110.202 127.82C110.282 129.685 110.317 131.552 110.381 133.417C110.465 135.869 110.581 138.322 110.735 140.773C111.014 140.468 111.434 140.292 111.854 140.361C112.463 140.233 113.118 139.914 113.698 139.72L115.887 138.988C117.037 138.604 118.187 138.222 119.341 137.852C118.309 134.379 117.602 130.854 116.999 127.277L116.729 125.668C116.197 122.502 115.622 119.335 114.657 116.269C113.642 113.045 112.123 110.049 110.109 107.335C108.123 104.66 105.707 102.305 103.219 100.102C101.09 98.2164 98.8114 96.5138 96.6392 94.6798C96.662 94.8013 96.6668 94.9352 96.6468 95.0822C96.185 98.4636 94.4217 101.613 91.9644 103.955C87.0276 108.66 79.72 109.636 73.4015 107.43C67.2895 105.295 61.8857 100.241 59.9765 93.9859C59.9438 93.8789 60.0871 93.8364 60.1446 93.915C60.2505 94.0602 60.357 94.2054 60.4635 94.3506C60.4563 94.2929 60.4863 94.2301 60.5574 94.2026C62.785 93.3422 64.9725 92.1219 66.6422 90.3956C67.4561 89.5541 68.1664 88.6007 68.727 87.5726C68.9956 87.0801 69.2369 86.5701 69.4293 86.043L69.4783 85.9067C69.7115 85.2465 69.9065 84.5733 70.3934 84.0503Z" fill="black"/>
<path fill-rule="evenodd" clip-rule="evenodd" d="M68.7796 32.084L69.9089 33.4276C69.2835 33.8685 68.6932 34.3114 68.1379 34.7565L68.1374 34.7552C70.7095 33.0764 73.5582 32.084 76.6355 32.084C82.5625 32.084 94.6016 37.1773 97.3232 40.8511C98.6738 42.6743 101.184 48.2713 102.486 54.3562C103.532 59.2454 105.087 73.058 103.532 78.2481C101.54 84.8907 94.9893 91.03 88.2343 91.03C81.4793 91.03 70.992 86.1514 63.5281 75.4601C63.1868 74.9712 59.2675 74.4046 56.4715 72.5697L57.2056 80.6599L57.7635 85.3661L57.6404 85.7011C55.6379 91.1188 54.0511 93.9452 52.8799 94.1804C51.6848 94.4203 49.251 92.4605 45.5785 88.301L45.1092 86.3306C43.9173 81.3042 43.3213 78.6061 43.3213 78.2364L43.3221 78.1691C43.3397 77.3184 43.6326 72.5035 43.6387 71.2078L43.6388 51.7874C47.5884 38.6518 51.3575 32.084 54.9461 32.084H68.7796Z" fill="white"/>
<path fill-rule="evenodd" clip-rule="evenodd" d="M59.421 27.6098C60.5823 27.1598 61.9277 27.2448 63.03 27.9224C65.1941 27.8295 67.3464 29.0958 68.4747 30.9441C68.4982 30.9703 68.5232 30.9964 68.5455 31.0226L68.7846 31.3014C69.011 31.5677 69.2499 31.8611 69.4391 32.1642C68.5122 32.1854 67.7401 32.5633 67.2011 33.3265C66.8166 33.8711 67.6975 34.3887 68.0906 33.8736L68.1044 33.8547C68.428 33.3965 68.9165 33.219 69.4604 33.2097C69.6165 33.2071 69.735 33.1473 69.8186 33.0592C69.852 33.1807 69.8818 33.3035 69.9091 33.4269C72.6475 32.3614 75.5994 32.0793 78.5395 32.332C78.4106 32.5408 78.3029 32.7644 78.22 32.9995C78.1259 33.266 78.3265 33.5719 78.5853 33.6431C78.8651 33.72 79.1181 33.556 79.2193 33.3024L79.2286 33.2776C79.3416 32.9574 79.5261 32.6826 79.7738 32.4695C81.1578 32.6572 82.5321 32.9557 83.8727 33.3405C85.4841 33.8035 87.0802 34.3684 88.6412 35.0153C88.3768 35.119 88.1484 35.2943 87.9885 35.5869C87.6692 36.171 88.5469 36.6942 88.88 36.1358L88.8918 36.1151C88.9244 36.0552 88.9534 36.0192 88.9745 35.9987L88.9821 35.9918L89.0281 35.9706L89.1139 35.946L89.1468 35.9379C89.1759 35.9313 89.188 35.9318 89.2644 35.9275C89.3661 35.9218 89.468 35.9223 89.5699 35.9222C89.8094 35.922 89.9623 35.7885 90.0314 35.6177C90.8017 35.9655 91.5622 36.3317 92.3092 36.7154L92.4868 36.8074C94.7926 38.0126 96.9771 39.5954 98.2443 41.9242C98.3281 42.0799 98.3542 42.2499 98.3334 42.4121C98.6039 42.7365 98.8654 43.0714 99.1165 43.4115C99.8827 44.4528 100.444 45.6366 100.975 46.8099C102.043 49.1697 102.762 51.5936 103.323 54.1208C103.866 56.5565 104.304 59.0183 104.71 61.4802C105.161 64.2154 105.537 66.9741 105.615 69.7486C105.754 74.6945 104.787 79.6691 102.011 83.8328C99.535 87.5478 95.8058 90.4975 91.3835 91.442C86.8854 92.4021 82.1258 91.4655 78.5811 88.4674C78.0096 87.9847 78.0882 87.0101 78.5811 86.5157C79.1394 85.9584 79.9631 86.0356 80.5319 86.5157C83.8701 89.3399 88.7291 89.7754 92.7513 88.3366C96.4701 87.0049 99.3832 83.9335 101.171 80.4841C103.352 76.2773 103.719 71.4452 103.384 66.791C103.201 64.235 102.821 61.6999 102.429 59.1688L102.192 57.6451C101.933 55.9949 101.662 54.3468 101.308 52.7133L101.225 52.3328C100.793 50.3629 100.286 48.3426 99.5024 46.4908C99.0916 45.5188 98.5975 44.5823 98.0915 43.6574C97.9934 43.4782 97.8926 43.2964 97.7893 43.1133C97.6507 43.1617 97.4925 43.1695 97.3264 43.1172C95.8972 42.6724 94.4288 42.3742 92.9344 42.2748C92.2535 42.2293 91.5716 42.2222 90.8905 42.2488C89.7245 42.1809 88.526 42.2834 87.4154 42.641C87.3067 42.5478 87.1966 42.4565 87.0864 42.3652C87.0567 42.3628 87.027 42.3597 86.9972 42.3538C86.7139 42.2981 86.5146 42.0966 86.3945 41.8422C86.3883 41.8287 86.3826 41.8153 86.3773 41.8018C86.2351 41.6931 86.0918 41.5861 85.9472 41.4805C85.5947 41.5719 85.2858 41.2785 85.2027 40.957C85.1242 40.904 85.0445 40.8528 84.9652 40.8008C84.9031 40.816 84.8414 40.8286 84.7812 40.833C84.5217 40.8517 84.271 40.8119 84.041 40.6881C83.7498 40.5312 83.5638 40.2782 83.4393 39.9909C82.9989 40.0179 82.5533 39.875 82.1596 39.6165C81.84 39.4068 81.5952 39.1173 81.3519 38.8284C78.3865 37.5052 75.1631 36.724 71.9321 36.5239C71.6138 36.5851 71.2978 36.658 70.9857 36.7427C70.9118 36.7629 70.8069 36.8024 70.6862 36.8497C71.4066 36.7626 72.1362 36.754 72.8762 36.8606C76.3875 37.3685 79.1223 39.9986 81.4761 42.4812C82.036 42.3681 82.6019 43.0934 82.0837 43.5737L78.0437 47.3189C78.1428 47.7378 77.6627 48.1506 77.242 48.05C76.5367 47.8805 75.8302 47.7157 75.1232 47.5536C74.3857 47.9106 73.4585 47.8495 72.7896 47.332C72.7585 47.3079 72.6909 47.2695 72.6322 47.2313C72.5772 47.2767 72.5034 47.3222 72.4739 47.3415C72.2361 47.499 71.9463 47.5453 71.6685 47.5011C71.3826 47.4557 71.1246 47.3107 70.9022 47.13C70.7606 47.0149 70.4307 46.5348 70.2471 46.4995L70.2292 46.4974C70.3517 46.501 69.9579 46.8671 69.8521 46.9428C69.6052 47.119 69.3324 47.2116 69.0252 47.1779C68.4899 47.119 68.0296 46.6309 67.7678 46.1803L67.7481 46.1457L67.7399 46.1242L67.7329 46.1474C67.7316 46.1515 67.7301 46.1559 67.7283 46.1609C67.6891 46.2669 67.5659 46.3875 67.4823 46.4617C67.2438 46.6727 66.9485 46.7655 66.6331 46.7104C66.3662 46.6639 66.1417 46.5026 65.9613 46.3073L65.9332 46.2762C65.8798 46.216 65.5281 45.7433 65.5836 45.63L65.5901 45.6205L65.5725 45.6168C65.3586 45.6694 65.1791 45.6167 65.0476 45.5064C64.3135 45.3455 63.5889 45.1581 62.8876 44.9197C62.8326 45.0741 62.7789 45.2284 62.7267 45.3841C63.1097 45.6209 63.4641 45.9584 63.7897 46.1991C64.407 46.6543 65.024 47.1095 65.6399 47.566L68.0801 49.3667L68.3591 49.2918C68.7157 49.196 69.0216 49.4037 69.1525 49.7211L69.1633 49.7486C69.2152 49.8876 69.2777 50.0162 69.3512 50.1393C69.9612 50.115 70.4777 50.4896 70.6446 51.027C70.7953 51.0236 70.9475 51.0293 71.1031 51.0464C71.5292 51.0933 71.8165 51.4098 71.7393 51.8445L71.7335 51.8743L71.7231 51.9227C71.9701 52.0276 72.1493 52.2303 72.189 52.5366C72.2552 52.6362 72.3085 52.7445 72.3427 52.8651C72.5209 53.4909 72.1742 54.2645 71.9895 54.864L71.9752 54.9109C71.8567 55.3049 71.734 55.697 71.6099 56.089L71.3007 57.062C70.4435 59.774 69.6076 62.6333 70.3014 65.4764C70.4493 66.0781 69.6803 66.3502 69.3469 65.8793C68.5385 64.7391 67.6652 63.6648 66.7482 62.6335L66.7037 62.6264C66.0616 62.4973 65.8122 62.0436 65.5175 61.581C65.3438 61.6322 65.1571 61.6442 64.9767 61.6094C64.7154 61.559 64.4814 61.4098 64.2966 61.2213C64.1401 61.0614 63.9967 60.6515 63.8116 60.5498C63.5802 60.4228 63.115 60.6044 62.8385 60.5636C62.6138 60.5305 62.4039 60.4533 62.2003 60.3564C61.8261 60.8667 61.578 61.4666 61.5172 62.1133C61.4936 62.3592 61.4203 62.5672 61.3144 62.7398C61.7041 62.7255 62.095 62.7529 62.4809 62.8249C63.9088 63.0904 64.9326 63.9721 65.5079 65.2854C65.5327 65.3429 65.4581 65.39 65.4241 65.3351C64.5704 64.0205 62.7122 63.9538 61.3628 64.4168C59.9297 64.9087 59.1255 66.171 58.8393 67.6112C58.5255 69.19 58.9281 70.8919 59.7873 72.2366C60.186 72.8618 60.7301 73.4322 61.453 73.6624C62.3122 73.9358 63.1058 73.4466 63.9858 73.699C64.5847 73.8704 64.8489 74.4499 64.7403 75.0294C64.6971 75.257 64.6174 75.4558 64.5101 75.6285C64.8267 76.2563 65.1195 76.9025 65.4921 77.4964C66.0675 78.4134 66.7632 79.1721 67.5215 79.9373C68.3047 80.7274 69.1024 81.5018 69.9405 82.2343C70.7435 82.9368 71.664 83.4364 72.5061 84.08C73.0971 84.5313 73.3899 85.1644 73.0983 85.8891C72.8578 86.4882 72.047 86.9984 71.3906 86.7276C70.134 86.2096 69.0344 85.3279 68.0329 84.4201C67.1045 83.5777 66.2963 82.5705 65.6857 81.4769C65.1096 80.4459 64.6852 79.2751 64.327 78.1473L64.2826 78.0066C64.1139 77.4702 63.9362 76.8672 63.8212 76.259C63.1321 76.6357 62.197 76.6906 61.4597 76.5886C60.2684 76.4251 59.1818 75.8247 58.3606 74.9496C57.9779 74.5423 57.6396 74.0778 57.3475 73.5744C57.374 73.8808 57.3899 74.1774 57.4069 74.4473C58.0895 75.1952 58.3633 76.2747 58.1211 77.2595C58.6922 77.8476 58.8522 78.7305 58.5541 79.4821C59.1793 80.1024 59.1557 81.0895 58.8855 81.9859C59.6245 82.8122 59.6945 84.0995 59.1174 85.0319L59.1 85.0989C59.6827 86.0742 59.5513 87.3347 58.8213 88.1959C59.3198 89.1634 59.2427 90.4647 57.9967 90.8401C57.5426 90.9768 57.1024 90.8601 56.7731 90.6056C57.0738 92.1019 57.2084 93.621 56.8073 95.1242C56.6477 95.7207 56.0645 96.1563 55.4512 96.1563C54.9387 96.1563 54.566 95.8986 54.3085 95.5193C54.3386 96.274 54.2929 97.0327 54.132 97.798C54.035 98.2601 53.6065 98.6205 53.1516 98.7321C53.3157 98.9172 53.3811 99.1849 53.2238 99.4637C52.5568 100.645 50.9452 100.155 50.8363 99.0234C50.3811 98.6835 50.1695 98.1255 50.0819 97.5226C49.9543 96.6433 49.908 95.7785 49.7634 94.9105L49.7081 94.9622L49.6796 94.9869L49.6704 95.0497C49.5875 95.4787 49.3456 95.7792 49.0317 95.9584C49.0999 96.7069 48.9736 97.4691 48.499 98.0375C48.1828 98.4163 47.6442 98.5654 47.1825 98.4833C47.1535 98.4847 47.1238 98.4846 47.0929 98.4805C46.0473 98.3415 45.4423 97.3493 45.7175 96.4386C45.2965 95.9224 45.1192 95.2675 45.2438 94.6202C44.429 94.0805 44.4456 92.8951 44.7278 91.943C43.8737 91.2686 43.5524 90.008 43.9816 89.0062C43.2118 88.0498 43.1047 86.7171 43.6277 85.6281C42.7808 84.9321 42.7857 83.5883 43.6256 82.8765C43.1783 81.9881 42.9086 80.9237 43.3556 80.1108C43.0402 79.7625 42.8671 79.2663 42.9036 78.7867C42.9571 78.0824 43.4228 77.5958 44.0008 77.2715L44.0408 77.0513C44.1765 77.0681 44.3211 77.0302 44.4486 76.9078C44.5748 76.7865 44.7047 76.6888 44.8389 76.6082C44.991 76.6063 45.1219 76.5385 45.214 76.4342C45.4658 76.3487 45.7366 76.3109 46.0369 76.3075C46.6856 76.3004 46.7085 75.3299 46.1048 75.267C46.0095 75.1709 45.8782 75.1103 45.7358 75.1103L45.6243 75.1108C45.3636 75.1133 45.1004 75.1293 44.8586 75.233C44.7014 75.3003 44.5802 75.4016 44.4914 75.5256C44.4748 75.7132 44.3728 75.9003 44.1519 76.0548C43.8968 76.2332 43.548 76.254 43.2749 76.0926C42.8927 75.8665 42.8888 75.5137 42.9329 75.1302C43.0294 74.2912 42.5471 73.5016 42.662 72.6433C42.7128 72.2638 42.8391 71.9361 43.0451 71.6715C42.6108 71.0212 42.5342 70.1818 42.8686 69.468C42.172 68.7183 42.0516 67.5628 42.4958 66.6606C42.5022 66.6387 42.5071 66.6164 42.5141 66.5948C42.5643 66.4415 42.6334 66.3032 42.7097 66.171C42.3198 65.4952 42.3226 64.666 42.719 63.9931C42.1187 63.293 42.0996 62.1789 42.6334 61.4247C42.6366 61.3622 42.6431 61.2996 42.6485 61.2371C42.4034 60.6007 42.4623 59.8772 42.7731 59.2854C42.6622 59.0297 42.5767 58.7544 42.522 58.4611C42.382 57.705 42.454 56.9699 42.6633 56.2321C42.6971 56.1157 42.735 55.9993 42.7756 55.8828C42.7824 55.3775 42.8016 54.8744 42.827 54.3723C42.7275 53.9472 42.7115 53.48 42.7093 53.0463L42.7087 52.7651C42.7038 52.0494 42.654 51.0015 43.1063 50.3932C42.8159 49.736 42.9352 48.908 43.42 48.3871C43.0797 47.8017 43.0083 47.0829 43.3503 46.4335C43.4052 46.3289 43.4689 46.2316 43.5387 46.1395C43.5104 45.5447 43.6356 44.9314 43.9524 44.3403C44.1582 43.9554 44.4656 43.6222 44.8311 43.3557C44.8249 43.2768 44.8212 43.198 44.8225 43.1205C44.8289 42.7743 44.9056 42.4268 45.0348 42.1025C44.803 41.7067 44.6955 41.2605 44.8311 40.7796C44.9828 40.2355 45.3817 39.7672 45.8798 39.5029C45.9199 38.9899 46.0001 38.4799 46.1146 37.9767C45.8085 37.2948 46.0522 36.3948 46.7441 35.9931C46.6539 35.4481 46.7352 34.883 47.1316 34.4574C47.2819 34.2961 47.4589 34.1738 47.6494 34.0927C47.5577 33.5447 47.6612 32.9747 48.04 32.5285C48.3494 32.1642 48.8078 31.9428 49.2744 31.9103C49.454 30.9572 50.3642 30.2445 51.3245 30.3013C51.4446 29.8817 51.7313 29.5158 52.1762 29.3303C52.29 29.2828 52.4051 29.2516 52.5198 29.2342C53.3007 28.4462 54.4632 27.9121 55.4697 27.6386C56.4792 27.3653 57.5026 27.3388 58.3694 27.6566L58.4325 27.6804L58.5031 27.6713C58.8092 27.6373 59.1151 27.6176 59.421 27.6098ZM51.7499 92.1944C51.4803 92.1103 51.1795 92.294 51.1064 92.5598C51.0293 92.8408 51.2011 93.1191 51.4718 93.2035C51.809 93.3087 52.1632 93.335 52.5147 93.3352C52.7973 93.3355 53.0377 93.0945 53.0377 92.812C53.0377 92.528 52.7983 92.289 52.5147 92.2887C52.2288 92.2885 52.0178 92.278 51.7499 92.1944ZM49.3514 86.6387C48.9483 86.6391 48.6026 86.7353 48.3037 87.0179C48.1044 87.2064 48.0994 87.5704 48.3037 87.758C48.51 87.9473 48.8093 87.9584 49.021 87.7781L49.0618 87.7415C49.0667 87.737 49.0705 87.7335 49.0736 87.7305C49.0906 87.7195 49.1077 87.7083 49.1257 87.6989L49.0916 87.7212C49.0657 87.7399 49.1259 87.7093 49.1597 87.6948L49.1703 87.6905L49.1737 87.6897L49.2008 87.6876C49.2509 87.685 49.3012 87.6851 49.3514 87.6851C49.625 87.6849 49.887 87.4447 49.8745 87.1619C49.8616 86.8786 49.6446 86.6384 49.3514 86.6387ZM56.9582 83.318C57.5244 82.9707 57.0187 82.0824 56.4509 82.4023L56.4303 82.4144C56.1393 82.5931 55.7813 82.5689 55.4515 82.569C54.7785 82.5694 54.7773 83.6159 55.4515 83.6155L55.5629 83.6151C56.0463 83.6114 56.5353 83.5776 56.9582 83.318ZM52.5023 79.4983C52.0745 79.4177 51.5954 79.3459 51.1453 79.3949L51.0706 79.4042H50.9321C50.8118 79.4042 50.6953 79.4526 50.6018 79.5288C50.4538 79.5903 50.3136 79.6727 50.1858 79.7835C49.6762 80.2255 50.4188 80.9629 50.9255 80.5236C50.9536 80.4991 50.9863 80.4789 51.0226 80.4624L51.0505 80.4507H51.61C51.6608 80.4507 51.7104 80.4401 51.7586 80.4248C51.9403 80.4498 52.1095 80.4858 52.2241 80.5073C52.8821 80.6312 53.164 79.6228 52.5023 79.4983ZM52.0254 69.4554C51.2056 69.075 50.2976 69.0777 49.5393 69.6059C48.9971 69.9837 49.5008 70.8744 50.0477 70.5227L50.0672 70.5096C50.1352 70.4622 50.205 70.4226 50.2756 70.3866C50.6606 70.4979 51.0481 70.5032 51.4202 70.3663L51.4687 70.3476L51.4976 70.3589C52.1043 70.6404 52.6362 69.7387 52.0254 69.4554ZM60.9528 67.8168C60.1245 67.7239 60.1179 66.415 60.9528 66.5087C62.7155 66.7065 64.3149 67.4904 65.4864 68.8367C66.0313 69.4629 65.134 70.3789 64.5789 69.7807L64.5618 69.7617C63.6303 68.6911 62.3732 67.9761 60.9528 67.8168ZM51.674 61.0969C51.4899 61.0768 51.3061 61.0667 51.1253 61.0754C50.6909 61.0964 50.1619 61.3862 50.3525 61.91C50.5054 62.3296 51.0064 62.3463 51.2538 62.1224C51.3567 62.1249 51.4595 62.1317 51.5619 62.1422C51.8351 62.1703 52.1056 62.2224 52.3748 62.2755C53.0324 62.4049 53.3139 61.3965 52.6529 61.2663L52.3606 61.2084C52.2621 61.1892 52.1627 61.1703 52.0628 61.153C52.0031 61.1233 51.939 61.1033 51.8706 61.0982L51.836 61.0969H51.674ZM46.4773 52.9773L46.4159 52.969C45.5326 52.8559 44.1148 52.96 44.0076 54.0847C43.9483 54.7076 44.848 54.7468 45.0255 54.2141C45.6778 54.0965 46.3353 54.074 46.9831 54.1454C47.2302 53.8943 47.2322 53.4115 46.8208 53.291C46.7628 53.1348 46.6416 53.001 46.4773 52.9773ZM66.667 51.0778C66.4629 50.8903 66.1282 50.8655 65.9273 51.0778C65.8116 51.2 65.715 51.3357 65.6385 51.4851L65.5876 51.586C65.579 51.6027 65.5701 51.6194 65.5609 51.6358C65.5438 51.6663 65.5246 51.6953 65.5059 51.7249L65.4933 51.7373C65.4883 51.7423 65.4824 51.7484 65.4754 51.7559C65.2873 51.9549 65.2633 52.3011 65.4754 52.4959C65.6795 52.6833 66.0141 52.7082 66.2151 52.4959C66.3307 52.3737 66.4273 52.2381 66.504 52.0885L66.5548 51.9878C66.5634 51.971 66.5722 51.9544 66.5814 51.938C66.5985 51.9074 66.6179 51.8783 66.6364 51.8488L66.6573 51.828C66.6602 51.8249 66.6635 51.8215 66.667 51.8178C66.8552 51.6189 66.879 51.2726 66.667 51.0778ZM55.9413 49.7152C55.2044 49.1928 54.328 49.1684 53.6506 49.797C53.1617 50.2507 53.88 50.9775 54.373 50.5525L54.3903 50.537C54.4082 50.5202 54.4264 50.5056 54.4444 50.4916C54.5328 50.5669 54.6451 50.6147 54.7735 50.6148C54.8071 50.6149 54.8406 50.6148 54.8741 50.6155L54.9243 50.6173L54.9512 50.6195L54.9546 50.6202L54.9781 50.6302C55.0212 50.6496 55.0805 50.6795 54.9991 50.6285C55.0172 50.6381 55.0342 50.6493 55.0515 50.6603L55.0816 50.6877C55.2788 50.8742 55.6199 50.8988 55.8157 50.6925C56.1623 50.5753 56.3463 50.0021 55.9413 49.7152ZM63.1467 48.0009L63.1601 47.9966C63.8063 47.8121 63.5316 46.8021 62.882 46.9874C62.1928 47.1843 61.8637 47.8259 61.7258 48.4831C61.6679 48.7595 61.8069 49.0487 62.0912 49.1268C62.3509 49.1981 62.6763 49.0392 62.7346 48.7613C62.7755 48.566 62.8227 48.4002 62.8973 48.2464L62.9425 48.1586C62.9636 48.1185 62.971 48.1119 63.0423 48.0496C63.0543 48.0392 63.1087 48.0138 63.1467 48.0009ZM52.2018 42.7305L52.1007 42.7074C51.4712 42.5695 50.6356 42.4974 50.2555 43.1217C49.909 43.6905 50.7831 44.2082 51.1431 43.6706C51.1485 43.6704 51.1548 43.6705 51.1622 43.6711L51.174 43.6724L51.3354 43.6594C51.5364 43.6579 51.7287 43.6935 51.9237 43.7397C52.5782 43.8947 52.8577 42.8859 52.2018 42.7305ZM74.8007 38.7064C75.2773 38.2296 74.5379 37.4894 74.0612 37.9666C73.6842 38.3437 73.3206 38.7234 73.0755 39.2026C72.947 39.454 73.0099 39.7703 73.2631 39.9185C73.4968 40.0552 73.8496 39.9833 73.9788 39.7308C74.1911 39.3155 74.4592 39.0484 74.8007 38.7064ZM68.7866 37.4551C68.3158 37.734 68.011 38.1934 67.8259 38.7251C67.7331 38.992 67.9317 39.2974 68.1913 39.3687C68.4702 39.4453 68.7251 39.2819 68.8254 39.028L68.8346 39.0032C68.8842 38.861 68.9634 38.6931 69.0613 38.5663C69.145 38.4581 69.2751 38.3498 69.3732 38.3138C69.609 38.2272 69.7761 38.0135 69.7542 37.7639C69.3665 37.898 69.0066 37.7367 68.7866 37.4551ZM54.6914 35.1802C54.2163 34.7391 53.579 34.6806 53.0031 34.9476C52.7467 35.0664 52.6825 35.4362 52.8155 35.6635C52.9693 35.9266 53.2738 35.9706 53.531 35.8513C53.465 35.8819 53.5842 35.8414 53.6357 35.8267C53.6423 35.8297 53.7287 35.8258 53.7585 35.8262L53.7943 35.8285C53.7946 35.8287 53.7858 35.8286 53.7679 35.828C53.793 35.8336 53.8179 35.8404 53.8423 35.8482L53.8735 35.859C53.8578 35.8557 53.9284 35.9018 53.9481 35.9171L53.9517 35.9201C54.4446 36.3778 55.1861 35.6395 54.6914 35.1802Z" fill="black"/>
<path fill-rule="evenodd" clip-rule="evenodd" d="M92.6465 75.5136C93.0951 74.7216 94.4338 74.8504 94.6385 75.774C95.0536 77.6464 92.8217 79.3754 91.1266 79.4186C89.442 79.4614 87.5519 78.027 87.7958 76.2153C87.8561 75.7672 88.4544 75.8216 88.6584 76.1026L88.7376 76.2104C89.2916 76.955 90.0226 77.7256 91.0509 77.5441C91.477 77.469 91.864 77.2027 92.1216 76.8598C92.4323 76.4461 92.3982 75.952 92.6465 75.5136ZM81.9345 61.8146C82.1628 61.7517 82.3932 61.776 82.5955 61.8621C83.0471 61.9449 83.4244 62.3216 83.557 62.7517C83.5674 62.789 83.5791 62.8258 83.592 62.8621L83.6121 62.9164L83.558 62.7786C83.583 62.9143 83.6935 63.0571 83.7332 63.1934C83.7821 63.3609 83.794 63.5512 83.7775 63.7357C83.9211 63.7371 84.0647 63.742 84.208 63.7544L84.3465 63.7668C85.121 63.8388 85.9712 63.9709 86.4304 64.6404C86.6882 65.0166 86.4462 65.6939 85.9724 65.7664C85.2432 65.8779 84.615 65.4743 83.8883 65.3934C83.2013 65.3169 82.4824 65.3607 81.8043 65.4849C80.4043 65.7409 79.1178 66.3086 77.7535 66.6648L77.5677 66.712L77.568 66.7111C77.3342 66.7676 77.0688 66.4424 77.3001 66.2522C78.3931 65.3539 79.7924 64.626 81.171 64.1827C80.9702 63.8631 80.9081 63.4422 81.0454 63.099C81.0666 63.0279 81.093 62.9588 81.1208 62.8899L81.1789 62.7481C81.1845 62.6812 81.1973 62.6152 81.2159 62.5504L81.2189 62.5307L81.2206 62.5319C81.3232 62.1982 81.5913 61.9093 81.9345 61.8146ZM95.879 61.8666C96.178 61.5674 96.598 61.6116 96.91 61.8471L96.9514 61.8796C97.2455 62.0102 97.4888 62.2958 97.6486 62.5604C97.8145 62.8352 97.9247 63.1152 97.9291 63.4177C98.6527 63.4201 99.3458 63.6372 99.8771 64.2217C100.049 64.4103 100.166 64.7012 100.071 64.957L100.015 65.1091C99.8368 65.5921 99.0347 65.8701 98.7621 65.3021L98.7496 65.2744C98.4599 64.6 97.3481 64.6708 96.7572 64.7397C96.3453 64.788 95.9385 64.8904 95.5408 65.0051C95.4006 65.0455 95.2617 65.0894 95.123 65.1342L94.9843 65.1792C94.9102 65.2031 94.5248 65.4126 94.7646 65.363C94.829 65.3497 94.8776 65.4436 94.8118 65.4751C94.5259 65.6118 94.221 65.3396 94.2401 65.0324C94.2732 64.4993 95.1195 64.207 95.5267 64.0231L95.5511 64.012C95.7072 63.9398 95.8708 63.8706 96.0396 63.8064C95.9447 63.6651 95.8662 63.5081 95.801 63.3396C95.7392 63.1806 95.6981 63.026 95.6754 62.8568C95.6532 62.7742 95.6532 62.6915 95.6754 62.6087L95.6788 62.585C95.6673 62.5303 95.6618 62.4738 95.6626 62.4169L95.6603 62.3948H95.6626C95.6706 62.1956 95.7497 61.996 95.879 61.8666ZM91.1034 67.5444C92.2518 67.8994 94.1465 68.8665 93.548 70.3591C92.7124 71.73 90.4961 70.7225 89.4222 70.2796C88.4574 69.9599 87.955 71.3126 88.888 71.7203C96.5973 74.7714 96.5689 66.719 91.3829 66.8372C90.8119 66.8502 90.794 67.4264 91.1034 67.5444ZM80.9032 57.0444L81.0991 56.9873C82.117 56.6923 83.1562 56.1829 84.06 56.9777C84.4148 57.2898 84.4879 57.9384 84.234 58.3277C83.6555 59.2147 82.7976 59.0792 81.8634 59.1548C81.152 59.2123 80.4513 59.4214 79.7873 59.6826C79.2447 59.8962 78.7414 60.1969 78.2662 60.5323C77.7994 60.8621 77.4805 61.3776 77.0017 61.6744C76.8262 61.7832 76.6235 61.6713 76.5605 61.4948C76.3372 60.8689 76.7145 60.0891 77.0338 59.5558C77.4236 58.9052 78.0157 58.373 78.6524 57.9704C79.3495 57.5295 80.1204 57.2748 80.9032 57.0444ZM95.7356 56.3711C97.4562 56.3706 99.1119 57.328 100.074 58.7314C100.401 59.2082 100.162 59.9146 99.6922 60.1891C99.1656 60.4973 98.6025 60.2754 98.2555 59.8338L98.2349 59.8071C97.683 59.0718 96.9715 58.4927 96.1281 58.1157C95.7166 57.9316 95.2616 57.7824 94.8165 57.7067L94.6726 57.682C94.471 57.6482 94.2372 57.6159 94.0548 57.6475C93.9572 57.6603 93.8675 57.6927 93.7848 57.7418C93.8246 57.8287 93.7219 57.9333 93.6271 57.8813C93.1995 57.6464 93.252 57.2272 93.6052 56.9015C94.1048 56.4407 95.0903 56.3712 95.7356 56.3711Z" fill="black"/>
</svg>