<svg width="150" height="202" viewBox="0 0 150 202" fill="none" xmlns="http://www.w3.org/2000/svg">
<path fill-rule="evenodd" clip-rule="evenodd" d="M87.4721 178.084C76.861 178.113 70.5055 177.989 58.503 177.815C44.6111 177.448 40.8673 178.109 33.0848 176.58C31.8949 176.327 30.9897 175.944 30.0715 175.41C29.7424 175.782 29.1845 176.336 28.6546 175.969C27.6786 175.324 28.1261 173.07 27.8841 171.797C27.4834 160.589 26.8426 149.046 29.0333 137.974C27.7052 137.542 19.923 134.339 19.498 133.266C26.5356 114.857 41.9736 93.3152 62.2854 94.1265C62.6939 94.6304 63.0573 95.3761 63.5106 95.8891C66.2722 94.8547 70.1056 93.8179 70.2948 89.8349C70.773 87.1767 71.1176 84.6949 71.3478 82.2519C71.3895 81.9725 71.7245 81.8765 71.9304 81.7575C72.0178 81.1258 72.2187 80.4801 72.6546 80.047C76.2144 79.727 84.3403 81.1956 86.4727 81.8008C89.3818 82.2987 89.0792 85.4219 89.6211 87.7896C90.4802 90.7164 91.0781 93.7541 92.3549 96.6136C92.6437 96.6533 93.4528 96.7942 93.7511 96.8464C93.7667 96.5224 93.6147 95.5607 93.9117 95.3645C94.462 94.8111 94.589 95.8636 94.7113 96.2069C106.732 93.936 114.593 104.141 117.227 115.539C119.135 121.272 121.663 127.073 124.962 133.295C127.032 137.158 121.087 137.876 118.594 139.417C121.166 149.428 121.476 159.622 121.898 169.711C122.009 171.263 122.161 173.374 121.611 174.146C121.35 174.349 121.169 174.343 120.905 174.358C120.395 174.909 119.52 174.872 118.783 175.029C116.454 175.453 114.068 175.736 111.826 175.779C105.534 179.675 95.8326 177.496 87.4721 178.084Z" fill="white"/>
<path fill-rule="evenodd" clip-rule="evenodd" d="M70.4727 82.2448C70.8033 80.5894 73.5345 80.9729 73.4105 82.6424C72.0317 88.8558 72.8711 96.4196 64.1565 95.8081C69.6884 105.542 86.7712 111.463 92.2928 98.6826C89.572 98.3578 89.0337 91.9234 88.7051 89.6721L88.6916 89.4708C88.6187 88.313 88.6431 87.2399 89.339 86.2496C90.0333 86.7696 90.3123 87.7113 90.5474 88.57L90.7196 89.2578C91.2952 91.5498 91.8974 93.8315 92.8107 96.0189L92.843 96.0242C92.7974 94.5405 94.7014 93.8623 95.1733 95.4516C108.055 93.6769 115.102 104.312 117.882 115.434C119.91 121.522 122.554 127.379 125.557 133.041C127.823 137.465 122.32 138.477 119.409 139.949C121.648 148.923 122.087 158.22 122.502 167.423C122.364 169.388 123.252 173.417 122.067 174.826C120.311 176.2 119.365 173.844 119.635 172.334C119.887 161.654 118.776 151.022 118.456 140.359C116.258 141.288 114.034 142.144 111.784 142.939C111.899 152.945 113.088 162.95 113.512 172.905C114.069 173.344 114.376 174.104 113.901 174.767C111.356 178.318 106.755 178.848 102.706 178.899C93.0715 179.02 83.4268 178.982 73.7915 178.954C64.327 178.739 54.7801 179.346 45.3655 178.26C43.5205 179.647 43.1432 176.658 43.3903 175.384L43.4842 172.83C43.5473 171.128 43.6142 169.426 43.7002 167.725L43.9147 163.577C44.2739 156.665 44.6546 149.756 45.2584 142.858C39.7896 142.11 34.3994 140.782 29.181 138.99C29.6105 150.966 28.7293 163.071 30.1987 174.986C31.1682 176.303 29.2237 177.538 28.0886 176.714C26.6809 175.64 27.2846 173.539 27.0035 171.993L26.9674 170.994C26.5734 160.216 26.0351 149.211 28.0433 138.581L27.1795 138.246C24.5463 137.218 17.7747 134.467 18.6627 133.111C25.7321 114.58 41.5461 92.4154 62.4905 93.4687C63.0211 93.837 63.292 94.5547 63.6856 95.069L64.3086 94.8428C66.7218 93.9591 69.3425 92.8388 69.414 89.8674C69.8708 87.3354 70.2332 84.803 70.4727 82.2448ZM104.989 128.433C107.989 124.235 87.1803 130.87 85.7007 131.308L85.1436 131.511C76.0297 134.825 66.2046 138.03 58.9374 144.637C58.7846 144.804 58.9747 145.035 59.1723 144.942L59.1977 144.927C59.4868 144.766 60.7386 144.319 59.8517 144.488C70.3522 137.864 82.5516 134.225 94.4718 131.042C96.2041 130.623 97.9446 130.238 99.6919 129.887C101.455 129.458 103.444 129.463 104.989 128.433ZM72.1073 127.067C72.364 126.021 74.0884 116.404 71.2243 119.042C70.4607 120.426 70.1675 122.03 70.0301 123.588C69.6607 125.404 70.593 127.362 69.6864 129.037C68.8748 131.224 65.8918 133.78 65.6926 129.716C70.573 129.549 69.1078 123.363 65.7852 125.275C63.9658 126.833 63.6509 129.767 64.5618 131.916C63.0909 130.314 60.7059 130.309 59.0034 129.1C55.9289 125.775 61.0929 122.316 63.9049 121.118C64.0632 120.944 66.3685 120.14 65.88 120.043C63.6725 120.063 61.4603 120.533 59.5553 121.695C55.6125 123.619 54.2705 129.577 58.7808 131.665C59.7562 132.135 60.8235 132.388 61.7892 132.873C64.2226 134.135 63.4364 135.721 60.9242 135.767C59.891 135.993 56.4812 135.047 56.863 136.858C57.4798 137.991 58.823 138.16 59.9996 138.191C63.1446 138.407 67.0553 136.63 65.2779 132.929C67.4234 134.757 70.1025 132.201 71.022 130.215C72.1425 132.413 74.959 131.751 76.5485 130.45C78.9772 132.363 82.0246 130.237 83.1065 127.861C83.1286 128.356 83.1507 128.85 83.1746 129.344C83.2235 130.357 84.7926 130.682 85.0246 129.594C85.3774 127.941 85.8638 126.306 86.5329 124.752C88.0722 120.666 89.0134 122.508 89.067 125.71C89.2566 126.912 89.8583 127.989 91.1864 128.07C91.5566 128.093 92.0395 127.763 92.0973 127.376L92.1738 126.864C92.3355 125.792 92.523 124.687 92.9279 123.679C93.3179 127.016 97.6857 127 98.9035 124.233C101.43 125.75 104.081 123.631 105.259 121.439L105.294 121.373C105.706 120.623 104.66 119.717 104.062 120.422L103.854 120.638C102.727 121.805 100.933 123.498 99.4498 122.057C99.4991 121.406 99.4792 120.742 99.4392 120.102C99.3912 119.339 98.3386 118.661 97.7401 119.343C96.8966 118.626 95.8487 118.729 94.9664 119.229C92.6807 119.876 91.241 122.101 90.7451 124.314C90.6924 122.546 90.1143 120.628 88.1732 120.462C86.1845 120.445 85.4233 122.669 84.745 124.166C84.7057 123.496 84.6678 122.825 84.6336 122.155C84.5751 121.001 82.9755 121.013 82.8445 122.121L82.8409 122.155C82.589 124.548 81.2637 130.282 77.9197 129.16C79.3298 127.606 81.8805 122.871 79.4556 121.396C75.7237 120.456 73.8094 126.346 75.401 129.086L75.3183 129.144C74.4091 129.772 72.9066 130.47 72.399 129.064L72.3415 128.934C72.0808 128.339 71.8507 127.695 72.1073 127.067ZM66.7686 126.405C67.4752 125.992 67.7267 127.359 67.5464 127.817C67.2574 128.553 66.4692 128.963 65.6836 129.243L65.6863 129.16C65.721 128.32 66.0011 126.854 66.7686 126.405ZM78.6636 122.992C78.6796 123.091 78.6536 123.211 78.6503 123.302C78.5295 124.913 77.8132 126.46 76.817 127.716C76.2435 126.009 76.9826 123.752 78.6636 122.992ZM95.6515 120.979C96.1094 120.858 96.5948 120.892 97.0668 121.02C97.0326 121.557 97.1491 122.094 97.3827 122.587C96.1642 126.247 93.2996 123.429 95.6515 120.979Z" fill="black"/>
<path fill-rule="evenodd" clip-rule="evenodd" d="M94.3448 43.3375C85.7449 36.3449 71.9634 34.0745 62.7577 41.1291C55.6047 47.7498 52.6446 66.5635 53.9105 76.0173C54.2625 82.081 58.8933 88.9538 65.691 87.036C66.8453 86.9224 67.9662 86.4797 69.1311 86.387C70.5246 86.2265 71.9286 86.2237 73.3194 86.4203C76.3498 86.8491 79.0362 88.4587 81.9775 89.2113C87.4352 90.6075 93.5247 89.6683 98.2226 86.5231C113.747 76.3124 106.715 53.2201 94.3448 43.3375Z" fill="white"/>
<path fill-rule="evenodd" clip-rule="evenodd" d="M93.1992 89.3784C93.3589 89.3233 93.5183 89.2659 93.6765 89.207C93.6869 89.2437 93.7039 89.2789 93.7237 89.313C93.7459 89.3679 93.7681 89.4214 93.7929 89.4751C93.5942 89.4765 93.3954 89.4411 93.1992 89.3784ZM92.8801 21.6167C92.8095 21.4585 92.7283 21.3068 92.6367 21.1602C92.859 21.2322 93.0814 21.3316 93.2828 21.4598C93.1468 21.5056 93.0133 21.5579 92.8801 21.6167ZM58.91 42.3048C58.9009 42.3032 58.8918 42.3019 58.8828 42.3003C58.9994 41.9897 59.2072 41.6964 59.4367 41.4846C59.4779 41.4466 59.5225 41.4114 59.5656 41.375C59.322 41.6653 59.101 41.9749 58.91 42.3048ZM121.066 74.7916C120.951 73.7007 120.804 72.6138 120.615 71.5331C120.433 70.4986 120.28 69.3919 119.753 68.4737C119.23 67.5593 118.706 66.671 118.084 65.8666C118.172 65.4559 118.29 65.07 118.392 64.7587C118.98 62.9666 119.56 60.6905 118.337 59.0253C118.053 58.6394 117.707 58.3438 117.311 58.077C117.142 57.9632 116.862 57.8598 116.733 57.7028C116.641 57.5917 116.673 57.6518 116.669 57.5969C116.646 57.3013 117.339 56.6773 117.502 56.4432C117.805 56.01 118.031 55.5223 118.204 55.0239C118.886 53.0513 118.422 50.8785 118.012 48.9019C117.795 47.8542 117.555 46.8038 117.477 45.7338C117.403 44.7292 117.541 43.7481 117.622 42.7488C117.7 41.7623 117.679 40.7448 117.257 39.8316C117.05 39.3868 116.738 38.9944 116.357 38.6883C115.986 38.3889 115.523 38.2149 115.161 37.9167C114.8 37.6196 114.903 37.2182 114.998 36.8074C115.127 36.2502 115.29 35.6969 115.306 35.1213C115.335 34.118 114.926 33.1407 114.286 32.3822C113.627 31.5986 112.686 31.0687 111.668 30.9497C111.203 30.8947 110.745 30.9877 110.282 30.955C109.825 30.9236 109.725 30.6947 109.639 30.2761C109.44 29.3173 109.521 28.3702 109.049 27.4755C108.631 26.6802 107.887 26.1411 107.064 25.8234C105.557 25.24 103.803 25.3603 102.213 25.7042C101.275 22.9417 98.3443 21.13 95.4611 21.1077C95.0112 20.3438 94.2489 19.7735 93.3795 19.4385C91.9411 18.8825 90.4177 19.2071 88.9193 19.2071H88.9128C88.7623 19.1978 88.6119 19.194 88.4617 19.1953C88.3203 19.1873 88.1791 19.1756 88.0379 19.16C86.3328 18.9584 84.646 18.2599 82.9566 18.9442C82.2035 19.2489 81.6046 19.7185 81.2255 20.3176C80.6541 20.4732 80.0904 20.6512 79.5374 20.8579C77.1405 20.9205 74.766 22.2064 73.554 24.2903C71.8476 24.0967 69.996 24.425 68.8675 25.8195C68.5735 26.1823 68.3459 26.6086 68.195 27.0612C67.0443 27.4335 65.9796 28.0969 65.2828 29.096C64.6469 30.0077 64.5247 31.1866 64.9548 32.1653C63.9276 32.9097 63.1249 33.9754 62.7382 35.2338C62.5032 35.9984 62.4683 36.7883 62.6195 37.5409C61.5678 37.7742 60.5619 38.2068 59.6706 38.856C58.7366 39.5361 57.5701 40.6185 57.5087 41.8644C57.5041 41.9558 57.5076 42.0472 57.515 42.1384C55.4588 41.9939 53.3622 42.3423 51.9724 43.9915C50.9288 45.2288 50.4752 46.8222 50.7537 48.2728C48.3073 48.7699 45.994 50.0492 44.3805 51.9407C43.2077 53.3155 42.1656 55.0631 42.2282 56.9349C42.2478 57.4988 42.38 58.0665 42.6088 58.591V58.5922C42.5108 58.7768 42.4099 58.9822 42.3132 59.2006C40.7977 60.2613 39.6967 61.9241 39.0769 63.7567C38.5763 65.2412 38.2611 67.1695 38.7958 68.6803C38.877 68.9106 38.9803 69.1277 39.1006 69.329C38.9998 69.4364 38.9045 69.5437 38.8116 69.6522C37.7903 70.8464 36.756 72.3507 36.8267 73.995C36.8555 74.657 37.1012 75.3228 37.5027 75.8695C36.0904 77.302 34.953 79.1097 35.0653 81.1281C35.162 82.8849 36.1259 84.6691 37.636 85.5128C37.3837 86.8667 37.7211 88.2951 38.7749 89.3521C39.3007 89.8805 39.9203 90.2285 40.5769 90.4142C40.7233 92.0088 42.138 93.292 43.6404 93.6608C43.9203 93.7302 44.2001 93.7721 44.4785 93.7916C45.8306 94.4549 47.4428 94.3789 48.8223 93.7707C49.229 94.2875 49.7585 94.7087 50.3757 95.0109C50.6255 95.1338 50.8897 95.2359 51.1655 95.3181C53.1138 95.895 55.1119 95.1129 56.8155 94.1999C56.8704 94.1711 56.9711 94.1345 57.06 94.0939C57.2954 94.3568 57.7243 94.6171 57.9479 94.7453C58.7064 95.1809 59.6335 95.3835 60.5043 95.3261C61.5256 95.2581 62.4263 94.9206 63.2606 94.4405C63.3823 94.4615 63.5051 94.4733 63.6281 94.4798C64.4127 94.5215 65.1121 94.2731 65.7412 93.8807C66.1569 93.9356 66.5831 93.9304 67.0146 93.8545C67.9654 94.0964 68.8911 93.7119 69.635 93.1011C69.9647 92.8303 70.243 92.5124 70.5413 92.2089C70.8511 91.8936 71.0866 91.8204 71.4486 91.6085C72.3052 91.1075 72.4084 89.8374 72.037 88.919C72.1077 88.7582 72.1483 88.579 72.1483 88.3802C72.1456 86.6456 71.3468 85.055 70.3661 83.6671C69.9279 83.0484 69.4521 82.4426 68.9302 81.8933C68.5105 81.4524 67.9209 80.737 67.2998 80.5577C67.2619 80.5303 67.2225 80.5027 67.1833 80.4767C67.3037 80.0554 67.3742 79.6264 67.3443 79.1882C67.3128 78.7381 67.1676 78.3117 66.935 77.9482C67.7155 76.4347 68.0451 74.7747 67.8882 73.0428C68.5236 72.1414 69.0049 71.1461 69.2532 70.0551C69.4062 69.3802 69.4939 68.6699 69.482 67.9778C69.4768 67.6456 69.3552 67.2256 69.3527 66.8817C69.371 66.9903 69.5122 66.5848 69.5672 66.4839C70.1973 65.3133 71.0067 64.4003 71.1415 63.0202C71.2198 62.213 71.0289 61.321 70.5451 60.6591C70.855 59.4374 70.8511 58.1252 70.3633 56.9599C70.2326 56.6485 70.0823 56.3437 69.9097 56.0547C69.9894 55.8113 70.0627 55.5654 70.1567 55.3442C70.1935 55.2566 70.23 55.1678 70.2666 55.0788C70.6209 54.7661 70.9506 54.4248 71.2278 54.0898C71.8422 53.3482 72.3118 52.498 72.3706 51.5181C72.3994 51.0275 72.2843 50.5579 72.1418 50.0924C72.0789 49.8818 72.041 49.6476 71.9664 49.4423C71.9247 49.3283 71.8239 49.212 71.7887 49.1048C71.7808 49.0812 71.7742 49.0616 71.769 49.0459C71.7742 49.0302 71.7783 48.9975 71.7783 48.9359C71.7795 48.4663 71.8409 48.0072 71.8437 47.5547C72.2738 47.989 72.7916 48.3132 73.3801 48.5031C74.5659 48.8837 75.803 48.711 76.8529 48.1237C77.9827 48.8981 79.2523 49.5991 80.5835 49.8805C81.3745 50.0478 82.167 49.9786 82.9606 50.0819C83.749 50.1853 84.5115 50.5293 85.254 50.7974C86.907 51.3952 88.5557 52.0086 90.2137 52.5908C91.5526 53.0604 93.0014 53.4332 94.4033 53.169C94.7969 53.7758 95.3081 54.2887 95.9632 54.6655C96.4325 54.9336 96.9477 55.1153 97.4799 55.2057C97.9506 55.2855 98.5026 55.2541 98.8842 55.5772C99.2569 55.8911 99.4896 56.3593 99.8244 56.7126C100.197 57.1077 100.657 57.4504 101.14 57.6963C101.527 57.8938 101.922 58.0363 102.323 58.1293C102.288 59.0227 102.254 59.9148 102.243 60.8096C102.224 62.7534 102.232 64.6971 102.206 66.641C102.179 68.5782 102.118 70.5156 102.016 72.4502C101.919 74.2659 101.783 76.0879 101.35 77.8592C99.9146 83.7364 94.5365 87.9446 88.5164 88.1591C86.7291 88.2232 84.9598 87.972 83.2508 87.4461C81.4805 86.9007 79.8995 85.7782 78.0846 85.433C77.6099 85.344 77.1628 85.8215 77.4347 86.2805C77.903 87.0695 78.4716 87.5508 79.2496 88.0255C80.0644 88.5214 80.9717 88.889 81.8674 89.2108C83.515 89.8019 85.2581 90.1448 87.0063 90.2403C88.3399 90.3134 89.6789 90.222 90.9852 89.9708C91.0768 90.252 91.239 90.5254 91.3617 90.7857C91.38 90.8237 91.4416 90.7975 91.4299 90.7583C91.4101 90.6929 91.3972 90.6353 91.3919 90.5882C91.8312 91.1612 92.5098 91.5574 93.2069 91.7498C93.6984 91.8858 94.2202 91.9276 94.7263 91.8701C94.8897 91.8517 95.0452 91.8244 95.1996 91.7904C95.7147 92.2416 96.3737 92.5425 97.0353 92.6929C96.9217 93.3836 97.2628 94.1371 98.0541 94.3333C98.386 94.4157 98.7051 94.417 99.0243 94.3869C99.2819 94.5073 99.5591 94.6014 99.8533 94.6655C100.236 94.7493 100.694 94.6419 100.983 94.3647C101.141 94.4759 101.289 94.553 101.435 94.7295C102.038 95.4569 103.338 94.8774 103.395 94.0363C103.586 94.0363 103.779 94.039 103.971 94.0455C104.016 94.0664 104.062 94.0874 104.109 94.1096C104.95 94.5006 105.821 94.8421 106.751 94.5347C106.922 94.4783 107.079 94.4065 107.221 94.3228C107.876 94.3817 108.522 94.383 109.187 94.1685C109.579 94.0415 109.948 93.8401 110.255 93.5759C111.28 93.8768 112.362 94.0128 113.381 93.6399C114.145 93.3614 114.76 92.9219 115.192 92.3422C115.854 92.3659 116.526 92.2063 117.131 91.8911C118.167 91.3548 118.893 90.3356 119.399 89.3141C120.513 87.0603 121.172 84.639 121.431 82.1419C121.686 79.6827 121.322 77.2365 121.066 74.7916Z" fill="black"/>
<path fill-rule="evenodd" clip-rule="evenodd" d="M89.3988 79.9925C88.5198 79.6338 87.7355 79.0354 87.1621 78.2711C86.9628 78.0053 86.9111 77.7247 86.9529 77.4681C86.9999 77.1795 87.1706 76.9179 87.4034 76.7425C87.6368 76.5665 87.9289 76.4797 88.2112 76.524C88.4566 76.5624 88.7008 76.6968 88.8941 76.9755L88.9345 77.0312C89.2753 77.4926 89.7196 77.8711 90.2257 78.1151C90.7135 78.3503 91.2591 78.46 91.8237 78.3962C92.8991 78.2747 93.6402 77.6929 94.428 76.9029C94.5257 76.8031 94.6234 76.7002 94.7216 76.5957C94.7836 76.501 94.8696 76.4401 94.9652 76.4081C95.0712 76.3726 95.1912 76.3746 95.3011 76.413C95.4072 76.45 95.5019 76.5202 95.5655 76.6135C95.6259 76.7022 95.6601 76.8118 95.649 76.9378C95.5769 77.7566 95.149 78.4873 94.5412 79.0611C93.8662 79.6983 92.9714 80.1391 92.1289 80.2937C91.2008 80.464 90.2551 80.342 89.3988 79.9925ZM92.5671 67.3623C93.5545 67.9628 95.059 69.3628 93.9968 70.8513C92.7464 72.1638 90.9463 70.659 90.0592 69.9784C89.2366 69.4509 88.3124 70.8075 89.0756 71.4234C95.4858 76.1711 98.0872 67.5193 93.0665 66.6564C92.5137 66.5613 92.3084 67.1766 92.5671 67.3623ZM81.0798 61.8396C81.1889 60.4849 83.2513 60.1772 83.4564 61.5178C83.6401 62.7186 83.4239 63.8217 82.8832 64.9028C82.3665 65.9357 81.0681 65.4538 80.9699 64.5133C80.8382 63.2526 81.0119 62.6823 81.0798 61.8396ZM96.7794 61.2388C97.067 60.862 97.4821 60.6049 97.9795 60.7502C99.5336 61.2045 99.0755 63.4116 98.5297 64.486C98.2332 65.0694 97.2746 65.2173 96.8414 64.7036C96.1353 63.8659 95.7972 62.193 96.6948 61.3679C96.7191 61.3252 96.7462 61.2822 96.7794 61.2388ZM82.8616 55.9114L83.107 55.8684C83.8665 55.737 84.8107 55.6107 85.3479 56.2215C85.6328 56.5454 85.7309 57.1474 85.3479 57.4574C84.6743 58.0029 83.9295 57.7915 83.1222 57.8377C82.4569 57.8759 81.8175 57.986 81.1766 58.1693C79.7707 58.5712 78.6251 59.3051 77.4244 60.1109C77.2668 60.2165 77.106 60.015 77.1812 59.8675C77.8743 58.5094 79.2176 57.3937 80.5631 56.7136C81.2812 56.3506 82.0671 56.0495 82.8616 55.9114ZM95.363 55.3027L95.5509 55.3412C97.5955 55.7688 100.252 56.6229 101.22 58.632C101.257 58.9161 101.218 58.977 101.187 59.0168L101.176 59.03C101.15 59.064 101.129 59.1108 101.006 59.1495C100.972 59.1413 100.937 59.1327 100.902 59.1236C100.459 59.0072 100.107 58.8469 99.7675 58.6806L99.3989 58.4989C98.9712 58.2892 98.5398 58.087 98.0826 57.9378C97.1068 57.6194 96.1032 57.3951 95.084 57.2754C94.8631 57.2494 94.6504 57.1749 94.4826 57.047C94.3233 56.9257 94.2016 56.7577 94.1462 56.5344C94.0743 56.2455 94.0949 56.0267 94.2499 55.766C94.3664 55.5702 94.5332 55.4345 94.7247 55.3566C94.9198 55.2772 95.1421 55.2585 95.363 55.3027Z" fill="black"/>
</svg>
