<svg width="150" height="201" viewBox="0 0 150 201" fill="none" xmlns="http://www.w3.org/2000/svg">
<path fill-rule="evenodd" clip-rule="evenodd" d="M35.0522 176.922C36.6175 177.019 38.1827 177.095 39.7478 177.153C60.2154 177.916 80.6664 175.582 101.121 175.071C108.245 174.884 115.331 174.977 122.436 175.55C123.133 175.606 123.929 174.856 123.843 174.142C122.53 162.807 120.888 151.502 120.037 140.121C120.037 139.519 120.114 138.917 120.321 138.35C120.36 138.306 120.562 137.807 120.742 137.776C120.683 137.82 120.949 137.743 120.78 137.756C121.807 137.588 122.815 136.479 122.069 135.417C114.389 123.642 103.906 112.895 100.533 98.9093C99.7365 95.1281 96.8583 94.8944 93.792 93.3345C92.8354 92.7653 90.496 91.1885 90.1152 90.0924C89.2058 86.1415 90.8073 82.271 86.1284 80.6724C83.0396 79.8158 77.5802 79.0909 74.455 79.9944C70.6428 81.2637 70.9281 85.5613 68.7168 88.518C67.5732 90.2281 65.6236 92.5696 63.8233 92.8316C62.9508 92.9586 62.3081 91.193 61.4369 91.3145C47.8572 94.6139 29.3557 117.122 23.5192 129.581C22.2039 133.502 26.4458 132.319 26.1852 136.261C25.8639 143.738 25.1613 153.31 25.578 160.796C25.9683 165.141 25.6795 169.694 27.0296 173.875C26.6662 174.316 27.1883 174.762 27.6143 174.954C28.1511 175.867 33.4326 176.795 35.0522 176.922Z" fill="white"/>
<path fill-rule="evenodd" clip-rule="evenodd" d="M70.4062 83.8091C70.7593 82.2199 73.2868 82.9014 72.854 84.484C72.1832 86.9316 70.7919 89.2443 68.8281 90.8677C67.3112 92.1208 65.244 93.2391 63.1936 93.4458C63.3858 93.633 63.5702 93.8331 63.7637 94.0239C64.2004 94.4582 64.6646 94.8611 65.1432 95.2483C66.1266 96.0436 67.149 96.7592 68.2657 97.3583C72.7259 99.7522 77.7641 100.304 82.7458 99.7468C85.1099 99.4826 87.5093 99.0341 89.7322 98.1693C90.7627 97.7691 91.7642 97.2432 92.6482 96.5788L92.8796 96.405C93.3443 96.0539 93.9646 95.5585 94.2551 95.0169C93.3712 95.2156 92.2532 94.2738 91.64 93.7258C90.9693 93.1241 90.4043 92.3483 89.9872 91.553C89.17 89.9925 88.7371 87.9794 89.4224 86.3062C89.4681 86.195 89.6145 86.2135 89.6276 86.3338C89.8303 88.2842 90.3559 90.1129 91.7552 91.557C92.3763 92.1967 93.1201 92.733 93.9321 93.1057L94.0464 93.1582C94.3924 93.3183 94.7566 93.5061 94.9024 93.8487C94.9587 93.8421 95.0148 93.8474 95.0684 93.8619C95.1168 93.8748 95.1613 93.8893 95.2044 93.905C95.1077 93.7154 95.0568 93.4917 95.0658 93.2273C95.0999 92.2031 96.5056 92.1718 96.7003 93.0836C96.665 92.9632 96.6179 93.0796 96.7068 93.1163C96.7054 93.1056 96.703 93.0939 96.7002 93.0835L96.7029 93.0931L96.7082 93.1162L96.7068 93.1163C96.7104 93.1327 96.7133 93.1499 96.7152 93.1673L96.717 93.1901L96.7159 93.171C96.7147 93.1569 96.713 93.1442 96.7111 93.1327L96.7081 93.1163C96.7212 93.1227 96.7395 93.1267 96.7604 93.1267L96.7691 93.1301C96.8018 93.1443 96.9174 93.1982 96.9515 93.2118C97.1854 93.2981 97.4469 93.3254 97.6862 93.4C98.2054 93.5597 98.6631 93.8239 98.9795 94.2738C99.207 94.597 99.3337 94.9672 99.3861 95.3517C101.683 96.4571 103.858 97.8933 105.68 99.6711C109.745 103.637 112.58 108.601 114.906 113.74C116.09 116.355 117.145 119.027 118.177 121.705L118.339 122.128C119.446 125.007 120.424 127.918 120.664 131.013C120.686 131.29 120.595 131.551 120.437 131.766C120.493 131.999 120.522 132.232 120.514 132.46C120.513 132.495 120.51 132.53 120.507 132.566C120.879 132.559 121.242 132.715 121.587 133.152C121.727 133.107 121.879 133.102 122.028 133.15C122.937 133.441 123.083 134.439 123.255 135.275C123.431 136.138 123.508 137.022 123.51 137.903C123.51 138.218 123.329 138.616 123.023 138.75C122.448 139.004 121.828 139.17 121.233 139.4C120.786 139.573 120.337 139.737 119.885 139.89C120.136 140.328 120.217 140.937 120.353 141.399C120.566 142.12 120.737 142.843 120.881 143.581C121.857 148.598 122.533 153.668 123.445 158.695C123.902 161.213 124.433 163.714 124.974 166.215C125.241 167.445 125.525 168.671 125.829 169.893C125.991 170.545 126.16 171.196 126.334 171.844C126.384 172.033 126.436 172.221 126.487 172.41L126.578 172.74C126.777 172.85 126.947 173.016 127.065 173.243C127.495 174.075 127.248 175.013 126.423 175.481C125.526 175.992 124.455 175.51 123.961 174.682C123.613 174.097 123.499 173.323 123.328 172.673C123.134 171.943 122.95 171.209 122.772 170.475C121.564 165.49 120.755 160.417 120.145 155.325L120.102 154.961C119.792 152.34 119.493 149.712 119.299 147.079C119.204 145.785 119.128 144.492 119.081 143.195C119.057 142.528 119.095 141.857 119.133 141.191C119.15 140.899 119.175 140.606 119.184 140.315L119.187 140.273C119.189 140.244 119.193 140.205 119.196 140.164L119.198 140.115C118.296 140.397 117.381 140.633 116.457 140.831C114.49 141.256 112.478 141.493 110.47 141.373C110.75 144.698 111.115 148.015 111.625 151.31C112.117 154.484 112.684 157.651 113.325 160.798C113.645 162.38 113.992 163.957 114.357 165.53C114.553 166.369 114.776 167.204 114.953 168.048C115.057 168.55 115.09 168.97 114.88 169.439C115.111 170.071 115.317 170.706 115.52 171.303L115.58 171.481C115.939 172.528 116.619 173.598 115.909 174.626C115.541 175.157 114.942 175.461 114.34 175.479C114.329 175.485 114.317 175.493 114.306 175.5C113.981 175.674 113.607 175.708 113.252 175.633C112.712 175.739 112.17 175.841 111.628 175.934C110.287 176.166 108.941 176.356 107.591 176.517C105.022 176.823 102.435 176.991 99.8504 177.084C90.386 177.425 80.9113 176.826 71.4433 176.999C66.6195 177.086 61.7958 177.303 56.98 177.591C54.5767 177.735 52.172 177.89 49.7674 178.009L49.0231 178.045C46.8727 178.148 44.7207 178.227 42.5718 178.07C42.53 178.067 42.4973 178.05 42.475 178.027C41.7337 177.943 40.9885 177.26 41.0629 176.472C41.3832 173.112 41.7036 169.753 42.0252 166.393C42.5967 160.406 43.1733 154.419 43.7565 148.433L43.8408 147.569C44.0367 145.552 44.2238 143.53 44.3187 141.505C43.8402 141.471 43.363 141.428 42.8856 141.375C37.7134 140.809 32.7551 139.244 27.9943 137.188L27.8014 137.105C27.3725 136.918 26.9031 136.73 26.4219 136.53C26.4299 137.445 26.3997 138.36 26.3958 139.266C26.3892 140.769 26.401 142.272 26.4049 143.773C26.4141 146.868 26.5318 149.964 26.686 153.054C26.9567 158.511 27.2745 163.961 27.7556 169.405C27.8773 170.775 28.0421 172.142 28.1584 173.511C28.2278 174.318 28.0616 174.991 27.323 175.415C26.9593 175.624 26.6782 175.536 26.3173 175.368C25.436 174.954 25.4112 173.977 25.3275 173.127C25.2635 172.486 25.2046 171.845 25.147 171.203C25.0242 169.833 24.9182 168.463 24.8319 167.091C24.4908 161.639 24.3913 156.192 24.6266 150.734C24.7359 148.18 24.8936 145.622 25.103 143.073L25.1523 142.485C25.3249 140.448 25.436 138.311 25.793 136.261C24.3533 135.623 22.9268 134.81 22.2651 133.46C21.4075 131.707 22.3501 130.208 23.693 129.176C23.6799 129.002 23.693 128.83 23.7296 128.673C24.1154 127.002 24.7613 125.351 25.385 123.758C26.014 122.157 26.7083 120.581 27.4719 119.039C30.5369 112.86 34.7237 107.215 39.7148 102.459C42.1939 100.096 44.9071 97.9129 47.8034 96.0816C49.2391 95.1752 50.7115 94.3379 52.2361 93.5924L52.4615 93.4826C53.5229 92.9673 54.7133 92.4195 55.8935 92.1326C56.0163 92.041 56.1405 91.9547 56.2661 91.8723C56.7303 91.5634 57.3605 91.7871 57.6351 92.2279C57.7686 92.1246 57.9228 92.0332 58.0993 91.9506L58.2738 91.871C59.3328 91.3939 60.6044 90.9479 61.754 91.2614C62.4679 91.4563 63.0302 91.9822 63.2827 92.6519C63.8618 92.3458 64.4306 92.0306 64.9863 91.6447C65.8794 91.0272 66.6888 90.2606 67.4158 89.4561C68.8737 87.8381 69.9329 85.9427 70.4062 83.8091ZM120.995 134.824C120.896 134.853 120.791 134.864 120.683 134.85C120.879 134.873 120.486 134.989 120.378 135.045L120.37 135.049C120.174 135.162 119.977 135.27 119.777 135.375C119.31 135.621 118.833 135.842 118.348 136.05C117.392 136.457 116.405 136.769 115.391 136.998C114.4 137.222 113.36 137.353 112.344 137.374C111.665 137.387 110.858 137.355 110.154 137.155C110.235 138.389 110.326 139.621 110.426 140.852L111.816 140.533C113.205 140.214 114.593 139.888 115.964 139.49C116.993 139.192 118.008 138.843 119.011 138.466C119.536 138.268 120.058 138.059 120.573 137.834C120.829 137.722 121.07 137.589 121.307 137.454L121.511 137.338C121.464 136.788 121.377 136.248 121.252 135.703C121.186 135.416 121.075 135.12 120.995 134.824ZM25.8582 129.016C25.6817 129.589 25.411 130.124 24.7938 130.253C24.5754 130.299 24.3925 130.274 24.2407 130.2L24.2043 130.273C23.6969 131.315 23.5478 132.415 24.7154 133.217C25.2424 133.58 25.8163 133.894 26.41 134.175C27.4716 134.68 28.6021 135.086 29.668 135.5L29.8803 135.582C31.7867 136.331 33.7233 137.012 35.6899 137.582C37.6853 138.159 39.7159 138.622 41.7715 138.917C42.6383 139.04 43.5118 139.126 44.3867 139.182C44.4009 138.005 44.3944 136.826 44.3905 135.649C44.0793 135.61 43.7707 135.568 43.4727 135.533C42.5651 135.427 41.6603 135.297 40.7606 135.136C38.8817 134.8 37.0223 134.336 35.2087 133.742C31.8482 132.639 28.7218 131.063 25.8582 129.016ZM62.7021 92.9539C61.9385 92.1457 60.4779 92.4374 59.5562 92.8298C59.2775 92.9488 58.9964 93.0692 58.7297 93.2144L58.678 93.2433C58.3674 93.4223 58.3689 93.5286 58.5206 93.8853C58.7179 94.355 58.9925 94.8088 59.254 95.2444C60.3734 97.1138 61.8469 98.7411 63.5298 100.116C69.4897 104.982 78.0518 106.698 85.5049 105.068C89.082 104.287 92.5324 102.71 95.1656 100.123L95.4054 99.884C96.4671 98.8211 97.9246 97.2827 97.8223 95.7076C97.7739 94.9501 97.1555 94.9069 96.5239 94.7605C96.2651 94.7004 96.0179 94.6152 95.8034 94.495C95.976 95.2393 95.0569 96.3458 94.5822 96.8103C93.5871 97.7847 92.3893 98.546 91.1224 99.1152C88.7111 100.2 86.0883 100.712 83.4769 101.037C80.5139 101.406 77.4869 101.373 74.5461 100.827C71.9872 100.353 69.4649 99.454 67.2629 98.0543C66.2535 97.4132 65.2584 96.682 64.4163 95.8306L64.2374 95.6496C63.6294 95.0334 62.922 94.2886 62.5583 93.4799C62.4197 93.4812 62.2824 93.4772 62.1451 93.468C62.0483 93.4629 61.9961 93.3254 62.0928 93.2744C62.2013 93.2169 62.3098 93.1594 62.4184 93.1032C62.4002 93.0429 62.3844 92.9842 62.3713 92.924C62.3608 92.873 62.4144 92.8259 62.4615 92.8547C62.5269 92.8938 62.5896 92.9358 62.6511 92.9801C62.6681 92.9724 62.6851 92.9632 62.7021 92.9539Z" fill="black"/>
<path fill-rule="evenodd" clip-rule="evenodd" d="M100.46 44.928C92.5969 39.7214 76.8448 40.2869 68.1894 43.4768C59.744 46.1562 56.7872 53.6221 55.385 61.6882C53.6805 70.7536 53.9096 83.8218 66.1661 83.6637C67.8892 84.4973 69.7981 84.8589 71.581 85.5493C74.0212 86.3933 76.4138 87.373 78.89 88.1122C83.767 89.6835 89.194 89.5468 93.8203 87.2476C96.3763 86.0124 97.4342 84.0889 99.1057 82.0393C103.969 76.0763 106.416 67.5426 106.196 59.9605C105.812 54.6215 104.929 48.441 100.46 44.928Z" fill="white"/>
<path fill-rule="evenodd" clip-rule="evenodd" d="M110.41 66.9049C109.603 61.895 109.379 56.8 108.323 51.8292C107.329 47.1516 105.471 42.7315 102.224 39.1656C99.3188 35.9752 95.5622 33.6324 91.5296 32.1477C83.6737 29.2555 74.6383 29.9096 67.0387 33.2859C59.9255 36.4448 54.2519 42.2893 50.945 49.3033C48.7967 53.8607 47.7166 58.7058 47.2367 63.7067C46.7045 69.2621 46.647 74.8751 46.4299 80.4502C46.4038 81.1383 46.3659 81.8263 46.3567 82.5145C46.3463 83.2678 46.6509 83.9284 46.8994 84.6296C46.9164 84.6793 46.9412 84.7265 46.9713 84.771C46.7843 84.7944 46.5973 84.8218 46.4103 84.8519C46.2011 84.8846 46.2103 85.2247 46.4103 85.2653C48.1036 85.6106 49.844 85.659 51.5661 85.744C53.351 85.833 55.1384 85.8815 56.9259 85.9416C58.6689 86.0004 60.4119 86.0593 62.1549 86.1182C63.0702 86.1496 63.9855 86.181 64.9008 86.211C65.3362 86.2254 65.7716 86.2413 66.2084 86.2555C66.4254 86.2635 66.6438 86.2698 66.8608 86.2777C67.0374 86.283 67.325 86.3955 67.3433 86.266C67.376 86.2857 67.4113 86.3025 67.4493 86.3144C67.4911 86.3366 67.5316 86.3628 67.5709 86.3916C67.784 86.5381 68.107 86.5197 68.3227 86.3916C68.3423 86.3798 68.3633 86.3667 68.3842 86.3536C68.545 86.2581 68.6575 86.1195 68.7202 85.9625C69.6146 87.043 71.1981 85.8291 70.2828 84.6858C69.7911 84.071 64.9008 68.9979 66.9249 57.5155L75.0424 56.4402C76.5265 56.2898 79.2881 55.9902 79.2881 55.9902C79.2881 55.9902 79.9641 53.7835 80.1576 53.0732C80.172 53.0209 80.1864 52.9673 80.2021 52.9149C80.3956 53.2565 80.5904 53.5964 80.7865 53.9365L81.7881 55.9732C81.7881 55.9732 96.5716 55.726 100.196 55.7496C100.258 55.7496 100.549 60.1578 100.417 62.099C100.15 65.9971 99.8667 69.8926 99.4718 73.7803C99.2198 76.2696 98.6123 78.7109 97.7073 81.0052C96.2778 84.6296 92.1272 88.0744 88.0802 88.0744C85.5611 88.0744 79.8686 86.0334 79.0396 85.6212C78.2106 85.209 77.7167 86.334 78.4721 86.784C80.0025 87.6955 84.221 89.6291 88.0802 89.6291C93.6849 89.6291 97.9158 84.3091 98.4349 83.5465C103.538 83.2667 108.758 83.396 113.855 83.9023C114.283 83.9441 114.651 83.4287 114.514 83.035C112.684 77.7936 111.291 72.3873 110.41 66.9049Z" fill="black"/>
<path fill-rule="evenodd" clip-rule="evenodd" d="M89.4828 79.6254C88.6038 79.2666 87.8195 78.6683 87.2461 77.9039C87.0468 77.6381 86.9951 77.3575 87.0369 77.1009C87.0839 76.8123 87.2546 76.5507 87.4873 76.3753C87.7208 76.1993 88.0129 76.1125 88.2952 76.1568C88.5405 76.1952 88.7848 76.3296 88.9781 76.6083L89.0184 76.664C89.3593 77.1254 89.8035 77.5039 90.3097 77.7479C90.7975 77.9831 91.3431 78.0928 91.9077 78.029C92.9831 77.9075 93.7242 77.3257 94.512 76.5357C94.6097 76.4359 94.7074 76.3331 94.8056 76.2285C94.8676 76.1338 94.9536 76.0729 95.0492 76.0409C95.1552 76.0055 95.2752 76.0075 95.3851 76.0458C95.4911 76.0828 95.5859 76.153 95.6494 76.2463C95.7098 76.335 95.7441 76.4446 95.733 76.5707C95.6609 77.3894 95.233 78.1201 94.6252 78.6939C93.9501 79.3311 93.0553 79.7719 92.2129 79.9265C91.2848 80.0969 90.3391 79.9748 89.4828 79.6254ZM92.6511 66.9952C93.6385 67.5956 95.143 68.9956 94.0808 70.4841C92.8304 71.7966 91.0302 70.2918 90.1431 69.6112C89.3206 69.0838 88.3964 70.4403 89.1595 71.0562C95.5698 75.8039 98.1712 67.1522 93.1505 66.2892C92.5977 66.1941 92.3924 66.8094 92.6511 66.9952ZM81.1637 61.4724C81.2728 60.1177 83.3352 59.8101 83.5404 61.1506C83.7241 62.3514 83.5078 63.4545 82.9672 64.5357C82.4505 65.5685 81.152 65.0866 81.0538 64.1461C80.9222 62.8854 81.0959 62.3151 81.1637 61.4724ZM96.8634 60.8716C97.1509 60.4948 97.5661 60.2377 98.0635 60.383C99.6175 60.8373 99.1595 63.0444 98.6137 64.1188C98.3172 64.7022 97.3586 64.8501 96.9254 64.3364C96.2193 63.4987 95.8811 61.8258 96.7788 61.0007C96.8031 60.958 96.8302 60.915 96.8634 60.8716ZM82.9455 55.5442L83.191 55.5012C83.9504 55.3698 84.8947 55.2436 85.4319 55.8543C85.7168 56.1782 85.8149 56.7802 85.4319 57.0902C84.7582 57.6357 84.0134 57.4243 83.2061 57.4705C82.5408 57.5087 81.9014 57.6188 81.2606 57.8021C79.8547 58.204 78.7091 58.9379 77.5084 59.7437C77.3508 59.8494 77.19 59.6478 77.2652 59.5004C77.9583 58.1422 79.3016 57.0265 80.6471 56.3464C81.3652 55.9834 82.1511 55.6823 82.9455 55.5442ZM95.4469 54.9355L95.6348 54.974C97.6795 55.4016 100.336 56.2557 101.304 58.2648C101.341 58.5489 101.302 58.6098 101.271 58.6496L101.26 58.6628C101.234 58.6968 101.213 58.7436 101.09 58.7823C101.056 58.7741 101.021 58.7655 100.986 58.7564C100.543 58.64 100.191 58.4797 99.8514 58.3134L99.4828 58.1317C99.0552 57.922 98.6238 57.7198 98.1666 57.5706C97.1908 57.2522 96.1872 57.0279 95.168 56.9082C94.9471 56.8823 94.7344 56.8077 94.5666 56.6798C94.4073 56.5585 94.2856 56.3905 94.2301 56.1673C94.1582 55.8783 94.1789 55.6595 94.3339 55.3988C94.4504 55.2031 94.6172 55.0674 94.8086 54.9894C95.0038 54.91 95.2261 54.8913 95.4469 54.9355Z" fill="black"/>
<path fill-rule="evenodd" clip-rule="evenodd" d="M107.834 57.034C107.727 57.0161 107.619 56.9992 107.511 56.9834C107.427 56.9357 107.328 56.8989 107.214 56.8768C106.951 56.8102 106.691 56.7653 106.431 56.7411C102.7 55.9012 94.0695 57.0938 93.7133 60.2787C92.5252 60.6755 91.4972 60.3202 90.1202 60.3555C89.072 55.9728 70.9512 56.5914 70.0797 59.2337C70.0765 59.2328 70.0732 59.232 70.0698 59.231C69.2324 58.9717 67.9979 59.0342 67.0395 58.9932C64.993 58.9502 62.9441 59.1327 60.9418 59.5645C57.1924 60.1606 52.0751 60.8585 54.6829 65.5425C54.6834 65.5433 54.6838 65.5442 54.6844 65.545L54.6848 65.5446C55.1342 66.0054 55.8969 65.6343 55.9253 65.0105C55.0486 62.7915 57.0288 62.525 58.5524 61.8873C62.3434 60.5248 66.2031 60.3359 70.124 60.7574C70.419 61.1048 70.8666 61.4078 71.3397 61.5663C73.9613 62.0016 72.5797 63.947 74.2368 64.23C73.9324 71.0114 82.1624 74.713 86.931 70.2551C88.835 68.393 89.2888 65.6343 89.7303 63.1478C89.9637 63.0953 90.1121 62.9677 90.1988 62.7986C90.7601 62.238 91.1128 61.7203 92.2228 61.5663C93.3328 61.4125 94.1873 61.7213 94.3029 61.8159C94.332 61.8746 94.3633 61.9335 94.3996 61.9923C94.4504 62.0801 94.5194 62.1501 94.5979 62.2052C93.5017 68.958 98.7421 73.2287 104.032 69.7263C106.331 67.5631 106.817 64.2513 106.913 61.2953C107.224 61.1072 107.422 60.7426 107.314 60.2842C107.165 59.6524 107.514 59.1054 108.069 58.8307C108.79 58.474 108.663 57.1712 107.834 57.034ZM85.1023 60.2367C84.4457 60.0922 84.1652 61.1051 84.824 61.2499C85.2904 61.3525 85.6858 61.5879 85.9529 61.9866L85.981 62.0299C86.3395 62.6005 87.2458 62.0738 86.8849 61.4995C86.4788 60.8533 85.8478 60.4006 85.1023 60.2367ZM104.335 59.6102C104.103 59.447 103.753 59.5681 103.619 59.7987C103.471 60.0525 103.568 60.3351 103.785 60.5012L103.807 60.5174C104.006 60.6576 104.199 60.909 104.224 61.1665L104.226 61.1987C104.252 61.8727 105.299 61.8761 105.273 61.1987C105.247 60.5361 104.864 59.9824 104.335 59.6102Z" fill="black"/>
</svg>
