<svg width="108" height="157" viewBox="0 0 108 157" fill="none" xmlns="http://www.w3.org/2000/svg">
<path fill-rule="evenodd" clip-rule="evenodd" d="M15.6027 155.129C19.9658 155.142 24.2052 155.292 28.5806 155.306C46.3661 155.366 64.3153 155.279 82.1654 154.558C87.2105 154.354 88.4698 154.359 93.4932 154.043C96.4591 154.032 105.368 153.787 104.922 149.746C104.725 142.219 102.863 134.723 102.276 127.217C101.15 113.105 100.191 98.5514 94.5362 85.3524C93.2273 82.2002 90.4163 80.1389 87.6336 78.2853C84.843 76.2857 84.1581 74.0655 81.5826 71.8066C81.038 71.3289 77.9454 71.1345 76.2815 69.9229C73.8596 68.1594 72.6586 65.2722 71.755 64.7807C71.0901 64.4191 71.1023 61.9242 69.7696 61.0411C67.9813 59.8561 62.2825 58.975 60.2092 58.8101C58.2192 58.652 54.7579 58.9842 52.8908 59.7132C49.7772 60.9289 48.5353 63.2478 47.1641 66.2353C29.048 71.8365 12.4895 81.3212 7.34702 100.452C2.91237 116.498 2.74983 133.699 4.46302 150.156C4.80574 151.359 4.56554 153.245 5.60506 154.043C1.99249 154.25 15.1126 154.996 15.6027 155.129Z" fill="white"/>
<path fill-rule="evenodd" clip-rule="evenodd" d="M98.0016 139.287C97.6587 139.116 97.3014 138.92 96.9099 138.906C96.2375 138.883 96.2366 137.836 96.9099 137.86C97.4971 137.88 98.0128 138.125 98.5296 138.383C99.1325 138.684 98.6022 139.587 98.0016 139.287ZM96.9098 109.832C97.3686 109.832 97.8311 109.89 98.1835 110.211C98.393 110.402 98.3764 110.758 98.1835 110.951C97.977 111.158 97.6525 111.142 97.4436 110.951C97.5118 111.013 97.4443 110.952 97.4196 110.938C97.4137 110.935 97.4104 110.933 97.4089 110.931C97.4036 110.93 97.3984 110.929 97.3899 110.927C97.3352 110.913 97.2812 110.9 97.2259 110.89C97.225 110.892 97.1092 110.882 97.082 110.881C97.0244 110.879 96.9672 110.879 96.9098 110.879C96.626 110.878 96.3867 110.639 96.3867 110.355C96.3867 110.073 96.6271 109.832 96.9098 109.832ZM91.9915 121.57C91.8416 122.228 90.8334 121.948 90.9828 121.292C91.2001 120.339 91.1605 119.362 90.9828 118.406C90.8605 117.746 91.8687 117.466 91.9915 118.128C92.2046 119.275 92.2523 120.427 91.9915 121.57ZM90.67 83.9608C89.891 83.7757 89.1204 83.7538 88.3236 83.7535C87.6494 83.7532 87.6505 82.7068 88.3236 82.707C89.2123 82.7073 90.0799 82.7455 90.9481 82.9518C91.6038 83.1076 91.3245 84.1162 90.67 83.9608ZM88.0598 109.451C87.608 109.225 87.156 108.999 86.7042 108.773C86.1012 108.471 86.6316 107.569 87.2321 107.869L88.5878 108.547C89.1905 108.849 88.6602 109.751 88.0598 109.451ZM87.8721 130.058C87.299 130.885 86.4931 131.399 85.526 131.655C84.8735 131.828 84.5976 130.818 85.2479 130.646C85.9395 130.463 86.5539 130.129 86.9688 129.53C87.3502 128.98 88.2566 129.504 87.8721 130.058ZM84.2574 93.2135C84.1023 92.9237 83.8689 92.8012 83.5791 92.7947C82.906 92.7793 82.9059 91.7328 83.5791 91.7482C84.2394 91.7631 84.845 92.0949 85.1605 92.6855C85.4781 93.2797 84.5747 93.8078 84.2574 93.2135ZM77.6228 100.327C77.4353 100.532 77.0716 100.526 76.8831 100.327C76.7676 100.205 76.6706 100.069 76.5942 99.9199C76.5652 99.8633 76.5379 99.8056 76.506 99.7505C76.4917 99.7261 76.4759 99.7017 76.4597 99.6782C76.4542 99.6733 76.4428 99.6616 76.4311 99.6491C76.2301 99.4366 76.2352 99.1228 76.4311 98.9091C76.6187 98.7048 76.9823 98.7099 77.1709 98.9091C77.2862 99.0311 77.3834 99.1672 77.4596 99.3165C77.4886 99.3731 77.5159 99.4308 77.548 99.486C77.5622 99.5105 77.5781 99.5347 77.5943 99.5582C77.5998 99.5631 77.611 99.5748 77.6228 99.5873C77.8239 99.7998 77.8188 100.114 77.6228 100.327ZM77.0646 115.779C76.3834 116.09 75.6362 116.09 74.955 115.779C74.697 115.66 74.6358 115.288 74.7675 115.063C74.9199 114.802 75.2263 114.758 75.483 114.875C75.792 115.016 76.2282 115.016 76.5368 114.875C76.7946 114.757 77.098 114.799 77.2523 115.063C77.3847 115.289 77.3216 115.661 77.0646 115.779ZM75.2064 126.718C75.0893 126.995 74.8366 127.142 74.5411 127.153C74.2483 127.164 74.0303 126.905 74.018 126.63C74.0102 126.453 74.106 126.301 74.2437 126.207C74.2438 126.197 74.2441 126.188 74.2441 126.178C74.2442 125.885 74.4837 125.667 74.7671 125.655C75.0494 125.642 75.2903 125.904 75.2902 126.178C75.29 126.363 75.2787 126.546 75.2064 126.718ZM72.507 144.105C71.6723 144.119 70.8566 144.318 70.0217 144.331C69.3472 144.342 69.3493 143.296 70.0217 143.285C70.8565 143.271 71.6721 143.072 72.507 143.059C73.1816 143.048 73.1795 144.094 72.507 144.105ZM69.0361 77.0458C68.5475 77.5114 67.9439 77.7409 67.3487 78.0318C66.7456 78.3265 66.2159 77.4238 66.8207 77.1282C67.3249 76.8817 67.8831 76.6996 68.2966 76.3059C68.7843 75.8411 69.5248 76.5803 69.0361 77.0458ZM67.7242 89.1072C67.3813 88.936 67.024 88.7402 66.6326 88.7266C65.9602 88.703 65.9592 87.6565 66.6326 87.6801C67.2197 87.7005 67.7354 87.9455 68.2522 88.2036C68.8554 88.5047 68.3249 89.407 67.7242 89.1072ZM61.436 137.516C61.2812 137.226 61.0477 137.104 60.758 137.097C60.0847 137.082 60.0844 136.036 60.758 136.051C61.4183 136.066 62.0239 136.398 62.3394 136.988C62.6569 137.583 61.7536 138.111 61.436 137.516ZM59.2582 114.792C59.05 114.601 59.0645 114.246 59.2582 114.052C59.4841 113.826 59.7101 113.6 59.9361 113.374C60.1427 113.167 60.4669 113.182 60.6757 113.374C60.8839 113.565 60.8694 113.92 60.6757 114.114C60.4496 114.34 60.2238 114.566 59.9979 114.792C59.791 114.999 59.467 114.984 59.2582 114.792ZM56.6913 150.208C55.9367 150.191 55.2293 149.974 54.5188 149.738C53.8821 149.526 54.1567 148.515 54.7969 148.729C55.4145 148.934 56.0348 149.147 56.6913 149.162C57.3646 149.178 57.3648 150.224 56.6913 150.208ZM53.3019 127.831C52.6201 127.812 52.0546 127.465 51.5764 127C51.0928 126.529 51.8332 125.79 52.3161 126.26C52.5898 126.526 52.9056 126.774 53.3019 126.785C53.9749 126.803 53.9755 127.85 53.3019 127.831ZM55.4067 99.0518C55.4149 99.3305 55.5326 99.629 55.7054 99.8121C56.1677 100.302 55.4289 101.043 54.9658 100.552C54.5837 100.147 54.3767 99.6057 54.3606 99.0518C54.3413 98.3771 55.3874 98.38 55.4067 99.0518ZM47.4271 76.2613C47.2082 75.8325 46.9213 75.3297 46.485 75.0928C45.8924 74.7711 46.421 73.8679 47.013 74.1891C47.6061 74.5112 48.0305 75.1459 48.3304 75.7331C48.6363 76.3323 47.7333 76.8612 47.4271 76.2613ZM46.0717 87.1442C45.829 87.1373 45.5882 87.0957 45.3541 87.0322C45.2541 87.005 45.1552 86.9738 45.0551 86.9466C45.0122 86.9349 44.83 86.9122 44.942 86.9182C44.6588 86.903 44.4189 86.6908 44.4189 86.3949C44.4189 86.123 44.6595 85.8565 44.942 85.8717C45.3302 85.8925 45.6832 86.0868 46.0717 86.0977C46.7444 86.1167 46.745 87.1632 46.0717 87.1442ZM42.6818 103.871H41.5521C40.8779 103.871 40.8791 102.824 41.5521 102.824H42.6818C43.356 102.824 43.3548 103.871 42.6818 103.871ZM41.3649 150.136C41.0223 150.308 40.6185 150.47 40.3411 150.733C39.8518 151.196 39.1112 150.456 39.6014 149.993C39.9548 149.659 40.4067 149.448 40.837 149.233C41.0906 149.106 41.4023 149.163 41.5527 149.421C41.6885 149.653 41.6175 150.01 41.3649 150.136ZM38.8404 136.915C38.7966 136.903 38.7503 136.894 38.706 136.888C38.5281 136.864 38.3421 136.873 38.1635 136.873C37.4893 136.872 37.4903 135.826 38.1635 135.826C38.6939 135.826 39.246 135.834 39.6631 136.206C39.8748 136.394 39.8543 136.754 39.6631 136.945C39.4552 137.153 39.1342 137.133 38.9234 136.945C38.9457 136.965 38.8694 136.923 38.8404 136.915ZM38.1637 119.131C38.3157 118.818 38.318 118.614 38.3183 118.265C38.3188 117.591 39.3649 117.592 39.3644 118.265C39.3641 118.771 39.2889 119.202 39.067 119.659C38.9432 119.915 38.5807 119.981 38.3515 119.847C38.0944 119.697 38.0407 119.385 38.1637 119.131ZM35.1393 94.5846C34.5326 94.791 33.991 95.0833 33.4567 95.4361C32.8927 95.8083 32.3693 94.9017 32.9287 94.5324C33.5384 94.1299 34.1691 93.811 34.8612 93.5754C35.5011 93.3578 35.7732 94.3689 35.1393 94.5846ZM31.6111 76.9725C31.1603 76.9851 30.6951 77.158 30.2934 77.3532C29.6897 77.6464 29.16 76.7437 29.7655 76.4495C30.3393 76.1706 30.9671 75.9441 31.6111 75.926C32.2856 75.9071 32.2828 76.9537 31.6111 76.9725ZM30.0291 123.987C29.8518 123.995 29.7002 123.899 29.6063 123.762C29.5965 123.762 29.5869 123.761 29.5772 123.761C29.284 123.761 29.067 123.522 29.0542 123.238C29.0415 122.956 29.3036 122.715 29.5772 122.715C29.7618 122.715 29.945 122.726 30.1166 122.799C30.3936 122.916 30.5409 123.168 30.5521 123.464C30.5632 123.757 30.3035 123.975 30.0291 123.987ZM27.4569 87.8037C26.8145 88.0137 26.5417 87.0029 27.1788 86.7947C27.9266 86.5502 28.6907 86.3609 29.4384 86.1164C30.0808 85.9065 30.3536 86.9174 29.7164 87.1256C28.9688 87.37 28.2045 87.5592 27.4569 87.8037ZM25.111 107.556C24.9117 108.198 23.9024 107.922 24.1022 107.278C24.2952 106.655 24.3091 106.029 24.3095 105.382C24.3099 104.708 25.3559 104.709 25.3555 105.382C25.3551 106.118 25.3304 106.848 25.111 107.556ZM18.1165 131.212C18.0784 131.473 17.8718 131.661 17.6014 131.673C17.3262 131.685 17.0685 131.423 17.0784 131.149C17.0976 130.623 17.5269 130.193 18.0533 130.174C18.3462 130.163 18.5641 130.422 18.5764 130.697C18.5884 130.965 18.3653 131.173 18.1165 131.212ZM14.5771 101.14C14.0244 101.325 13.4338 101.501 13.0005 101.91C12.5108 102.372 11.7702 101.633 12.2608 101.17C12.8322 100.63 13.5672 100.376 14.2992 100.131C14.9401 99.9171 15.2125 100.928 14.5771 101.14ZM12.1787 121.468C12.0268 121.728 11.7191 121.775 11.4632 121.656C11.1201 121.497 10.7413 121.502 10.3714 121.502C9.6973 121.501 9.69835 120.455 10.3714 120.455C10.942 120.456 11.4684 120.509 11.9912 120.753C12.2484 120.872 12.311 121.242 12.1787 121.468ZM10.8233 146.14C10.5304 146.15 10.3126 145.891 10.3003 145.616C10.2882 145.349 10.5112 145.14 10.7603 145.101C10.7982 144.841 11.0049 144.653 11.2752 144.641C11.5506 144.629 11.8083 144.89 11.7982 145.164C11.779 145.691 11.35 146.12 10.8233 146.14ZM106.123 150.096C105.945 149.457 105.539 148.94 105.231 148.364C105.128 148.17 105.093 148.05 105.037 147.908C104.961 148.06 104.814 148.174 104.592 148.174C104.168 148.174 103.671 148.147 103.275 148.329C103.017 148.447 102.713 148.405 102.559 148.141C102.427 147.914 102.49 147.543 102.747 147.425C103.331 147.157 103.959 147.128 104.592 147.127C104.749 147.127 104.867 147.185 104.951 147.272C105.193 143.954 105.187 140.635 104.958 137.315C104.714 133.767 104.151 130.29 103.563 126.789C103.278 125.091 102.908 123.376 102.98 121.647C103.052 119.929 103.788 118.328 103.266 116.605C103.057 115.915 102.699 115.281 102.466 114.599C102.216 113.864 102.238 113.138 102.352 112.376C102.586 110.826 102.974 109.294 102.353 107.781C102.079 107.11 101.634 106.511 101.42 105.817C101.153 104.955 101.19 104.002 101.145 103.108C101.055 101.306 101.032 99.4915 100.882 97.6929C100.816 96.8871 100.671 96.1232 100.34 95.3841C100.022 94.6725 99.55 94.025 99.3395 93.2703C99.1303 92.5273 99.112 91.7437 98.9996 90.9837C98.8819 90.1806 98.6975 89.3892 98.4491 88.6174C97.4893 85.6297 95.7306 82.9455 93.6529 80.6184C91.4444 78.1448 88.8044 76.2821 86.0022 74.5463C84.5287 73.6335 83.0553 72.7207 81.5829 71.8079C81.5515 71.9792 81.4423 72.1365 81.2327 72.2066C80.6797 72.3913 80.0894 72.5669 79.6559 72.9762C79.1663 73.4385 78.4256 72.6995 78.9162 72.2363C79.428 71.7529 80.0712 71.4984 80.7258 71.2749C80.0548 70.8518 79.3767 70.4138 78.6196 70.1694C77.9566 69.9549 76.9786 70.1419 76.4411 69.6553C76.0189 69.2721 75.8854 68.5618 75.7234 68.0412C75.5207 67.395 75.3455 66.7134 75.0879 66.0856C74.9127 65.6565 74.6577 65.2445 74.336 64.9122C74.1948 64.368 73.9358 63.871 73.4781 63.5688C72.2805 62.7761 70.8095 63.5636 70.2825 64.6938C69.8471 64.6924 69.3881 64.7879 68.9645 64.8141C68.0936 64.869 67.2215 64.8939 66.3493 64.8913C64.6429 64.886 62.9352 64.7749 61.2432 64.5486C58.2175 64.1431 55.282 63.3255 52.3073 62.6885C52.2903 62.6492 52.2706 62.61 52.2471 62.5707C51.6064 61.4955 50.0098 61.6773 49.0042 62.0841C48.5728 62.2581 48.1335 62.4779 47.8863 62.886C47.6248 63.0626 47.3986 63.2771 47.2482 63.5034C46.937 63.9704 46.6964 64.9122 46.0649 64.9907C45.6491 65.0417 45.2267 64.9619 44.8044 65.0221C44.2761 65.0953 43.8028 65.2811 43.315 65.493C39.6015 67.1059 35.7625 68.8993 31.7324 69.5245C30.7871 69.671 29.8248 69.8228 29.0036 70.3526C28.3367 70.7829 27.8214 71.3742 27.2711 71.9353C26.735 72.4821 26.293 72.7241 25.5281 72.8222C24.5997 72.9413 23.7955 73.1976 23.1169 73.8726C22.5533 74.4338 22.1859 75.1506 21.7439 75.802C21.294 76.4666 20.6338 76.8407 19.9486 77.2266C18.3285 78.1396 16.8196 79.2423 15.5055 80.5648C12.7373 83.3536 11.061 86.9378 9.37162 90.4304C7.54494 94.2082 5.83724 98.0317 4.65258 102.066C3.49145 106.027 2.80104 110.101 2.482 114.214C2.14595 118.529 2.09888 122.862 1.81905 127.18C1.67914 129.337 1.57323 131.497 1.46601 133.655C1.3614 135.787 1.20841 137.923 1.23313 140.058C1.28033 144.185 2.10528 148.325 3.54767 152.189C3.90726 153.151 4.30594 154.099 4.7309 155.033C5.10369 155.853 6.37858 155.762 6.7787 155.033C6.87023 154.866 6.94214 154.693 7.00229 154.518C8.04836 154.527 9.10488 154.446 10.1444 154.542C11.9802 154.714 13.8199 154.809 15.6609 154.923C19.304 155.149 22.9534 155.3 26.5977 155.508C26.9512 155.528 27.3048 155.548 27.6582 155.569C25.0613 147.528 25.3981 138.835 24.9871 130.472C24.954 129.798 26.0004 129.802 26.0332 130.472C26.4458 138.871 26.0945 147.586 28.7833 155.64C29.8265 155.711 30.8682 155.797 31.9064 155.924C32.7458 156.025 33.5893 156.144 34.4366 156.102C35.3977 156.056 36.3365 155.836 37.274 155.645C38.9778 155.299 40.6188 155.456 42.3291 155.669C44.1584 155.898 45.9943 156.025 47.8353 156.104C55.2075 156.427 62.6293 156.722 69.9988 156.229C71.7823 156.11 73.5619 155.942 75.3337 155.715C77.1591 155.48 78.9648 155.087 80.7888 154.863C82.5867 154.643 84.2396 155.246 86.0166 155.357C87.8288 155.471 89.6896 155.093 91.4849 154.876C92.0706 154.805 92.6569 154.736 93.2433 154.667C92.4883 149.491 92.0591 144.275 91.6421 139.061C91.5883 138.389 92.6348 138.395 92.6881 139.061C93.1017 144.234 93.5215 149.411 94.2753 154.547C97.384 154.185 100.496 153.819 103.572 153.255C104.448 153.096 105.319 152.835 105.843 152.053C106.232 151.474 106.31 150.763 106.123 150.096Z" fill="black"/>
<path fill-rule="evenodd" clip-rule="evenodd" d="M63.6382 14.3029C83.319 14.9262 84.506 24.2779 84.506 39.9613C84.506 55.6446 74.2965 65.5273 70.5372 67.253C66.7779 68.9787 56.8791 76.391 47.9461 72.9752C39.013 69.5594 41.5999 55.1281 41.5999 48.9275C41.5999 42.7268 43.9575 13.6795 63.6382 14.3029Z" fill="white"/>
<path fill-rule="evenodd" clip-rule="evenodd" d="M71.6225 62.1021C68.0084 64.1205 63.87 64.199 59.9825 62.9288C57.6511 62.169 55.5133 60.9942 53.5126 59.5893C51.7722 58.3662 50.2188 57.0097 48.6798 55.5694C47.4127 52.7741 46.2844 49.984 45.756 46.9427C45.2827 44.2127 45.2199 41.3781 45.7691 38.6533C49.8306 35.3111 53.8671 31.9415 57.8982 28.5615C59.9511 26.84 62.0092 25.1278 64.0922 23.4428C65.15 22.5874 66.1975 21.7188 67.2513 20.8594C67.4252 20.7181 67.598 20.5768 67.7719 20.4355C69.9475 22.0288 72.2803 23.3946 74.4405 25.0139C75.5714 25.8628 76.6711 26.7667 77.7185 27.7175C78.2677 28.2161 78.8039 28.7301 79.3269 29.2573C79.8054 29.7388 80.2669 30.4293 80.9457 30.6113C81.0385 30.636 81.126 30.6413 81.2084 30.6295C82.1159 38.5774 82.7605 47.1598 78.8731 54.3778C77.1771 57.5264 74.7726 60.3414 71.6225 62.1021ZM48.1111 65.0231C47.6134 64.5669 48.3551 63.8288 48.8507 64.283C51.9635 67.1354 56.0329 68.6474 60.1434 69.3472C60.8066 69.4603 60.5238 70.4685 59.8653 70.3562C55.5737 69.6255 51.3557 67.9962 48.1111 65.0231ZM44.3765 69.4002C43.7824 69.0813 44.3113 68.1783 44.9044 68.4966C47.3296 69.7978 49.9896 70.4738 52.6876 70.9303C53.3512 71.0425 53.0681 72.0507 52.4096 71.9394C49.6199 71.4674 46.8825 70.7447 44.3765 69.4002ZM54.2465 25.3131C56.2589 23.5065 58.4216 21.7876 60.7061 20.337C63.0178 18.8694 65.5427 17.9916 68.2716 17.9707C68.0807 18.1237 67.899 18.2938 67.7146 18.4519C67.1995 18.8929 66.6855 19.3363 66.1717 19.7785C65.1439 20.6641 64.1135 21.5482 63.0989 22.4483C61.1009 24.2221 59.0964 25.9867 57.1023 27.7644C53.2698 31.1811 49.5198 34.6723 45.8506 38.2644C45.8703 38.1768 45.8913 38.0891 45.912 38.0016C47.1268 32.9261 50.431 28.7389 54.2465 25.3131ZM70.0208 18.1919C70.0339 18.1527 70.0431 18.1146 70.0484 18.0781C75.2852 18.7609 79.659 22.6158 81.1051 27.6913C80.9796 27.8666 80.9103 28.0745 80.9364 28.2955C80.9495 28.4068 80.9626 28.5193 80.9756 28.6305C80.7965 28.4527 80.6121 28.2865 80.4554 28.1282C79.9335 27.5997 79.3988 27.0855 78.8495 26.5845C77.7263 25.5604 76.5601 24.6029 75.3308 23.7094C73.1931 22.1554 70.8785 20.727 68.3301 19.9814C68.4974 19.844 68.6649 19.7067 68.8336 19.5707C69.3369 19.1611 69.8038 18.8237 70.0208 18.1919ZM79.4095 12.7647C76.1941 9.24982 71.7417 6.6755 67.0529 5.78076C62.5756 4.92527 57.9402 5.48906 53.7103 7.15164C44.8592 10.6312 37.8755 18.2823 34.6052 27.1484C32.6988 32.314 32.0737 37.9768 32.6466 43.4446C33.2166 48.8874 34.8549 54.5084 37.8362 59.139C38.1095 59.563 38.4089 59.9697 38.7228 60.3634C38.5829 61.9619 38.0494 63.529 37.2099 64.892C37.1648 64.965 37.1172 65.0367 37.0701 65.1085C36.2105 65.7525 35.3189 66.3568 34.4484 66.9806C33.6941 67.5211 32.9475 68.0756 32.2381 68.6744C31.5685 69.2396 30.7909 69.869 30.3375 70.6319C29.966 71.2568 29.8144 72.1064 30.3214 72.7024C30.9325 73.4202 31.9678 73.1671 32.7955 73.1671C32.8664 73.1671 32.9371 73.1687 33.0079 73.1695C33.2564 73.3258 33.5125 73.4671 33.7605 73.5985C36.2671 74.9277 38.7829 76.2423 41.3013 77.5504C46.3173 80.1574 51.3123 82.8692 56.4313 85.2694C58.8034 86.3826 61.3427 87.3557 63.9995 87.3519C66.4919 87.348 68.7447 86.3578 70.6904 84.8521C72.9081 83.1371 74.7623 80.9593 76.5614 78.8246C77.2806 77.9702 77.9854 77.1056 78.6771 76.2292C80.0056 75.7858 81.3236 75.6563 82.5083 76.5118C83.4589 77.1985 84.7116 76.2645 84.7338 75.2336C84.7416 74.8676 84.7261 74.5065 84.6867 74.1507C84.4489 71.9529 83.3739 69.9648 82.1631 68.1205C81.5016 67.1118 80.8047 66.1215 80.1037 65.1404C79.9389 64.909 79.7768 64.6775 79.6199 64.4419C82.4351 60.2954 84.6684 55.6975 86.0414 50.8927C87.4838 45.8371 87.9741 40.5943 87.6525 35.3554C87.1581 27.3263 84.9562 18.829 79.4095 12.7647Z" fill="black"/>
<path fill-rule="evenodd" clip-rule="evenodd" d="M69.5619 56.3929C68.6829 56.0342 67.8986 55.4358 67.3252 54.6715C67.1259 54.4057 67.0742 54.1251 67.116 53.8685C67.163 53.5799 67.3337 53.3183 67.5665 53.1429C67.7999 52.9669 68.092 52.8801 68.3743 52.9243C68.6197 52.9628 68.8639 53.0972 69.0572 53.3759L69.0975 53.4316C69.4384 53.893 69.8826 54.2715 70.3888 54.5155C70.8766 54.7507 71.4222 54.8604 71.9868 54.7966C73.0622 54.6751 73.8033 54.0933 74.5911 53.3033C74.6888 53.2035 74.7865 53.1006 74.8847 52.9961C74.9467 52.9014 75.0327 52.8405 75.1283 52.8085C75.2343 52.773 75.3543 52.775 75.4642 52.8134C75.5702 52.8504 75.665 52.9205 75.7285 53.0139C75.7889 53.1026 75.8232 53.2122 75.8121 53.3382C75.74 54.157 75.3121 54.8877 74.7043 55.4614C74.0293 56.0987 73.1344 56.5395 72.292 56.6941C71.3639 56.8644 70.4182 56.7424 69.5619 56.3929ZM72.7302 43.7627C73.7176 44.3632 75.2221 45.7632 74.1599 47.2517C72.9095 48.5642 71.1093 47.0594 70.2222 46.3788C69.3997 45.8513 68.4755 47.2079 69.2387 47.8238C75.6489 52.5715 78.2503 43.9197 73.2296 43.0568C72.6768 42.9617 72.4715 43.577 72.7302 43.7627ZM61.2428 38.24C61.3519 36.8853 63.4143 36.5776 63.6195 37.9182C63.8032 39.119 63.5869 40.2221 63.0463 41.3032C62.5296 42.3361 61.2311 41.8542 61.1329 40.9137C61.0013 39.653 61.175 39.0827 61.2428 38.24ZM76.9425 37.6391C77.23 37.2624 77.6452 37.0052 78.1426 37.1506C79.6967 37.6049 79.2386 39.812 78.6928 40.8863C78.3963 41.4698 77.4377 41.6177 77.0045 41.104C76.2984 40.2663 75.9603 38.5934 76.8579 37.7683C76.8822 37.7256 76.9093 37.6826 76.9425 37.6391ZM63.0246 32.3118L63.2701 32.2688C64.0295 32.1374 64.9738 32.0111 65.511 32.6219C65.7959 32.9458 65.894 33.5478 65.511 33.8578C64.8373 34.4033 64.0925 34.1919 63.2852 34.238C62.62 34.2762 61.9805 34.3864 61.3397 34.5696C59.9338 34.9716 58.7882 35.7055 57.5875 36.5112C57.4299 36.6169 57.2691 36.4154 57.3443 36.2679C58.0374 34.9098 59.3807 33.7941 60.7262 33.114C61.4443 32.751 62.2302 32.4499 63.0246 32.3118ZM75.526 31.7031L75.7139 31.7416C77.7586 32.1691 80.4152 33.0232 81.3834 35.0324C81.4203 35.3165 81.3813 35.3774 81.3496 35.4172L81.3391 35.4304C81.313 35.4644 81.2921 35.5112 81.169 35.5499C81.1349 35.5417 81.1004 35.5331 81.0655 35.524C80.6217 35.4076 80.2705 35.2473 79.9305 35.081L79.5619 34.8993C79.1343 34.6895 78.7029 34.4874 78.2457 34.3382C77.2699 34.0198 76.2663 33.7955 75.2471 33.6758C75.0262 33.6498 74.8135 33.5752 74.6457 33.4474C74.4864 33.3261 74.3647 33.1581 74.3092 32.9348C74.2373 32.6459 74.258 32.4271 74.413 32.1664C74.5295 31.9706 74.6963 31.8349 74.8877 31.757C75.0829 31.6776 75.3052 31.6589 75.526 31.7031Z" fill="black"/>
<path fill-rule="evenodd" clip-rule="evenodd" d="M84.4329 44.5567C82.8454 46.1977 80.1952 46.6686 78.083 45.7886C72.6597 43.5218 75.3142 36.4515 79.4968 34.5528C80.0193 34.4226 80.7171 34.1135 81.3535 34.0433C81.4111 34.0151 81.5363 34.0968 81.6881 34.0195C86.3001 34.5347 87.3504 41.6967 84.4329 44.5567ZM66.9402 44.9777C65.1597 47.3402 61.8494 48.0691 59.1448 46.9708C53.8018 44.8658 55.6968 38.5963 59.3524 36.1384C67.0746 33.2356 70.2634 40.6216 66.9402 44.9777ZM55.3584 39.743C55.3535 39.7406 55.3485 39.7394 55.3434 39.7371C55.3716 39.7247 55.3999 39.7122 55.428 39.6996C55.4188 39.7235 55.4089 39.7472 55.4 39.7711C55.3861 39.7616 55.374 39.7504 55.3584 39.743ZM88.1089 37.189C87.673 37.1899 87.0432 37.2616 86.6824 37.5642C85.7924 34.5617 82.5075 31.7829 79.6507 33.8092C77.401 34.5329 75.7317 36.1381 74.7829 38.2721C73.0722 37.2541 70.3822 37.6888 68.8988 39.035C67.9272 35.8235 65.5362 34.6989 62.6903 34.5329C59.584 34.0239 56.4879 37.0418 55.5219 39.4628C54.7186 39.3714 53.5184 39.1157 52.7627 39.6116C47.8584 38.3249 39.284 37.6156 38.2869 38.3304C37.5764 38.6032 37.1865 40.2809 38.1789 40.3714C39.0438 40.2486 38.078 39.1421 38.9497 39.0214C43.5947 38.7333 48.1038 39.6691 52.6996 40.0618C53.1099 40.614 54.4357 40.7987 55.1429 40.5768C54.029 44.6837 56.4336 47.4778 60.0367 48.3147C65.6157 49.5968 70.4696 44.604 69.0107 39.4109C70.7007 38.5698 72.6447 38.6059 74.4858 39.049C71.4093 50.3757 89.6444 49.8675 86.7964 37.9523C88.6917 38.8954 89.1033 37.3793 88.1089 37.189Z" fill="black"/>
</svg>
