<svg width="149" height="201" viewBox="0 0 149 201" fill="none" xmlns="http://www.w3.org/2000/svg">
<path fill-rule="evenodd" clip-rule="evenodd" d="M119.604 168.256C119.287 165.309 119.091 162.341 118.979 159.379C118.867 156.42 119.014 153.425 119.078 150.465C119.209 144.444 119.422 138.409 118.943 132.397C118.49 126.716 117.451 121.074 115.81 115.614C115.011 112.956 114.169 110.19 112.855 107.733C111.534 105.263 109.441 103.619 107.142 102.11C104.694 100.504 102.266 98.8681 99.828 97.2472C97.7814 95.8867 94.0984 94.3032 92.4192 92.4843C90.6523 90.5704 90.3201 85.8263 89.1434 83.5592C87.9975 81.3508 84.7536 79.9103 82.256 79.9103C78.1217 79.9103 74.9893 79.6989 71.5899 83.5247C69.8938 85.4336 71.2433 87.3633 69.4655 89.1954C67.831 90.8799 63.651 92.611 61.5444 93.5884C59.0213 94.759 56.4345 95.7925 53.8102 96.7131C51.1332 97.6523 48.3887 98.3523 45.6967 99.2387C43.1163 100.088 39.7469 103.59 37.7437 105.443C35.8813 107.166 35.4191 106.973 34.0033 109.066C30.8959 113.659 27.7852 118.304 25.3108 123.277C24.0782 125.754 22.8848 128.359 22.4376 131.11C21.9606 134.044 22.4336 136.88 23.2071 139.72C23.9946 142.611 26.495 145.364 27.3097 148.248C27.6851 149.577 26.3964 151.027 26.9892 152.279C27.2852 152.905 27.658 153.461 28.0824 154.006C28.4095 154.426 29.6848 154.333 29.8498 154.847C30.0165 155.366 29.0938 156.443 29.0801 156.981C29.0606 157.749 29.03 158.518 29.0048 159.287L28.8557 163.832C28.7578 166.818 28.6599 169.805 28.5619 172.792C28.5299 173.767 28.4832 174.719 28.7169 175.644C28.6325 175.566 28.5524 175.481 28.4792 175.385C28.2648 175.105 27.8103 175.343 27.9922 175.67C28.2958 176.217 28.7324 176.601 29.2454 176.877C29.8415 177.757 120.12 179.72 120.564 177.15C120.813 175.708 120.36 174.164 120.178 172.731C119.989 171.238 119.765 169.753 119.604 168.256Z" fill="white"/>
<path fill-rule="evenodd" clip-rule="evenodd" d="M27.8984 131.115C28.1193 130.482 29.1295 130.756 28.9071 131.393C27.7637 134.669 28.5748 138.234 29.8109 141.362C30.0589 141.989 29.0469 142.259 28.8022 141.64C27.502 138.35 26.6975 134.556 27.8984 131.115ZM35.5639 149.828C38.7884 150.281 42.0155 150.561 45.2622 150.788C45.4074 150.798 45.5329 150.776 45.6414 150.729C45.5446 152.216 45.4662 153.705 45.4047 155.193C44.5195 155.168 43.616 155.227 42.7386 155.204C41.5918 155.172 40.4464 155.115 39.3023 155.027C37.0872 154.86 34.8761 154.593 32.6859 154.224C31.8674 154.087 30.8279 154.003 29.8956 153.731C29.0143 153.473 28.2297 153.047 27.8178 152.243C27.4674 151.563 27.4033 150.73 27.4033 149.978C27.4033 149.46 27.4922 148.934 27.5458 148.412C27.6125 148.365 27.6727 148.309 27.7211 148.246C28.6939 148.553 29.7033 148.769 30.6919 148.978C32.3015 149.321 33.9347 149.599 35.5639 149.828ZM33.7454 137.734C33.7632 138.734 34.0397 139.642 34.5778 140.484C34.9418 141.053 34.0361 141.577 33.6745 141.012C33.0411 140.021 32.7202 138.908 32.6993 137.734C32.6873 137.059 33.7334 137.061 33.7454 137.734ZM116.401 148.641C116.838 148.665 117.277 148.68 117.715 148.704C118.101 149.034 118.636 149.203 119.125 149.098C119.141 149.141 119.157 149.188 119.171 149.243C119.257 149.579 119.3 149.94 119.35 150.283C119.4 150.62 119.437 150.96 119.464 151.3C119.477 151.472 119.559 151.859 119.454 152.008C119.36 152.143 119.152 152.131 119.009 152.148C118.622 152.19 118.229 152.21 117.84 152.242C117.103 152.306 116.367 152.37 115.632 152.434C114.912 152.497 114.121 152.478 113.416 152.667C113.296 151.253 113.186 149.839 113.084 148.424C114.176 148.585 115.317 148.581 116.401 148.641ZM24.8552 146.295C25.2945 147.144 25.6999 147.979 26.5406 148.489C26.6505 148.554 26.7734 148.589 26.8989 148.599C26.8048 149.003 26.7459 149.416 26.6936 149.798C26.5786 150.639 26.5537 151.509 26.7642 152.338C26.9695 153.145 27.3095 153.866 27.9764 154.383C28.2863 154.624 28.6249 154.807 28.9806 154.952C28.9204 155.121 28.8851 155.288 28.9034 155.473C28.8184 155.9 28.7622 156.336 28.7008 156.753C28.5661 157.679 28.4314 158.607 28.3255 159.538C28.1137 161.39 27.9476 163.243 27.8077 165.101C27.6678 166.955 27.5671 168.811 27.4834 170.669C27.4403 171.618 27.4023 172.568 27.367 173.519C27.3317 174.496 27.1735 175.495 27.605 176.402C27.9528 177.135 29.1283 177.093 29.4892 176.402C29.9469 175.524 29.8122 174.482 29.824 173.519C29.8357 172.612 29.8514 171.705 29.871 170.798C29.9103 168.942 29.9678 167.087 30.0136 165.231C30.058 163.419 30.1129 161.609 30.1496 159.797C30.1679 158.849 30.1692 157.9 30.1744 156.952C30.177 156.426 30.1992 155.865 30.16 155.317C30.4869 155.394 30.8164 155.459 31.142 155.526C33.6277 156.036 36.1396 156.408 38.6671 156.638C39.9368 156.753 41.2104 156.834 42.4839 156.88C43.4202 156.914 44.3904 156.979 45.341 156.944C45.2665 159.215 45.2325 161.487 45.2364 163.759C45.239 165.398 45.2612 167.037 45.3018 168.676C45.324 169.538 45.3423 170.4 45.3685 171.262C45.3802 171.65 45.3802 172.041 45.4064 172.427C45.4142 172.547 45.4312 172.664 45.4535 172.779C45.3672 173.023 45.2952 173.265 45.2364 173.492C44.9487 174.59 44.9487 175.646 45.0769 176.766C45.1867 177.715 45.9856 178.596 47.0409 178.262C47.2121 178.208 47.3834 178.152 47.5534 178.095C49.1068 178.271 50.6694 178.312 52.245 178.342C54.5477 178.386 56.8516 178.401 59.1556 178.413C63.6746 178.436 68.1949 178.448 72.7151 178.461C81.7989 178.487 90.8826 178.512 99.9664 178.538C102.487 178.546 105.008 178.552 107.529 178.56C108.834 178.564 110.137 178.566 111.44 178.615C112.048 178.639 112.658 178.672 113.266 178.681C113.971 178.693 114.594 178.49 115.268 178.305C115.648 178.199 115.799 177.817 115.717 177.494C116.327 177.639 117.066 177.331 117.273 176.644C117.425 176.146 117.369 175.605 117.143 175.144V175.142C116.706 172.384 116.152 169.638 115.716 166.878C115.239 163.855 114.78 160.825 114.376 157.791C114.073 155.499 113.823 157.123 113.607 154.821C114.547 154.894 115.61 154.608 116.541 154.486C117.209 154.4 117.883 154.331 118.552 154.239C118.503 154.914 118.517 155.602 118.499 156.25C118.463 157.535 118.479 158.816 118.512 160.102C118.575 162.583 118.714 161.139 118.938 163.61C119.164 166.099 119.441 168.58 119.777 171.057C119.95 172.333 120.134 173.607 120.329 174.879C120.42 175.473 120.512 176.066 120.608 176.66C120.722 177.359 120.758 178.023 121.283 178.549C121.681 178.948 122.496 178.914 122.76 178.358C123.095 177.655 122.943 177.053 122.819 176.316C122.718 175.723 122.621 175.131 122.526 174.538C122.322 173.268 122.129 171.996 121.947 170.724C121.596 168.271 121.266 165.814 120.97 163.355C120.672 160.876 120.363 162.324 120.07 159.846C119.923 158.595 119.775 157.347 119.602 156.101C119.515 155.459 119.46 154.777 119.345 154.116C119.381 154.111 119.418 154.104 119.455 154.098C120.25 153.953 120.928 153.504 121.128 152.685C121.319 151.901 121.092 151 120.931 150.231C120.793 149.576 120.669 148.74 120.248 148.179C121.733 146.286 122.699 143.904 123.316 141.614C123.987 139.119 124.268 136.515 124.327 133.937C124.397 130.951 124.171 127.981 123.66 125.061C123.648 124.442 123.619 123.824 123.573 123.206C123.124 117.142 121.235 109.964 115.249 107.131C115.226 107.119 115.201 107.109 115.176 107.098C114.707 106.537 114.121 106.032 113.648 105.56C112.809 104.723 111.933 103.922 111.005 103.184C109.167 101.723 107.15 100.556 105.054 99.506C102.935 98.4425 100.784 97.4445 98.7124 96.2841C96.908 95.2717 95.2839 94.0525 93.7423 92.6764C92.0098 91.129 90.7767 89.0425 90.2929 86.7652C90.2681 86.6463 90.0916 86.679 90.0889 86.7926C89.9621 90.9667 92.7786 94.6556 96.0201 96.9892C99.8958 99.7769 104.576 101.097 108.506 103.799C109.483 104.47 110.397 105.228 111.266 106.032C109.934 105.896 108.578 105.982 107.329 106.351C106.838 106.321 106.343 106.312 105.85 106.288C104.723 106.232 103.595 106.18 102.466 106.13C100.166 106.028 97.8651 105.935 95.5638 105.854C91.0487 105.695 86.5323 105.574 82.0159 105.495C72.9401 105.333 63.8524 105.302 54.7778 105.565C52.3169 105.636 39.3771 105.145 38.1794 105.284C39.9407 103.759 41.8733 102.513 43.9981 101.489C46.6564 100.211 49.4036 99.3581 52.2424 98.5785C58.0886 96.9735 64.1597 95.426 68.8382 91.3487C70.0006 90.3349 71.0336 89.1696 71.8796 87.8785C72.6877 86.6463 73.586 85.0686 73.6082 83.5656C73.6239 82.4983 72.1385 82.1097 71.6102 83.024C71.282 83.5904 71.1199 84.2118 70.8518 84.8056C70.5851 85.3943 70.2687 85.962 69.9169 86.505C69.2252 87.5724 68.3675 88.5245 67.4338 89.384C65.4437 91.2179 63.0325 92.5613 60.5377 93.5777C54.8732 95.8839 48.6779 96.8571 43.3103 99.8972C40.9619 101.227 38.7142 103.063 37.3033 105.404C37.0758 105.44 36.8496 105.481 36.6234 105.528C36.7921 105.315 36.962 105.102 37.1333 104.89C37.2458 104.751 37.0719 104.568 36.9346 104.691C34.2658 107.067 31.8076 109.632 29.5795 112.429C27.4481 115.105 25.4606 117.91 24.0536 121.044C21.5248 126.674 20.9677 133.113 22.274 139.133C22.6297 140.774 23.1318 142.38 23.7712 143.933C24.1007 144.734 24.4577 145.525 24.8552 146.295Z" fill="black"/>
<path fill-rule="evenodd" clip-rule="evenodd" d="M82.4694 28.8756C89.8939 28.8756 99.1928 37.3482 101.914 40.9536C104.202 43.9849 103.879 59.601 103.879 68.8645C103.879 70.8019 103.003 74.4687 102.686 76.3219C101.521 83.1128 96.4472 88.8081 86.4053 88.8081C78.2287 88.8081 71.9363 86.2172 65.8514 79.5906C64.4632 78.0788 57.6836 83.4909 56.2971 81.5419C52.6756 81.5419 49.6474 47.6914 56.7578 37.5383C63.8682 27.3851 75.0449 28.8756 82.4694 28.8756Z" fill="white"/>
<path fill-rule="evenodd" clip-rule="evenodd" d="M60.154 31.2609C64.4441 27.3563 70.1596 25.4779 75.926 25.6165C78.9125 25.6885 81.8885 26.2575 84.709 27.232C86.1198 27.7212 87.4863 28.3596 88.7925 29.0817C89.2633 29.3413 89.6972 29.6454 90.115 29.9685L90.2191 30.0496H90.2204C91.341 30.4525 92.3413 31.1759 93.2488 32.0222C95.0676 31.877 96.9008 32.0406 98.6595 32.6017C101.107 33.384 103.373 34.8163 104.965 36.8504C106.818 39.2185 107.434 42.0909 107.215 45.0561L107.174 45.5598C106.957 48.1792 106.567 51.5484 104.418 53.2695C104.255 53.4003 104.074 53.4998 103.887 53.5599C105.272 55.9328 106.408 58.5673 107.088 61.228C109.684 71.3905 107.688 81.9886 104.567 91.7836C104.311 92.5907 103.091 93.127 102.47 92.3382C101.361 90.9281 99.75 89.8529 97.9377 89.6514C96.8198 89.5272 95.707 89.7522 94.6505 89.2446C94.236 89.0445 93.8359 88.7174 93.5482 88.3198C91.7647 88.9961 89.8438 89.3153 87.9387 89.2368C84.8123 89.1086 81.4701 88.0255 79.3191 85.65C78.9739 85.2687 78.8865 84.8405 78.966 84.4547C79.2357 84.3584 79.5127 84.2867 79.798 84.2418C82.5256 85.85 85.5322 86.9246 88.7635 86.9921C90.6306 87.0311 92.4518 86.7698 93.9657 85.6035C94.2933 85.3511 94.5945 85.0715 94.873 84.7712C98.0383 82.7342 100.27 79.2745 101.331 75.5685C102.319 72.1126 102.198 68.514 101.858 64.9691L101.678 63.0984C101.417 60.3529 101.174 57.5991 101.107 54.8419L101.127 54.8408C101.795 54.7976 101.8 53.7508 101.127 53.7943C99.3855 53.9071 97.6571 53.6213 95.9209 53.7458C95.9064 52.9247 95.8473 52.1073 95.6061 51.3154C95.4684 50.8629 94.6808 50.7737 94.5974 51.3154C94.4857 52.0401 94.4449 52.7607 94.4328 53.4886C91.8345 53.4541 89.2387 53.2354 86.64 53.3253C86.1606 52.8138 86.008 51.9069 85.7838 51.276C85.7511 51.1831 85.7184 51.0916 85.6844 50.9987C85.4874 51.9002 85.2081 52.782 84.8406 53.6452L84.2033 53.6474C80.5872 53.6643 76.8976 53.7725 73.3665 54.5237C73.1211 54.3352 72.975 54.0064 72.9355 53.7077C72.6794 51.7645 72.3139 49.8729 71.666 48.021L71.5733 47.7597C71.5657 47.7381 71.5577 47.715 71.5494 47.6908C71.072 48.4617 70.5024 49.1802 69.8812 49.8493C69.515 50.2437 69.1311 50.6208 68.7372 50.9872C68.3544 51.4123 67.9589 51.831 67.5755 52.2575C67.5906 52.335 67.6036 52.4138 67.6142 52.494C67.7315 53.3789 67.7437 54.2764 67.6578 55.1647C67.5024 56.7706 67.0492 58.3181 66.3212 59.7497L66.2981 59.893C66.1876 60.5639 66.0303 61.2572 65.6629 61.7624C66.1214 62.2763 66.4745 62.89 66.6793 63.5719C66.8616 64.179 66.022 64.7051 65.5866 64.2083C65.2407 63.8137 64.8564 63.487 64.4343 63.2264C64.4076 63.2627 64.3595 63.2805 64.3055 63.2503C63.13 62.5975 61.1333 62.795 59.9591 63.4098C58.4986 64.1738 57.9285 65.7422 58.0906 67.3315C58.2462 68.8502 58.9105 70.6253 60.1984 71.4036C60.7894 71.7607 61.2497 71.7908 61.8774 71.6194C62.078 71.5649 62.3268 71.3977 62.4336 71.3146L62.5387 71.2303C62.9502 70.905 63.3334 70.6822 63.8191 70.6737C64.3159 70.5187 64.8152 70.7337 65.0051 71.2548L65.0168 71.2885C65.1058 71.554 65.2679 71.8876 65.2326 72.2931C65.196 72.7274 64.9972 73.1224 64.7004 73.4403C64.6494 73.4952 64.5945 73.5502 64.5383 73.6012C69.6509 79.1383 70.3073 87.7665 67.6856 94.6836C67.5719 94.9871 67.4503 95.2867 67.3234 95.5836C66.8854 96.6013 65.1986 96.2861 64.9842 95.2775C64.9201 94.9754 64.8495 94.6745 64.7723 94.3763C64.6305 93.8251 64.4681 93.2791 64.2849 92.7411L64.2153 92.5397C64.0597 92.0949 63.9146 91.6463 63.7577 91.2015L63.742 91.1507C63.7361 91.1306 63.7295 91.1073 63.7223 91.0812L63.4569 91.6607L62.6501 93.4096C62.2726 94.2257 61.0731 93.7822 61.0285 92.9957L61.0274 92.9687C61.0235 92.8235 61.0183 92.6797 61.0091 92.5371C60.9516 91.4684 60.7672 90.4297 60.4743 89.4134L60.3687 89.5447C58.7951 91.4909 56.9484 93.315 54.415 93.7641C53.7795 93.8766 53.0604 93.2121 53.4971 92.5698C53.6775 92.3042 53.8514 92.0322 54.0162 91.7561C53.8737 91.6894 53.739 91.6201 53.6148 91.5495C52.6537 91.0092 51.8535 90.2401 51.1918 89.3676C49.7888 87.5179 49.2867 85.1895 49.1638 82.9108C49.033 80.5027 49.2448 77.9636 49.9026 75.6405C50.1876 74.6359 50.5733 73.6718 51.0192 72.7365C50.9878 72.6528 50.9578 72.5691 50.9277 72.4854C50.4465 71.1433 50.0516 69.7711 49.7234 68.3832C49.0618 65.5813 48.7061 62.6904 48.663 59.8113C48.5845 54.6535 49.4737 49.4133 51.3474 44.6034C53.2826 39.6432 56.1933 34.8647 60.154 31.2609ZM57.7445 76.355C57.3891 75.7953 56.5 76.2997 56.8299 76.8634L56.8422 76.8835C57.4058 77.7717 57.6699 78.7816 57.9942 79.7718C58.2021 80.4088 59.2129 80.1367 59.0024 79.4932L58.9327 79.2783C58.61 78.2741 58.3156 77.2536 57.7445 76.355ZM60.8394 65.6712L61.0755 65.5569C61.8202 65.2014 62.4727 64.9592 63.3526 65.2696C64.5307 65.6842 65.7925 67.0041 64.9962 68.2847C64.7033 68.7569 64.1829 68.9453 63.6468 68.8341C62.743 68.6466 62.5097 67.8324 62.0511 67.164L61.9722 67.0509C61.6925 66.6464 61.3389 66.0874 60.8734 65.9289C60.7675 65.8922 60.723 65.7274 60.8394 65.6712ZM61.5029 38.4812L61.5789 38.4131C62.0849 37.9657 61.3422 37.2279 60.8388 37.6727C58.5348 39.7094 57.7346 42.8972 56.5395 45.6141C56.2714 46.225 57.1724 46.7587 57.443 46.1426C58.583 43.55 59.3398 40.4487 61.5029 38.4812ZM89.1899 37.5905C88.5879 37.3191 88.0612 38.1956 88.6399 38.4841L88.6616 38.4944C90.6962 39.414 91.5618 41.4965 92.3908 43.4298C92.6549 44.0473 93.5559 43.5149 93.2944 42.9027L93.1448 42.5558C92.2797 40.5634 91.2708 38.5325 89.1899 37.5905ZM92.3789 36.3322C91.7408 36.1111 91.4675 37.121 92.1004 37.3421C93.8251 37.9425 95.0084 39.2375 96.0061 40.7182C96.3801 41.2729 97.2862 40.7496 96.9083 40.1898C95.7498 38.4709 94.3742 37.0281 92.3789 36.3322Z" fill="black"/>
<path fill-rule="evenodd" clip-rule="evenodd" d="M88.8773 79.6254C87.9983 79.2666 87.214 78.6683 86.6407 77.9039C86.4413 77.6381 86.3896 77.3575 86.4314 77.1009C86.4785 76.8123 86.6491 76.5507 86.8819 76.3753C87.1154 76.1993 87.4074 76.1125 87.6897 76.1568C87.9351 76.1952 88.1793 76.3296 88.3726 76.6083L88.413 76.664C88.7539 77.1254 89.1981 77.5039 89.7042 77.7479C90.1921 77.9831 90.7377 78.0928 91.3023 78.029C92.3776 77.9075 93.1188 77.3257 93.9065 76.5357C94.0042 76.4359 94.1019 76.3331 94.2001 76.2285C94.2621 76.1338 94.3481 76.0729 94.4437 76.0409C94.5498 76.0055 94.6698 76.0075 94.7797 76.0458C94.8857 76.0828 94.9804 76.153 95.044 76.2463C95.1044 76.335 95.1386 76.4446 95.1275 76.5707C95.0554 77.3894 94.6275 78.1201 94.0197 78.6939C93.3447 79.3311 92.4499 79.7719 91.6075 79.9265C90.6794 80.0969 89.7336 79.9748 88.8773 79.6254ZM92.0456 66.9952C93.033 67.5956 94.5375 68.9956 93.4753 70.4841C92.225 71.7966 90.4248 70.2918 89.5377 69.6112C88.7151 69.0838 87.7909 70.4403 88.5541 71.0562C94.9643 75.8039 97.5657 67.1522 92.545 66.2892C91.9922 66.1941 91.7869 66.8094 92.0456 66.9952ZM80.5583 61.4724C80.6674 60.1177 82.7298 59.8101 82.9349 61.1506C83.1186 62.3514 82.9024 63.4545 82.3617 64.5357C81.8451 65.5685 80.5466 65.0866 80.4484 64.1461C80.3167 62.8854 80.4904 62.3151 80.5583 61.4724ZM96.2579 60.8716C96.5455 60.4948 96.9606 60.2377 97.458 60.383C99.0121 60.8373 98.554 63.0444 98.0083 64.1188C97.7117 64.7022 96.7531 64.8501 96.3199 64.3364C95.6138 63.4987 95.2757 61.8258 96.1733 61.0007C96.1977 60.958 96.2247 60.915 96.2579 60.8716ZM82.3401 55.5442L82.5856 55.5012C83.345 55.3698 84.2892 55.2436 84.8264 55.8543C85.1114 56.1782 85.2094 56.7802 84.8264 57.0902C84.1528 57.6357 83.408 57.4243 82.6007 57.4705C81.9354 57.5087 81.296 57.6188 80.6551 57.8021C79.2492 58.204 78.1037 58.9379 76.9029 59.7437C76.7453 59.8494 76.5845 59.6478 76.6597 59.5004C77.3528 58.1422 78.6961 57.0265 80.0416 56.3464C80.7597 55.9834 81.5456 55.6823 82.3401 55.5442ZM94.8415 54.9355L95.0294 54.974C97.0741 55.4016 99.7306 56.2557 100.699 58.2648C100.736 58.5489 100.697 58.6098 100.665 58.6496L100.655 58.6628C100.628 58.6968 100.608 58.7436 100.484 58.7823C100.45 58.7741 100.416 58.7655 100.381 58.7564C99.9371 58.64 99.5859 58.4797 99.246 58.3134L98.8774 58.1317C98.4497 57.922 98.0183 57.7198 97.5611 57.5706C96.5854 57.2522 95.5817 57.0279 94.5626 56.9082C94.3417 56.8823 94.129 56.8077 93.9611 56.6798C93.8018 56.5585 93.6802 56.3905 93.6247 56.1673C93.5528 55.8783 93.5734 55.6595 93.7284 55.3988C93.845 55.2031 94.0117 55.0674 94.2032 54.9894C94.3984 54.91 94.6206 54.8913 94.8415 54.9355Z" fill="black"/>
<path fill-rule="evenodd" clip-rule="evenodd" d="M103.071 68.1633C102.19 69.3464 100.558 69.7233 99.0529 69.5931C95.806 69.2805 94.7842 65.5916 94.6777 62.7244C96.855 63.3371 94.4936 58.9976 101.936 58.5204C104.56 58.3017 103.837 59.8868 104.996 61.045C104.972 63.4757 104.567 66.1169 103.071 68.1633ZM87.6054 65.371C85.6885 74.3514 75.1915 72.2153 74.0889 64.12C75.1071 63.4011 74.8389 61.6259 76.1038 60.9827C78.1086 59.7013 80.6147 59.7561 82.8913 59.7862C85.8014 59.9862 86.6306 61.1921 88.1255 62.5078C88.0535 63.3866 87.8462 64.4281 87.6054 65.371ZM107.229 57.034C107.121 57.0161 107.014 56.9992 106.906 56.9834C106.822 56.9357 106.723 56.8989 106.608 56.8768C106.346 56.8102 106.086 56.7653 105.826 56.7411C102.095 55.9012 93.464 57.0938 93.1078 60.2787C91.9198 60.6755 90.8917 60.3202 89.5147 60.3555C88.4666 55.9728 70.3458 56.5914 69.4743 59.2337C69.471 59.2328 69.4677 59.232 69.4643 59.231C68.6269 58.9717 67.3925 59.0342 66.434 58.9932C64.3875 58.9502 62.3387 59.1327 60.3364 59.5645C56.5869 60.1606 51.4697 60.8585 54.0774 65.5425C54.0779 65.5433 54.0783 65.5442 54.079 65.545L54.0793 65.5446C54.5288 66.0054 55.2915 65.6343 55.3198 65.0105C54.4431 62.7915 56.4233 62.525 57.9469 61.8873C61.738 60.5248 65.5977 60.3359 69.5186 60.7574C69.8136 61.1048 70.2612 61.4078 70.7342 61.5663C73.3558 62.0016 71.9742 63.947 73.6313 64.23C73.3269 71.0114 81.5569 74.713 86.3255 70.2551C88.2295 68.393 88.6834 65.6343 89.1248 63.1478C89.3582 63.0953 89.5066 62.9677 89.5933 62.7986C90.1547 62.238 90.5073 61.7203 91.6173 61.5663C92.7273 61.4125 93.5818 61.7213 93.6974 61.8159C93.7266 61.8746 93.7578 61.9335 93.7942 61.9923C93.8449 62.0801 93.9139 62.1501 93.9924 62.2052C92.8963 68.958 98.1366 73.2287 103.427 69.7263C105.726 67.5631 106.211 64.2513 106.307 61.2953C106.619 61.1072 106.816 60.7426 106.708 60.2842C106.56 59.6524 106.908 59.1054 107.464 58.8307C108.185 58.474 108.057 57.1712 107.229 57.034Z" fill="black"/>
</svg>
