<svg width="150" height="202" viewBox="0 0 150 202" fill="none" xmlns="http://www.w3.org/2000/svg">
<path fill-rule="evenodd" clip-rule="evenodd" d="M73.3136 77.3842C75.0708 76.8976 77.0909 76.9542 78.8938 77.0786C80.7247 77.2051 82.6893 77.422 84.4073 78.1059C85.9009 78.7004 87.1603 79.7002 87.9277 81.1328C88.5586 82.3104 88.8545 83.6021 89.04 84.9139C89.1158 85.4508 89.1793 85.989 89.2397 86.5276L89.3638 87.6483C89.4125 88.0768 89.4549 88.3981 89.5401 88.8761C89.7759 90.1985 90.1042 91.3033 90.8372 92.2654C92.6124 94.5946 95.511 95.3742 98.147 96.3684C99.8338 97.0045 101.169 98.1488 101.54 99.9876C101.898 101.761 115.492 116.644 116.826 117.898L116.863 117.932C117.898 118.865 117.776 120.617 117.921 121.897C118.076 123.269 118.224 124.642 118.364 126.016C118.649 128.806 118.903 131.6 119.126 134.396C119.996 145.33 120.391 156.303 120.307 167.272L120.302 167.893C120.289 169.285 120.299 170.684 120.237 172.074C120.177 173.411 119.773 174.749 118.535 175.447C117.388 176.094 115.937 176.037 114.655 176.101L114.579 176.105C113.203 176.181 111.827 176.242 110.451 176.293C104.856 176.5 99.2565 176.523 93.6586 176.497C82.5533 176.446 71.4369 176.202 60.3421 176.824C57.514 176.982 48.4977 176.019 45.6784 176.293C42.9838 176.556 45.2958 177.878 43.6312 177.791C38.1566 177.504 32.9637 176.282 27.7185 174.81C27.0632 174.626 26.5622 173.99 26.5704 173.303C26.6678 165.75 26.881 158.199 27.214 150.653C27.5107 143.932 27.9017 137.214 28.3866 130.503C28.5975 127.586 28.8261 124.671 29.0724 121.756L29.179 120.508C29.3182 118.897 29.3982 117.257 29.7147 115.669C30.0279 114.098 30.7383 112.736 31.7684 111.519C32.6928 110.427 43.158 101.879 45.6784 100.261C48.0909 98.7122 50.6242 97.4054 53.1009 95.9698C54.1313 95.3725 55.1209 95.5874 56.0011 94.8543C56.4652 94.4678 63.1988 91.8637 65.0155 91.0044L65.069 90.9789C66.4595 90.3115 67.7391 89.5879 68.6999 88.4339C69.022 88.0471 69.6537 85.61 69.6549 84.8313C69.6571 83.4402 69.5517 81.9749 69.9712 80.6275C70.4727 79.0162 71.6817 77.836 73.3136 77.3842ZM76.2929 113.25L65.5332 134.212H72.5298L67.5146 145.859H78.5282L74.6213 162.173L96.9636 134.212H88.5796L96.9636 123.203H91.1486L96.9636 113.881L76.2929 113.25Z" fill="white"/>
<path fill-rule="evenodd" clip-rule="evenodd" d="M112.437 125.04C112.412 125.065 112.386 125.09 112.361 125.116C112.39 125.075 112.415 125.033 112.437 124.992V125.04ZM91.5259 118.934C90.5596 120.169 89.5371 122.682 88.5983 123.939C88.4636 124.119 88.3315 124.3 88.2008 124.481C87.8111 125.027 88.3315 125.861 88.9722 125.826C90.2524 125.758 91.5312 125.663 92.81 125.566C90.1831 128.495 88.002 132.132 85.5896 135.235C85.4261 135.443 85.2653 135.653 85.1044 135.862C84.4938 136.658 85.1057 137.019 85.94 136.805C86.1126 136.76 86.2852 136.716 86.4578 136.673C87.6712 136.362 88.8833 136.05 90.0968 135.74C90.7675 135.567 91.4423 135.354 92.1222 135.222C92.402 135.169 92.6701 135.213 92.9342 135.227C92.8074 135.421 92.6295 135.77 92.5942 135.824C92.198 136.441 91.7992 137.056 91.3978 137.668C90.6159 138.859 89.83 140.048 89.0154 141.216C85.838 145.77 82.4108 150.119 79.0138 154.507C78.1586 155.611 77.2917 156.704 76.4104 157.785C76.4143 157.779 76.4169 157.772 76.4208 157.766C77.2145 156.219 78.0082 154.675 78.8019 153.128C80.3109 150.191 81.8054 147.245 83.3301 144.315C83.4085 144.162 83.4883 144.01 83.568 143.857C83.8845 143.25 83.3654 142.619 82.7155 142.747C79.5452 143.372 76.4055 144.14 73.3049 145.049C73.1654 145.198 72.9602 145.242 72.777 145.206C72.6524 145.243 72.5273 145.279 72.4026 145.317C72.4404 145.238 72.4795 145.161 72.5176 145.083C72.3909 144.973 72.3279 144.802 72.4102 144.589C74.1944 139.984 76.6406 135.538 79.539 131.466C79.4224 131.468 79.306 131.47 79.189 131.473C76.0076 131.56 72.8865 132.016 69.8202 132.883C69.8058 132.599 69.9771 132.16 70.0699 131.951C70.4413 131.115 70.8676 130.298 71.2664 129.476C72.0823 127.786 72.8982 126.097 73.7141 124.407C74.5118 122.756 75.3029 121.1 76.0534 119.426C76.447 118.548 76.8406 117.669 77.2328 116.79C77.5532 116.074 77.8056 115.353 78.071 114.621C78.8503 114.85 88.8572 114.9 91.2893 115.068C91.8855 115.11 92.4831 115.148 93.0807 115.181C93.5566 115.208 94.2274 115.313 94.5556 114.883L94.6798 114.987C93.5998 116.28 92.5642 117.607 91.5259 118.934ZM52.457 94.9222C52.5067 94.8999 52.5551 94.8777 52.6035 94.8555C52.6283 94.8908 52.6584 94.9235 52.6898 94.9562C52.7682 95.036 52.8454 95.1222 52.9265 95.2008C52.7695 95.1091 52.6126 95.0162 52.457 94.9222ZM122.392 168.436C122.302 166.53 122.201 164.624 122.094 162.718C121.882 158.993 121.663 155.267 121.372 151.547C120.78 144.009 120.228 136.473 119.34 128.962C118.967 125.813 118.447 122.688 117.925 119.562C117.992 119.501 118.06 119.441 118.126 119.383C118.055 120.238 119.216 120.78 119.791 119.927C119.834 119.863 119.876 119.799 119.918 119.732C120.416 118.926 121.564 114.973 121.484 114.638C121.341 114.035 120.94 113.499 120.628 112.968C120.355 112.503 120.079 112.039 119.799 111.579C119.241 110.656 118.665 109.743 118.062 108.85C116.814 107 115.449 105.224 113.84 103.671C112.176 102.062 110.265 100.74 108.292 99.5402C107.344 98.9645 106.366 98.4427 105.37 97.9559C104.386 97.4772 103.31 96.9474 102.251 96.6753C102.191 96.6596 102.13 96.7435 102.184 96.7879C102.466 97.0103 102.76 97.2195 103.059 97.4209C102.249 97.1398 101.413 96.9369 100.571 96.865C98.9404 96.292 97.2902 95.7676 95.6675 95.1697C94.0723 94.5811 92.5006 93.9193 91.4401 92.5249C90.534 91.3331 89.9613 89.8747 89.5206 88.4541C89.0368 86.8883 88.8446 85.2609 88.3974 83.6925C88.3621 83.5656 88.1542 83.5513 88.1267 83.6925C87.8077 85.3381 87.8221 87.1879 88.0038 88.849C88.1947 90.5914 88.6851 92.3012 89.752 93.7179C90.9916 95.3647 92.6732 96.2816 94.5652 97.0128C96.0912 97.6042 97.6367 98.2058 99.1993 98.7342C98.9953 98.8678 98.7887 99.0011 98.5756 99.128C97.7283 99.6317 96.847 100.079 95.946 100.481C94.3011 101.214 92.5686 101.764 90.8256 102.21C87.5815 103.037 84.255 103.457 80.9102 103.512C74.218 103.623 67.4513 102.22 61.3305 99.5127C59.6072 98.7501 57.9243 97.9115 56.2584 97.0312C55.738 96.7564 55.215 96.4791 54.6946 96.1939C54.7377 96.1915 54.7822 96.1875 54.8253 96.1835C55.9878 96.0737 57.1358 95.85 58.2603 95.5335C60.563 94.8834 62.7702 93.8696 64.9381 92.8714C66.7766 92.0251 68.67 91.061 69.7932 89.2978C70.3934 88.3547 70.6693 87.248 70.8929 86.1649C71.1426 84.9589 71.4368 83.7475 71.6186 82.5298C71.6826 82.1033 71.5872 81.5265 71.1295 81.325C70.9465 81.2451 70.7961 81.1797 70.5908 81.1797C70.1371 81.1797 69.6716 81.5095 69.563 81.9621C69.295 83.0909 69.1329 84.2512 68.9223 85.3917C68.7406 86.378 68.5745 87.4076 68.0423 88.2748C67.1126 89.7936 65.2899 90.5705 63.7496 91.3097C61.7973 92.2463 59.8438 93.1592 57.8158 93.9193C56.9227 94.254 56.0139 94.5576 55.0921 94.8061C55.1287 94.5799 55.0973 94.3417 54.9639 94.1625C54.7417 93.8668 54.4893 93.6706 54.2029 93.4445C53.8917 93.1984 53.4733 93.0704 53.1059 93.1789C53.1059 93.1801 53.1046 93.1789 53.1046 93.1789C52.9555 93.1462 52.7908 93.1592 52.6208 93.2363C52.0951 93.4772 51.5708 93.7203 51.0464 93.9677C43.503 97.5179 36.1741 101.688 30.6234 108.039C29.8232 108.954 29.0739 109.917 28.3717 110.91C27.6892 111.874 26.8445 112.921 26.6562 114.116C26.6405 114.216 26.7856 114.261 26.8105 114.159C26.8549 113.975 26.9151 113.794 26.9896 113.619C26.834 114.163 26.8432 114.741 27.0629 115.31C27.3231 115.98 27.8003 116.424 28.4031 116.6C27.7977 119.254 27.3911 121.944 27.0642 124.663C26.5947 128.581 26.2613 132.508 26.0103 136.445C25.5081 144.303 25.2845 152.2 25.4467 160.072C25.4925 162.297 25.5683 164.522 25.6834 166.746C25.7409 167.858 25.8037 168.968 25.8756 170.08C25.9462 171.174 25.8886 172.379 26.8419 172.955C26.8536 172.999 26.8667 173.04 26.8785 173.083C27.1099 173.891 28.1416 173.632 28.2384 172.899C28.2397 172.891 28.241 172.882 28.2423 172.874C29.0216 172.279 28.9039 171.288 28.8464 170.336C28.7849 169.31 28.7196 168.284 28.6646 167.259C28.56 165.291 28.4711 163.324 28.3914 161.355C28.2358 157.462 28.1481 153.564 28.1194 149.669C28.0618 141.876 28.5117 134.096 29.0451 126.326C29.2687 123.075 29.5303 119.839 29.61 116.59C30.0271 116.373 30.1553 115.755 29.9461 115.339C34.8861 118.711 39.4705 122.743 43.1513 127.429C43.7659 128.211 44.353 129.017 44.9152 129.837C45.0983 130.104 45.2722 130.381 45.4474 130.658C45.2774 131.431 45.1453 132.217 44.9727 132.959C44.6171 134.491 44.4667 136.08 44.2627 137.637C43.8482 140.799 43.5566 143.989 43.3095 147.168C42.8231 153.445 42.4622 159.721 42.3484 166.017C42.2857 169.578 42.202 173.161 42.3589 176.72C42.2425 177.416 42.8689 178.096 43.5239 178.184C44.098 178.261 44.6341 177.963 44.8851 177.483C46.6739 177.705 48.5097 177.807 50.2867 177.82C52.6809 177.837 55.0751 177.835 57.4693 177.783C62.2589 177.679 67.0473 177.556 71.8356 177.413C81.4123 177.131 90.989 176.847 100.567 176.563C103.223 176.484 105.878 176.406 108.534 176.328C109.732 176.292 111.225 176.638 112.169 175.713C112.331 175.553 112.457 175.366 112.546 175.166C112.828 175.237 113.175 175.167 113.36 174.949C113.707 174.539 113.962 174.16 113.949 173.592C113.937 173.061 113.791 172.501 113.715 171.976C113.571 170.988 113.432 170 113.3 169.011C113.04 167.057 112.797 165.1 112.573 163.142C112.116 159.138 111.7 155.125 111.375 151.108C110.732 143.164 110.55 135.178 110.573 127.209C110.575 126.496 110.579 125.783 110.583 125.07C110.613 125.108 110.646 125.143 110.681 125.173C110.71 125.198 110.739 125.223 110.767 125.249C111.102 125.544 111.659 125.695 112.061 125.417C112.554 125.097 112.894 124.619 113.278 124.186C113.682 123.732 114.098 123.29 114.518 122.85C115.331 122 116.172 121.185 117.029 120.379C117.099 120.315 117.168 120.25 117.237 120.187C117.243 122.723 117.24 125.259 117.308 127.794C117.41 131.56 117.614 135.322 117.801 139.082C118.172 146.529 118.557 153.974 118.927 161.419C119.03 163.498 119.128 165.578 119.231 167.656C119.284 168.696 119.335 169.736 119.384 170.776C119.411 171.338 119.437 171.902 119.463 172.465C119.492 173.069 119.454 173.715 119.658 174.29C120.122 175.603 122.128 175.789 122.513 174.29C122.755 173.349 122.57 172.261 122.526 171.295C122.482 170.343 122.438 169.389 122.392 168.436Z" fill="black"/>
<path fill-rule="evenodd" clip-rule="evenodd" d="M102.262 50.7217C100.915 45.8574 95.7665 43.7349 91.1296 43.3981C78.575 42.0925 65.796 49.0939 60.2302 60.4469C55.7749 69.0676 55.6354 78.1235 65.2123 83.0457C65.7354 83.3342 66.2815 83.6425 66.8393 83.9224C67.3239 84.3732 67.823 84.8063 68.3678 85.1699C73.5828 88.6005 79.9835 90.0843 86.1864 89.7625C95.3448 89.5778 98.6143 83.3608 100.615 75.3882C102.725 67.4508 103.905 58.8381 102.262 50.7217Z" fill="white"/>
<path fill-rule="evenodd" clip-rule="evenodd" d="M108.274 96.5718C107.846 95.2781 107.31 94.0236 106.809 92.7561C106.703 92.1243 106.633 91.4872 106.615 90.845C106.545 88.5506 106.974 86.2366 107.455 84.0023C108.433 79.462 109.47 74.9687 109.991 70.3446C110.92 62.0735 110.367 53.4728 106.607 45.9226C103.348 39.3821 97.8262 34.0333 90.6934 32.0293C88.5848 31.4366 86.4146 31.1098 84.2295 30.9792C83.959 30.9362 83.6888 30.8941 83.42 30.8535C80.3806 30.3951 77.3039 30.1668 74.2319 30.3644C69.1376 30.6923 64.0908 32.1569 59.848 35.0535C55.5763 37.9702 52.5411 42.0598 51.1288 47.0479C49.6596 52.2371 49.7842 57.857 47.2471 62.7221C46.4976 64.1594 45.6227 65.5258 44.7884 66.915C42.5745 69.3861 40.1709 72.1333 39.6442 75.531C38.9944 79.7301 41.4095 83.279 43.6951 86.5557C45.7611 89.5146 48.5645 93.6011 46.4384 97.2441C45.4355 98.963 43.8285 100.249 42.6216 101.816C41.3702 103.443 40.3935 105.311 39.8888 107.307C38.9408 111.056 39.8129 114.964 42.3483 117.894C43.669 119.419 45.3649 120.427 47.2007 121.214C49.0797 122.017 50.9156 122.779 52.469 124.146C53.179 124.77 53.8288 125.454 54.4434 126.171C55.0161 127.067 55.683 127.904 56.4348 128.671C57.2625 129.515 58.8839 128.36 58.1242 127.367C58.068 127.294 58.0131 127.222 57.9569 127.148C57.4011 126.424 56.8428 125.699 56.2583 124.998C54.5153 122.235 53.8445 118.852 54.7115 115.625C54.9364 114.787 55.2528 113.992 55.6465 113.241C55.7301 113.459 55.8216 113.675 55.9183 113.888C56.2949 114.715 56.8233 115.695 57.4953 116.532C57.5214 117.106 57.6079 117.675 57.7751 118.232C58.8107 121.687 62.2732 123.392 65.3957 124.718C65.7016 124.849 66.0037 124.974 66.3005 125.099C67.1164 125.44 67.9794 124.277 67.4708 123.576C67.3374 123.392 67.208 123.203 67.0851 123.012C65.6206 120.744 64.9236 118.031 65.3185 115.328C65.7343 112.47 67.4185 110.105 69.0909 107.836C70.7332 105.604 72.4971 103.327 73.232 100.605C74.0453 97.5973 73.3052 94.5992 72.0499 91.8312C70.9006 89.2984 69.3695 86.9639 68.0856 84.5007C68.5252 84.9393 68.9788 85.3635 69.4462 85.7727C69.9717 86.2329 70.5116 86.7595 71.1344 87.0839C71.5949 87.3237 72.0562 86.7497 71.6915 86.3616C71.2122 85.8517 70.5988 85.4577 70.0665 85.0026C69.5555 84.5659 69.0592 84.1116 68.5753 83.645C67.9794 83.0706 67.4126 82.4691 66.866 81.8495C66.4287 80.7349 66.0683 79.5903 65.7749 78.4286C65.3761 76.8562 65.0073 75.1832 65.0361 73.5533C65.0649 71.8816 65.9331 70.7108 67.089 69.5885C67.5785 69.1133 68.0728 68.6437 68.5662 68.1732C69.6169 67.4015 70.6081 66.5395 71.5708 65.6798C73.2864 64.1479 74.9457 62.5286 76.5303 60.862C76.9554 60.4149 77.377 59.9628 77.7933 59.5055C79.248 58.0122 80.6354 56.4529 81.9431 54.8398C83.2428 54.3663 84.4915 53.7397 85.6631 53.0019C85.1532 53.5186 84.638 54.0288 84.1254 54.5429C82.9839 55.6887 81.7981 56.8399 80.4747 57.7737C80.3387 57.8706 80.421 58.076 80.5885 58.0433C82.2713 57.7071 83.8456 57.1473 85.3153 56.2552C86.8099 55.3473 88.1266 54.1138 89.3557 52.8764C90.0514 52.5624 90.7223 52.1582 91.3354 51.7606C91.3681 51.7396 91.4008 51.7174 91.4335 51.6963C90.8294 53.6115 89.943 55.7803 88.0534 56.4631C87.9919 56.4854 87.9958 56.5874 88.0691 56.5835C89.6609 56.4901 90.9402 55.7736 91.9502 54.7294C92.7625 54.1447 93.5376 53.525 94.2773 52.8505C94.9939 52.1969 95.6726 51.4961 96.3173 50.7703C95.4163 52.5557 94.4072 54.3015 93.4118 56.0275C93.3595 56.1191 93.4694 56.2434 93.5635 56.1793C95.6648 54.7561 97.2587 52.9195 98.5624 50.748C98.7549 50.4283 98.9386 50.1033 99.1177 49.7759C98.9825 50.2883 98.8349 50.7974 98.6768 51.3039C98.3906 52.2207 98.1088 53.1397 97.822 54.056C97.6675 54.5501 97.479 55.0329 97.2723 55.5074C97.1243 55.847 96.9305 56.186 96.9004 56.5584C96.8985 56.5831 96.9254 56.5993 96.947 56.5939C97.7849 56.3844 98.5651 55.4284 99.1622 54.8363C99.4947 54.5065 99.8061 54.1446 100.093 53.7628C100.146 55.9614 100.182 58.1601 100.134 60.3652C100.044 64.415 99.7825 68.4636 99.4476 72.5002C99.1521 76.0688 98.9337 79.8138 96.9436 82.9153C95.4033 85.3157 92.9058 86.9768 90.1926 87.7814C89.9533 87.8534 89.7127 87.9174 89.4708 87.975C85.5428 88.9077 81.6306 87.8507 78.1576 85.9828C77.1142 85.4216 76.2224 86.9441 77.2292 87.5707C80.9977 89.9175 85.7743 90.7168 90.0396 89.6651C89.905 94.705 92.388 99.4862 94.858 103.761C96.2401 106.154 97.6235 108.53 98.6004 111.124C99.4293 113.327 99.9929 115.612 100.182 117.963C100.407 120.733 100.186 123.52 99.7993 126.267C99.7784 126.416 99.7575 126.566 99.7353 126.715C99.649 127.305 100.179 127.8 100.753 127.498C103.291 126.163 104.385 123.319 105.051 120.69C105.673 118.227 106.095 115.716 106.331 113.187C106.676 114.141 106.956 115.118 107.173 116.114C107.203 116.257 107.232 116.4 107.26 116.542C107.425 117.376 108.686 117.317 108.887 116.542C108.924 116.402 108.959 116.262 108.992 116.121C110.031 111.916 110.311 107.53 109.762 103.23C109.473 100.968 108.99 98.7367 108.274 96.5718Z" fill="black"/>
<path fill-rule="evenodd" clip-rule="evenodd" d="M89.1488 79.9925C88.2698 79.6338 87.4855 79.0354 86.9121 78.2711C86.7128 78.0053 86.6611 77.7247 86.7029 77.4681C86.7499 77.1795 86.9206 76.9179 87.1534 76.7425C87.3868 76.5665 87.6789 76.4797 87.9612 76.524C88.2066 76.5624 88.4508 76.6968 88.6441 76.9755L88.6845 77.0312C89.0253 77.4926 89.4696 77.8711 89.9757 78.1151C90.4635 78.3503 91.0091 78.46 91.5737 78.3962C92.6491 78.2747 93.3902 77.6929 94.178 76.9029C94.2757 76.8031 94.3734 76.7002 94.4716 76.5957C94.5336 76.501 94.6196 76.4401 94.7152 76.4081C94.8212 76.3726 94.9412 76.3746 95.0511 76.413C95.1572 76.45 95.2519 76.5202 95.3155 76.6135C95.3759 76.7022 95.4101 76.8118 95.399 76.9378C95.3269 77.7566 94.899 78.4873 94.2912 79.0611C93.6162 79.6983 92.7214 80.1391 91.8789 80.2937C90.9508 80.464 90.0051 80.342 89.1488 79.9925ZM92.3171 67.3623C93.3045 67.9628 94.809 69.3628 93.7468 70.8513C92.4964 72.1638 90.6963 70.659 89.8092 69.9784C88.9866 69.4509 88.0624 70.8075 88.8256 71.4234C95.2358 76.1711 97.8372 67.5193 92.8165 66.6564C92.2637 66.5613 92.0584 67.1766 92.3171 67.3623ZM80.8298 61.8396C80.9389 60.4849 83.0013 60.1772 83.2064 61.5178C83.3901 62.7186 83.1739 63.8217 82.6332 64.9028C82.1165 65.9357 80.8181 65.4538 80.7199 64.5133C80.5882 63.2526 80.7619 62.6823 80.8298 61.8396ZM96.5294 61.2388C96.817 60.862 97.2321 60.6049 97.7295 60.7502C99.2836 61.2045 98.8255 63.4116 98.2797 64.486C97.9832 65.0694 97.0246 65.2173 96.5914 64.7036C95.8853 63.8659 95.5472 62.193 96.4448 61.3679C96.4691 61.3252 96.4962 61.2822 96.5294 61.2388ZM82.6116 55.9114L82.857 55.8684C83.6165 55.737 84.5607 55.6107 85.0979 56.2215C85.3828 56.5454 85.4809 57.1474 85.0979 57.4574C84.4243 58.0029 83.6795 57.7915 82.8722 57.8377C82.2069 57.8759 81.5675 57.986 80.9266 58.1693C79.5207 58.5712 78.3751 59.3051 77.1744 60.1109C77.0168 60.2165 76.856 60.015 76.9312 59.8675C77.6243 58.5094 78.9676 57.3937 80.3131 56.7136C81.0312 56.3506 81.8171 56.0495 82.6116 55.9114ZM95.113 55.3027L95.3009 55.3412C97.3455 55.7688 100.002 56.6229 100.97 58.632C101.007 58.9161 100.968 58.977 100.937 59.0168L100.926 59.03C100.9 59.064 100.879 59.1108 100.756 59.1495C100.722 59.1413 100.687 59.1327 100.652 59.1236C100.209 59.0072 99.8574 58.8469 99.5175 58.6806L99.1489 58.4989C98.7212 58.2892 98.2898 58.087 97.8326 57.9378C96.8568 57.6194 95.8532 57.3951 94.834 57.2754C94.6131 57.2494 94.4004 57.1749 94.2326 57.047C94.0733 56.9257 93.9516 56.7577 93.8962 56.5344C93.8243 56.2455 93.8449 56.0267 93.9999 55.766C94.1164 55.5702 94.2832 55.4345 94.4747 55.3566C94.6698 55.2772 94.8921 55.2585 95.113 55.3027Z" fill="black"/>
</svg>
