<svg width="150" height="202" viewBox="0 0 150 202" fill="none" xmlns="http://www.w3.org/2000/svg">
<path fill-rule="evenodd" clip-rule="evenodd" d="M27.3468 169.895C27.1688 169.901 27.2249 169.849 27.2903 169.837C27.3091 169.856 27.328 169.876 27.3468 169.895ZM32.6015 173.804C37.5738 174.393 42.5523 173.854 47.5002 173.313C57.5241 172.57 67.4775 174.735 77.5211 174.075C90.0728 173.546 102.659 172.552 115.169 174.227C118.629 174.306 124.148 175.24 122.893 169.882C121.245 156.105 119.041 142.398 116.68 128.727C114.679 121.063 114.535 107.807 109.056 102.478C108.255 101.746 105.382 99.3794 104.623 99.0617C100.847 97.6552 94.0392 96.5577 91.2307 93.5763C88.9558 89.7256 90.014 84.4708 86.4766 81.3707C83.3763 78.8385 76.6096 79.3737 73.295 81.2752C70.6799 82.9715 70.2702 86.2663 68.6407 88.7029C68.2388 89.2867 67.284 90.6941 66.7449 91.1481C65.4325 92.4121 60.8231 93.74 59.492 93.984C51.9804 95.5238 48.2349 96.4753 42.3269 101.469C26.8899 117.235 29.0781 145.119 24.8066 165.735C24.6318 168.002 23.2545 171.077 25.7117 172.537C27.8281 173.551 30.3164 173.44 32.6015 173.804Z" fill="white"/>
<path fill-rule="evenodd" clip-rule="evenodd" d="M89.5085 88.3347C89.5269 88.2811 89.6131 88.272 89.6262 88.3347C89.8368 89.2987 90.2316 90.3557 90.6317 91.2596C91.0384 92.1753 91.5941 93.0164 92.2962 93.7306C93.7673 95.2271 95.6593 95.9099 97.7345 95.9112L97.7841 95.9125C97.7937 95.8427 97.8045 95.773 97.8145 95.7032L97.8286 95.5986C98.0182 94.1649 99.7194 94.2068 100.051 95.2885C100.22 95.3422 100.389 95.3958 100.556 95.4521L100.59 95.4641C100.871 95.5714 101.826 96.0468 102.001 95.9203C102.387 95.6429 102.827 95.9609 102.974 96.3154C103.213 96.8958 103.253 97.6132 103.331 98.2429L103.341 98.3245L103.353 98.4226C108.812 99.842 111.876 105.306 113.44 110.339C114.287 113.068 114.842 115.883 115.399 118.682C115.995 121.677 116.544 124.679 117.126 127.674C118.273 133.577 119.358 139.494 120.301 145.433L120.574 147.157C121.438 152.618 122.279 158.076 122.986 163.562C123.368 166.519 123.726 169.479 124.072 172.442C124.134 172.971 124.195 173.499 124.256 174.028L124.346 174.822C124.427 175.533 124.565 176.237 124.213 176.903C123.451 178.347 121.141 178.336 121.011 176.487C120.985 176.119 121.109 175.838 121.314 175.642L121.311 175.611C121.309 175.592 121.307 175.579 121.306 175.572C121.238 175.205 121.22 174.816 121.178 174.445C121.086 173.652 120.998 172.86 120.907 172.066C120.733 170.553 120.558 169.041 120.376 167.53C120.009 164.466 119.621 161.405 119.209 158.346L118.801 155.322C117.436 145.243 116.013 135.165 114.141 125.165C113.631 122.443 113.106 119.725 112.569 117.008C112.059 114.435 111.486 111.874 110.631 109.39C109.235 105.332 106.793 101.532 103.404 98.8688C103.456 99.3776 103.494 99.8891 103.543 100.398C103.667 101.705 103.799 103.01 103.932 104.316C104.417 109.046 105.075 113.768 106.197 118.393C106.753 120.685 107.43 122.947 108.255 125.156C108.662 126.244 109.105 127.318 109.592 128.373C110.073 129.415 110.916 130.53 110.967 131.691C110.991 132.229 110.428 132.706 109.908 132.649C110.151 134.789 110.289 136.951 110.434 139.086C110.645 142.178 110.814 145.276 111.061 148.366C111.503 153.9 112.058 159.427 112.638 164.948C112.753 166.043 112.878 167.137 113.002 168.23L113.106 169.148C113.176 169.744 113.281 170.457 112.965 170.985C113.248 171.667 113.441 172.366 113.554 173.096C113.696 174.004 113.177 175.022 112.118 174.983C111.998 174.978 111.877 174.968 111.757 174.955C110.775 175.183 109.796 175.383 108.776 175.389C107.473 175.399 106.168 175.372 104.866 175.363C102.346 175.346 99.8266 175.329 97.3069 175.308C88.1852 175.235 79.0596 175.239 69.9393 175.092L66.2902 175.034C62.9449 174.981 59.5991 174.919 56.2555 174.797C53.9528 174.713 51.6503 174.628 49.3488 174.535L48.8803 174.517C46.8496 174.443 44.8166 174.405 42.8083 174.094C42.758 174.086 42.7362 174.034 42.744 173.988L42.7469 173.975L42.6593 173.956C42.6083 174.175 41.5491 173.252 41.557 172.638C41.1176 172.067 41.3229 171.154 41.37 170.492C41.4158 169.847 41.4733 169.201 41.5243 168.556C41.6328 167.178 41.7257 165.8 41.8368 164.422C42.2853 158.868 42.6724 153.3 42.9234 147.734C43.0502 144.928 43.1522 142.121 43.2595 139.315C43.3077 138.037 43.375 136.759 43.5002 135.487L43.5327 135.169C43.67 133.88 43.657 132.493 44.1316 131.278C44.1381 131.261 44.1604 131.261 44.1669 131.278C44.6468 132.461 44.6926 133.835 44.7893 135.133C44.8063 135.128 44.8233 135.125 44.8416 135.121C45.5046 134.806 46.174 134.522 46.8017 134.132C46.8867 134.08 46.9691 134.025 47.0527 133.971C48.04 130.95 49.1841 127.978 50.2367 124.976C53.6377 115.268 55.5154 104.93 55.9312 94.6515C53.337 96.3246 50.5116 97.6262 47.765 99.0239L47.5078 99.1553C44.8024 100.539 42.2121 102.11 40.286 104.511C38.6071 106.601 37.51 109.148 36.4836 111.603C35.3813 114.241 34.3875 116.927 33.4788 119.637C31.6351 125.137 30.2072 130.77 29.0932 136.462C27.9935 142.079 27.2076 147.738 26.682 153.436C26.4139 156.342 26.1694 159.251 25.9641 162.165C25.8595 163.639 25.7667 165.114 25.6804 166.591C25.6385 167.308 25.6072 168.026 25.5601 168.743C25.5313 169.156 25.5261 169.583 25.3901 169.975C25.2763 170.302 25.075 170.576 24.8867 170.865C24.5428 171.392 23.6746 171.487 23.3516 170.865L23.2117 170.595C23.0266 170.236 22.8576 169.874 22.8325 169.46C22.8089 169.067 22.8573 168.658 22.8795 168.264C22.9227 167.468 22.9724 166.67 23.0221 165.873C23.1267 164.197 23.2431 162.522 23.3738 160.847C23.634 157.493 23.9688 154.149 24.3898 150.81C25.8713 139.086 28.0105 127.423 32.0927 116.296C33.1022 113.546 34.228 110.817 35.499 108.176C36.7281 105.622 38.2828 103.212 40.5397 101.454C42.6172 99.8349 45.0321 98.7515 47.4315 97.6999L47.7314 97.5685C50.4211 96.3926 53.1055 95.1263 55.9142 94.2525C55.8514 94.2604 55.79 94.2682 55.7365 94.2865C55.6749 94.3062 55.6384 94.2264 55.6763 94.1832C55.8357 94.0066 55.9024 93.8248 56.0856 93.6508C56.2121 93.5305 56.3437 93.4168 56.479 93.3072L56.6738 93.1521C57.0301 92.8692 57.4047 92.5801 57.8533 92.4814C58.4876 92.3427 58.7988 92.9196 58.6209 93.3709C58.7124 93.2518 58.9582 93.2872 59.0223 93.4507C61.1092 98.8348 62.4795 104.534 65.2882 109.621C67.362 113.379 70.1446 116.85 73.8372 119.119C75.8208 120.338 78.0908 121.275 80.4352 121.423C82.5404 121.555 84.5658 121.02 86.356 119.915C89.8264 117.773 92.0924 114.014 93.7084 110.371C95.4854 106.36 96.7538 102.087 97.4991 97.7543C95.1376 97.787 92.6454 96.7091 91.075 94.9524C90.2486 94.0275 89.6327 92.9013 89.3202 91.7005C89.0051 90.4892 89.1058 89.4937 89.5085 88.3347ZM69.6976 85.1892C69.9854 84.6751 70.6235 84.505 71.1453 84.7143C71.7244 84.9472 71.8984 85.5096 71.816 86.0813C71.7205 86.751 71.2903 87.4745 70.9557 88.0591C70.6052 88.6713 70.1541 89.2352 69.6872 89.7622C68.8086 90.7564 67.8683 91.6524 66.7531 92.3851C65.643 93.1136 64.3876 93.659 63.0971 93.9638L62.7903 94.0354C61.7864 94.2651 60.3582 94.5281 59.5221 93.9823C59.4816 93.956 59.4828 93.9023 59.5221 93.8762C59.9745 93.5609 60.58 93.5047 61.1003 93.3557C61.6678 93.1922 62.2367 93.0064 62.7792 92.7735C63.8503 92.313 64.8754 91.7061 65.788 90.9814C66.7047 90.2542 67.5911 89.3869 68.2045 88.3861C68.5131 87.8839 68.7759 87.3567 69.0281 86.8257C69.2833 86.2932 69.4113 85.7019 69.6976 85.1892Z" fill="black"/>
<path fill-rule="evenodd" clip-rule="evenodd" d="M102.785 60.2875C101.888 49.342 99.1551 39.6478 86.314 39.2344C80.5191 39.2862 74.6038 40.5178 69.2749 42.7965C56.3225 49.2932 52.2129 73.0326 63.6243 82.5887C63.5564 82.6273 63.5401 82.7388 63.6202 82.7927C65.9778 84.3795 68.5983 85.6849 71.2229 86.7819C78.214 89.7387 86.444 91.023 93.5738 87.8157C104.455 83.184 104.618 70.296 102.785 60.2875Z" fill="white"/>
<path fill-rule="evenodd" clip-rule="evenodd" d="M124.203 55.1856C124.65 54.7827 124.984 54.2542 125.152 53.6617C125.307 53.1214 125.317 52.5315 125.154 51.9925C124.978 51.4144 124.6 50.9539 124.685 50.3522C124.695 50.2933 124.706 50.2318 124.725 50.1704C125.052 49.0376 125.856 48.22 125.568 46.9642C125.487 46.6097 125.334 46.2906 125.121 46.0394C125.144 45.7673 125.165 45.4926 125.182 45.2179C125.654 44.1126 125.637 42.7993 125.134 41.711C125.073 41.1537 124.98 40.6017 124.849 40.0588C124.909 39.5788 124.825 39.0503 124.671 38.6304C124.4 37.8916 124.065 37.1635 123.702 36.4475C123.744 36.2516 123.725 36.0447 123.617 35.8607C123.421 35.5262 123.161 35.2321 122.896 34.9447C122.708 34.6095 122.519 34.2769 122.332 33.9487C122.245 33.7979 122.149 33.6306 122.044 33.4534C122.331 32.9189 122.485 32.398 122.181 31.7695C122.066 31.5334 121.752 31.3593 121.493 31.3747C121.21 31.3916 120.924 31.4043 120.637 31.4151C120.1 30.7666 119.491 30.1843 118.839 29.8492C118.179 29.2893 117.509 28.7399 116.858 28.1788C116.674 28.0192 116.488 27.8596 116.304 27.7C116.303 27.6961 116.301 27.6908 116.3 27.6869C116.164 27.1912 116.011 26.7019 115.858 26.2101C115.763 25.9053 115.734 25.5861 115.437 25.42C114.817 25.0734 113.864 25.0184 113.153 24.9596C113.082 24.8968 113.011 24.8353 112.941 24.7725C113.264 23.9118 113.206 22.9974 112.8 22.1354C112.661 21.8424 112.18 21.7103 111.916 21.9039C111.306 22.3512 110.583 22.5095 109.868 22.4441C108.817 21.6357 104.576 17.9801 103.921 17.5942C103.913 17.5804 103.906 17.5665 103.898 17.5528C103.529 16.9644 103.082 16.4919 102.579 16.1131C102.507 16.0381 102.436 15.963 102.364 15.888C102.427 15.4394 102.593 15.0063 102.861 14.644C102.889 14.6021 102.922 14.5616 102.955 14.5223C103.423 13.9651 102.852 13.2482 102.198 13.5399C102.151 13.5609 102.104 13.5818 102.057 13.604C101.554 13.8282 100.998 14.0719 100.419 14.2776C100.207 14.1982 99.9907 14.1262 99.7936 14.0469L97.6837 13.1984C97.3364 13.0587 96.9693 12.9403 96.6334 12.7761C96.5162 11.9966 95.7353 11.4854 94.9243 11.5121C94.9712 11.3625 95.041 11.2172 95.1394 11.0794C95.1682 11.0389 95.1996 10.9996 95.2323 10.9617C95.6494 10.4764 95.0924 9.57642 94.4961 10.0081C94.4543 10.0382 94.4111 10.0683 94.3693 10.0983C94.2036 10.2146 94.034 10.3237 93.8626 10.4294C93.5881 10.3096 93.279 10.2823 92.9555 10.409C92.2392 10.6896 91.5789 10.9749 90.9483 11.4147C90.9226 11.4326 90.8961 11.4476 90.8702 11.4645C90.5572 11.0862 90.0602 10.8332 89.6126 10.836C89.6034 10.836 89.5964 10.8359 89.5883 10.8357C89.2536 10.3257 88.6403 10.0293 88.0479 10.1014C88.0879 9.36948 87.3556 8.71635 86.6888 8.63695C85.9098 8.54434 85.2076 8.99681 84.9738 9.75707C84.9087 9.96872 84.8437 10.1805 84.7786 10.3923C84.1737 10.0868 83.5353 9.85282 82.8685 9.73601C81.35 9.46994 79.8652 9.75327 78.4019 10.175C78.2557 10.2171 78.1097 10.2604 77.9636 10.3036C77.7549 10.0617 77.5592 9.8141 77.3721 9.58296C77.0491 9.18399 76.2737 9.50317 76.326 10.0159C76.3624 10.3698 76.2187 10.6243 75.9874 10.8052C75.7333 10.8424 75.4877 10.8536 75.1174 10.8462C74.628 10.8362 74.4053 10.8209 73.8935 10.6213C73.655 10.5284 73.3581 10.2842 73.2191 10.065C72.6862 9.22428 71.3328 8.99785 70.6881 9.79945C70.0098 9.50238 69.1533 9.91208 68.7767 10.4897C68.5797 10.7918 68.1686 10.9606 67.651 11.1058C67.2625 11.2147 66.8653 11.2971 66.4662 11.3692C66.2884 11.1278 65.9139 10.966 65.6392 11.1684C65.4531 11.3058 65.2724 11.447 65.0942 11.5917C63.7199 11.7811 62.3528 11.7879 61.0425 11.2518C59.9332 10.7979 58.9146 12.0376 59.0976 13.0783C58.7764 13.2456 58.4278 13.3569 58.1104 13.5322C57.418 13.915 56.8495 14.52 56.503 15.2308C56.4409 15.358 56.3848 15.4873 56.3313 15.6172C56.0726 15.8279 55.8167 16.0443 55.5669 16.2725C55.1511 16.0593 54.7366 15.8461 54.3208 15.6329C54.0096 15.4733 53.4852 15.5845 53.4238 15.9978C53.3231 16.678 53.0786 17.2418 52.7295 17.714C51.5945 18.3105 50.5027 18.9803 49.4579 19.7246C48.2562 20.1013 46.9787 20.3211 45.9288 20.5683C45.5692 20.6533 45.373 21.1229 45.5757 21.4356C45.7902 21.7665 46.0046 22.0975 46.2177 22.4284C45.6202 23.0118 45.0592 23.6214 44.5296 24.2519C43.056 26.0047 41.823 27.9263 40.7194 29.9617C40.2826 30.1383 39.8459 30.3136 39.4092 30.4902C38.9881 30.6602 38.7985 31.1494 39.1398 31.5092C39.3019 31.6805 39.4471 31.861 39.5713 32.0507C38.9528 33.0749 38.2245 34.0089 37.2059 34.6211C36.896 34.8069 36.6633 35.0986 36.539 35.4295C36.4331 35.5001 36.3285 35.576 36.2252 35.6532C35.9376 35.8703 35.7636 36.3439 36.101 36.6251C36.3377 36.8239 36.56 37.0594 36.7483 37.3197C36.7888 37.4675 36.8306 37.6166 36.8725 37.7644C35.9258 38.6356 35.1386 39.6481 34.5476 40.7835C34.4077 40.7613 34.2639 40.7757 34.1475 40.862C33.091 41.6429 33.0596 42.8869 33.4845 43.9988C33.2283 45.6745 33.393 47.392 33.8873 49.0153C33.2374 49.6641 32.8464 50.6007 32.6869 51.5033C32.4058 53.0887 32.3862 55.527 32.3129 57.1451C31.6042 57.8292 31.0995 58.7148 30.8184 59.6671C30.5817 59.7848 30.345 59.9026 30.1084 60.0203C29.8979 60.1249 29.7436 60.4009 29.7566 60.6338C29.8168 61.76 30.281 62.6495 30.8968 63.4553C31.1152 64.0767 31.4382 64.6496 31.8618 65.199C32.1547 65.5757 32.4411 65.9368 32.6935 66.3436C32.7196 66.3841 32.7353 66.4221 32.7471 66.4482C32.6477 66.5555 32.5653 66.7334 32.4934 66.8603C31.8893 67.9251 31.8801 69.173 32.7379 70.1004C32.4149 70.3647 32.4045 70.8984 32.6895 71.2254C34.545 73.3458 36.0918 75.924 38.6665 77.0503C38.6782 77.0699 38.6887 77.0895 38.6978 77.1092C38.1761 78.3649 38.1055 79.0177 38.5318 80.3153C38.5344 80.3271 38.5383 80.3375 38.5422 80.3493C38.7698 81.0295 39.1882 82.1191 39.9427 82.3311C40.1806 82.3978 40.4147 82.4279 40.6461 82.4266C41.245 83.0034 41.8426 83.5816 42.4401 84.1598C42.4924 84.4462 42.5251 84.7353 42.5356 85.027C42.5526 85.5149 43.0115 85.91 43.5058 85.7661C43.6797 85.7151 44.6421 84.7798 44.8186 84.785C44.9075 84.874 44.9938 84.9629 45.0801 85.0532C45.3979 85.3868 45.8385 85.9126 45.8751 86.2619C45.9458 86.9198 46.3773 87.6733 47.0742 87.8067C47.3357 88.0723 47.7541 88.1521 48.0745 87.8054C48.0954 87.7832 48.1163 87.7609 48.1386 87.7413C48.1726 87.7374 48.2052 87.7335 48.2392 87.7295C48.3935 88.19 48.5478 88.6504 48.7034 89.1096C49.0081 90.0148 50.1718 90.5969 50.9982 90.0684C51.1316 90.1482 51.2624 90.2332 51.3931 90.3183C51.5919 90.4451 51.7932 90.5746 51.9998 90.6963C52.0116 90.7303 52.0234 90.7643 52.0338 90.797C52.1672 91.2038 52.7216 91.4223 53.0629 91.1881C53.1688 91.2221 53.2773 91.2496 53.3872 91.2719C53.9638 91.3857 54.5444 91.3543 55.1014 91.162C55.5002 91.0259 55.8807 90.7656 56.3096 90.7303C56.3364 90.7281 56.364 90.7299 56.3912 90.7291C56.7411 91.4462 57.5407 92.0642 58.1708 92.2741C58.9962 92.5492 59.8409 92.4508 60.5925 92.114C60.7953 92.5196 61.05 92.9037 61.3542 93.2588C61.5229 93.4551 61.8276 93.4132 62.0015 93.2588C62.3318 92.966 62.66 92.6716 62.9877 92.3769C63.2249 92.2855 63.4643 92.1757 63.714 92.0737C64.4952 91.7545 65.3515 91.6223 66.074 91.1611C66.4169 90.9421 66.7395 90.6627 67.0052 90.3389C67.5058 90.0498 67.9656 89.6897 68.3799 89.277C68.5865 89.2783 68.8022 89.2299 69.0114 89.124C69.8862 88.6792 70.3465 87.774 70.387 86.8479C71.0957 85.1801 71.5141 83.4011 71.6292 81.5802C71.6658 80.9824 71.6723 80.3794 71.6266 79.7816C71.5952 79.3604 71.4893 79.0791 71.3298 78.6985C71.2761 78.5742 71.2278 78.4604 71.1898 78.3348C71.199 77.932 71.2042 77.5291 71.2095 77.1275C71.318 76.7887 71.5115 76.4734 71.7809 76.2079C72.198 75.7972 72.3889 74.9443 72.0097 74.4367C71.7626 74.1084 71.5167 73.7801 71.2696 73.4518C71.3389 72.0429 71.6763 69.8009 70.9283 69.5654C70.9584 69.3561 71.0225 69.1494 71.0591 68.9415C71.2343 67.9421 71.1297 67.0486 70.5988 66.1748C70.4877 65.993 70.3935 65.8321 70.3164 65.6752C70.268 65.3874 70.2196 65.0996 70.1712 64.8118C70.0967 64.3684 70.0235 63.921 69.9607 63.471C69.928 62.8981 69.898 62.3251 69.8653 61.7509C69.8352 61.2224 69.8012 60.6939 69.7659 60.1642C69.7803 59.9274 69.8012 59.6906 69.8313 59.4539C70.0104 58.0424 70.5871 57.5205 71.586 56.5395C71.743 56.5146 71.8986 56.4871 72.0515 56.4557C72.7642 56.3079 73.5095 56.079 74.243 56.1614C75.0394 56.2504 75.752 56.5944 76.5261 56.1549C76.7536 56.0241 77.2544 55.663 77.2975 55.3766C77.3002 55.3582 77.3041 55.3426 77.3093 55.3308C77.3629 55.3229 77.4322 55.3164 77.4754 55.3151C78.0899 55.2942 78.677 55.5362 79.2968 55.4694C80.0304 55.391 80.6868 55.0652 81.1183 54.5826C81.6714 54.7186 82.2363 54.7801 82.8103 54.7042C83.2915 54.6414 83.723 54.4844 84.1493 54.2516C84.4591 54.0842 84.3611 54.0358 84.6984 54.1718C85.466 54.4831 86.1603 54.8939 87.0246 54.6807C87.4731 54.5708 87.8602 54.3288 88.1857 54.0031C88.2629 53.9272 88.3937 53.8134 88.4813 53.7061C88.8918 53.9141 89.9248 54.3837 90.0948 54.4256C90.576 54.5433 91.086 54.525 91.5541 54.368C91.898 54.2529 92.319 53.939 92.621 53.8749C93.012 53.7912 93.8802 54.3353 94.3471 54.5224C95.1656 54.8507 96.0325 54.9318 96.8615 54.593C97.1466 54.4766 97.701 54.0122 97.9141 54.0162C98.2606 54.4439 99.2282 56.7841 99.5185 57.6382C100.694 61.0916 100.999 71.8742 100.456 74.6251C100.435 74.7062 100.413 74.786 100.391 74.8671C99.7238 77.2596 99.0295 79.6926 97.9141 81.9216C96.8615 84.0224 95.4062 85.9139 93.318 87.0611C91.1526 88.2515 88.6107 88.5641 86.176 88.4032C84.6082 88.3012 83.0666 87.9859 81.5498 87.5909C80.7574 87.3855 79.9715 87.1566 79.1896 86.9185C78.8483 86.8152 78.5018 86.7184 78.1671 86.598C77.5761 86.3848 77.2662 86.3678 76.7 86.6412C76.1848 86.8898 76.0527 87.6236 76.3208 88.0853C76.7575 88.8388 77.5578 88.8911 78.3305 89.1109C79.1177 89.3346 79.9075 89.5491 80.7025 89.7414C82.2258 90.1077 83.774 90.3889 85.3352 90.5184C88.1308 90.7525 91.0114 90.3915 93.556 89.1711C93.8436 89.0324 94.1208 88.8846 94.3889 88.725C94.2895 88.8637 94.1888 89.0023 94.0868 89.1397C93.8044 89.5203 94.0136 90.1678 94.4098 90.3758C94.5353 90.4412 94.6609 90.504 94.7877 90.5655C94.8047 90.606 94.823 90.6466 94.8439 90.6871C95.2061 91.4144 95.9645 91.8435 96.7373 92.0292C97.6552 92.249 98.683 92.0933 99.6166 92.0659C100.482 92.0397 101.348 92.0135 102.212 91.9874C102.416 91.9821 102.62 91.9756 102.824 91.9691C103.852 91.9377 104.878 91.9076 105.905 91.8762C106.82 91.8487 106.777 91.9194 107.636 91.5531C108.019 91.3883 108.333 91.1554 108.597 90.8454C108.762 90.7722 108.921 90.6884 109.074 90.5929C109.566 90.2869 110.003 89.8761 110.405 89.4235C111.089 89.6394 112.048 89.4392 112.181 88.5798C112.396 87.205 114.182 86.6177 115.016 85.6235C115.689 84.8217 116.171 83.7713 116.146 82.7627C117.843 81.9412 118.766 79.7764 118.982 77.9398C119.083 77.0882 119.067 76.1765 119.212 75.3105C119.276 75.2412 119.334 75.168 119.382 75.0895C119.808 74.4001 120.18 73.6898 120.506 72.9625C120.951 72.642 121.486 72.4445 122.045 72.4118C123.421 72.332 123.68 70.4758 122.368 70.0285C122.362 70.0259 122.357 70.0246 122.35 70.0219C122.706 69.1324 122.676 68.0794 122.244 67.237C122.263 67.1454 122.28 67.0552 122.297 66.9636C123.033 66.1722 123.455 65.0721 123.408 64.0008C123.744 63.764 124.121 63.5809 124.532 63.4671C125.169 63.2918 125.173 62.5148 124.702 62.1669C124.513 62.0269 124.356 61.8634 124.225 61.6829C124.551 60.7044 124.423 59.5729 123.757 58.7697C124.179 58.2282 124.602 57.6866 125.024 57.1451C125.304 56.7867 125.452 56.1784 125.024 55.8383C124.751 55.6199 124.478 55.4027 124.203 55.1856Z" fill="black"/>
<path fill-rule="evenodd" clip-rule="evenodd" d="M93.9902 78.2115L94.0807 78.1905C94.8031 78.0201 95.4982 77.7884 96.171 78.2362C96.8121 78.6628 96.9012 79.4518 96.4017 80.0274C95.8883 80.6191 95.2063 80.586 94.4865 80.5941L94.4415 80.5947C93.8438 80.6029 93.2362 80.594 92.6408 80.541C92.0858 80.4916 91.5273 80.4126 90.9786 80.3089L90.6542 80.2453C90.3227 80.1781 89.9962 80.0909 89.8254 79.7699C89.5275 79.2105 91.7415 78.7715 92.0104 78.6947C92.6632 78.5083 93.3282 78.3615 93.9902 78.2115ZM95.2177 71.4661C94.8647 71.8323 94.3986 72.0824 93.8753 72.2381C92.5601 72.6293 90.8819 72.4209 89.8077 72.0222C89.5849 71.9395 89.3766 71.771 89.257 71.5602C89.1477 71.3677 89.1107 71.1412 89.1939 70.9103C89.2175 70.8447 89.2464 70.7803 89.2753 70.7169C89.3541 70.5443 89.5147 70.4101 89.7033 70.3333C89.8992 70.2536 90.122 70.2373 90.3006 70.2935C90.3246 70.3011 90.3493 70.3088 90.3745 70.3168C91.0551 70.5314 92.1714 70.8868 93.0962 70.818C93.6511 70.7766 94.1393 70.5805 94.3917 70.0725C94.5248 69.8046 94.4879 69.5396 94.3699 69.2971C94.192 68.9314 93.8356 68.6131 93.5354 68.3939C93.1121 68.0847 92.6607 67.9612 92.1938 67.8309C92.0179 67.7818 91.8397 67.732 91.6598 67.6724C91.6005 67.6529 91.5486 67.6144 91.5097 67.5644C91.4713 67.5151 91.446 67.4548 91.4381 67.3943C91.4299 67.3316 91.4401 67.2692 91.4691 67.2153C91.496 67.1654 91.5391 67.1215 91.6034 67.0927C92.5169 66.6833 93.6984 66.9538 94.5901 67.5979C95.0358 67.9198 95.4075 68.3334 95.6367 68.7954C95.8493 69.2243 95.9396 69.6948 95.8563 70.1746C95.763 70.7118 95.5358 71.1361 95.2177 71.4661Z" fill="black"/>
<path fill-rule="evenodd" clip-rule="evenodd" d="M106.391 64.1255C105.144 72.5613 96.4417 73.4942 94.8955 65.1196C95.1437 65.0109 95.3222 64.7968 95.2849 64.3814C95.2761 62.5564 95.8425 60.6274 97.4882 59.6125C99.1888 58.5652 101.179 58.4614 103.147 58.4878C106.903 58.3983 106.824 61.5387 106.391 64.1255ZM93.5332 60.4569C92.3546 60.4072 90.8634 60.4488 89.8075 61.1672C89.5172 60.3853 88.763 59.5503 88.001 59.1038C90.8335 59.1868 93.7491 58.9079 96.6027 58.6914C95.9197 59.1572 95.2842 59.857 94.8711 60.6661C94.4879 60.4616 93.9389 60.4807 93.5332 60.4569ZM88.3382 65.0209C85.0699 76.2752 76.9118 71.3698 76.0224 69.9275C74.4181 67.5408 74.1164 61.7389 75.5138 60.1876C77.5141 58.7848 80.3459 59.1459 82.709 59.1115C87.0503 59.1701 90.1335 60.4693 88.3382 65.0209ZM110.25 59.8442C109.362 59.728 108.413 59.7046 107.588 60.0958C107.333 59.0149 106.535 58.1113 105.634 57.7136C105.525 57.5768 105.542 57.5033 105.169 57.5238C102.881 56.836 100.322 57.1999 98.1233 57.9052C94.6514 58.1977 91.0089 58.4283 87.5078 58.8314C84.2282 57.3579 74.3307 57.142 73.7156 60.7736C72.9419 60.6578 71.6243 60.0487 70.9742 60.875C66.2053 60.0662 61.2777 61.1902 56.4882 61.6908C55.2826 61.913 54.6616 64.3065 56.0301 64.2738C56.7995 64.0649 56.0064 62.7834 57.0424 62.6869C61.6635 62.182 66.1836 61.4657 70.852 61.3819C70.6896 62.1883 73.9397 62.2408 73.9877 61.7698C73.9947 61.7734 74.002 61.7757 74.009 61.7789C73.2059 64.7731 73.9309 69.0822 75.3823 70.9389C77.4158 73.3701 82.5212 74.0676 84.7851 72.5034C87.7053 71.0596 90.7432 63.8126 89.8898 61.4049C91.4385 60.9138 92.9696 61.0613 94.5769 61.3114C94.2089 62.3512 93.5737 64.9108 94.4876 65.1328C94.3198 70.2147 98.943 73.3857 103.205 71.301C106.894 69.5687 108.184 64.0854 107.732 60.7573C108.192 61.6449 112.047 60.6785 110.25 59.8442Z" fill="black"/>
<path fill-rule="evenodd" clip-rule="evenodd" d="M84.1308 63.9819C84.2212 62.8596 85.9297 62.6048 86.0996 63.7153C86.2518 64.7101 86.0726 65.6239 85.6247 66.5195C85.1968 67.3751 84.1211 66.9759 84.0398 66.1968C83.9307 65.1524 84.0746 64.68 84.1308 63.9819Z" fill="#231F20"/>
<path fill-rule="evenodd" clip-rule="evenodd" d="M97.1358 63.4857C97.374 63.1737 97.718 62.9606 98.13 63.081C99.4174 63.4573 99.0379 65.2857 98.5858 66.1757C98.3401 66.659 97.5461 66.7816 97.1872 66.356C96.6023 65.6621 96.3221 64.2762 97.0658 63.5927C97.0859 63.5574 97.1083 63.5217 97.1358 63.4857Z" fill="#231F20"/>
</svg>
