<svg width="720" height="490" viewBox="0 0 720 490" fill="none" xmlns="http://www.w3.org/2000/svg">
<path d="M544.098 262.098L547.701 260.515C547.789 260.428 547.789 260.34 547.701 260.34L544.098 258.758L542.428 255.066C542.428 254.978 542.34 254.978 542.34 255.066L540.67 258.67L537.066 260.34C536.978 260.34 536.978 260.428 537.066 260.515L540.67 262.098L542.34 265.701H542.428L544.098 262.098Z" fill="black"/>
<path d="M474.875 403.862L479.95 401.637C479.982 401.601 480 401.554 480 401.506C480 401.457 479.982 401.411 479.95 401.375L474.875 399.15L472.598 394.044C472.585 394.03 472.57 394.019 472.554 394.012C472.537 394.004 472.518 394 472.5 394C472.482 394 472.463 394.004 472.446 394.012C472.43 394.019 472.415 394.03 472.402 394.044L470.125 399.084L465.05 401.375C465.018 401.411 465 401.457 465 401.506C465 401.554 465.018 401.601 465.05 401.637L470.125 403.862L472.402 408.902C472.489 409.033 472.554 409.033 472.598 408.902L474.875 403.862Z" fill="black"/>
<path d="M9.875 232.862L14.95 230.637C14.982 230.601 15 230.554 15 230.506C15 230.457 14.982 230.411 14.95 230.375L9.875 228.15L7.59799 223.044C7.58499 223.03 7.56999 223.019 7.55399 223.012C7.53699 223.004 7.518 223 7.5 223C7.482 223 7.46301 223.004 7.44601 223.012C7.43001 223.019 7.41501 223.03 7.40201 223.044L5.125 228.084L0.0499878 230.375C0.0179878 230.411 0 230.457 0 230.506C0 230.554 0.0179878 230.601 0.0499878 230.637L5.125 232.862L7.40201 237.902C7.48901 238.033 7.55399 238.033 7.59799 237.902L9.875 232.862Z" fill="black"/>
<path d="M514.575 341.4L517.975 339.9V339.7L514.575 338.3L513.075 335H512.875L511.375 338.3L508.075 339.7C507.975 339.8 507.975 339.9 508.075 339.9L511.375 341.4L512.875 344.8H513.075L514.575 341.4Z" fill="black"/>
<path d="M220.575 422.4L223.975 420.9V420.7L220.575 419.3L219.075 416H218.875L217.375 419.3L214.075 420.7C213.975 420.8 213.975 420.9 214.075 420.9L217.375 422.4L218.875 425.8H219.075L220.575 422.4Z" fill="black"/>
<path d="M9.88722 339.796L15 337.5V337.194L9.88722 335.051L7.63158 330H7.33081L5.07517 335.051L0.112782 337.194C-0.037594 337.347 -0.037594 337.5 0.112782 337.5L5.07517 339.796L7.33081 345H7.63158L9.88722 339.796Z" fill="black"/>
<path d="M356.183 424.061L363 421V420.592L356.183 417.735L353.175 411H352.774L349.767 417.735L343.15 420.592C342.95 420.796 342.95 421 343.15 421L349.767 424.061L352.774 431H353.175L356.183 424.061Z" fill="black"/>
<path d="M280.797 480.633L290 476.5V475.949L280.797 472.092L276.737 463H276.195L272.135 472.092L263.203 475.949C262.932 476.224 262.932 476.5 263.203 476.5L272.135 480.633L276.195 490H276.737L280.797 480.633Z" fill="black"/>
<path d="M412.932 382.878L416 381.5V381.316L412.932 380.031L411.579 377H411.398L410.045 380.031L407.068 381.316C406.977 381.408 406.977 381.5 407.068 381.5L410.045 382.878L411.398 386H411.579L412.932 382.878Z" fill="black"/>
<path d="M162.569 376.49L167 374.5V374.235L162.569 372.378L160.614 368H160.353L158.398 372.378L154.098 374.235C153.967 374.367 153.967 374.5 154.098 374.5L158.398 376.49L160.353 381H160.614L162.569 376.49Z" fill="black"/>
<path d="M41.575 284.4L44.975 282.9V282.7L41.575 281.3L40.075 278H39.875L38.375 281.3L35.075 282.7C34.975 282.8 34.975 282.9 35.075 282.9L38.375 284.4L39.875 287.8H40.075L41.575 284.4Z" fill="black"/>
<path d="M90.2764 397.15L97.9764 393.75C98.0294 393.75 98.0803 393.729 98.1178 393.691C98.1553 393.654 98.1764 393.603 98.1764 393.55C98.1764 393.497 98.1553 393.446 98.1178 393.409C98.0803 393.371 98.0294 393.35 97.9764 393.35L90.2764 389.95C90.2499 389.95 90.2244 389.94 90.2057 389.921C90.1869 389.902 90.1764 389.877 90.1764 389.85L86.6764 382.15C86.6764 381.95 86.4764 381.95 86.3764 382.15L82.9764 389.85H82.8764L75.0764 393.35C75.0272 393.405 75 393.476 75 393.55C75 393.624 75.0272 393.695 75.0764 393.75L82.8764 397.15H82.9764L86.3764 404.95C86.4764 405.15 86.6764 405.15 86.6764 404.95L90.1764 397.25C90.1764 397.224 90.1869 397.198 90.2057 397.179C90.2244 397.16 90.2499 397.15 90.2764 397.15Z" fill="black"/>
<path d="M539.098 78.0977L542.701 76.5155C542.789 76.4276 542.789 76.3397 542.701 76.3397L539.098 74.7576L537.428 71.0659C537.428 70.978 537.34 70.978 537.34 71.0659L535.67 74.6697L532.066 76.3397C531.978 76.3397 531.978 76.4276 532.066 76.5155L535.67 78.0977L537.34 81.7015H537.428L539.098 78.0977Z" fill="black"/>
<path d="M61.875 65.8621L66.95 63.6367C66.982 63.6007 67 63.5541 67 63.5058C67 63.4575 66.982 63.4109 66.95 63.3749L61.875 61.1495L59.598 56.0443C59.585 56.0304 59.57 56.0192 59.554 56.0116C59.537 56.004 59.518 56 59.5 56C59.482 56 59.463 56.004 59.446 56.0116C59.43 56.0192 59.415 56.0304 59.402 56.0443L57.125 61.0841L52.05 63.3749C52.018 63.4109 52 63.4575 52 63.5058C52 63.5541 52.018 63.6007 52.05 63.6367L57.125 65.8621L59.402 70.9018C59.489 71.0327 59.554 71.0327 59.598 70.9018L61.875 65.8621Z" fill="black"/>
<path d="M71.575 6.4L74.975 4.9V4.7L71.575 3.3L70.075 0H69.875L68.375 3.3L65.075 4.7C64.975 4.8 64.975 4.9 65.075 4.9L68.375 6.4L69.875 9.8H70.075L71.575 6.4Z" fill="black"/>
<path d="M488.276 20.15L495.976 16.75C496.029 16.75 496.08 16.7289 496.118 16.6914C496.155 16.6539 496.176 16.603 496.176 16.55C496.176 16.497 496.155 16.4461 496.118 16.4086C496.08 16.3711 496.029 16.35 495.976 16.35L488.276 12.95C488.25 12.95 488.224 12.9395 488.206 12.9207C488.187 12.902 488.176 12.8765 488.176 12.85L484.676 5.15C484.676 4.95 484.476 4.95 484.376 5.15L480.976 12.85H480.876L473.076 16.35C473.027 16.405 473 16.4762 473 16.55C473 16.6238 473.027 16.695 473.076 16.75L480.876 20.15H480.976L484.376 27.95C484.476 28.15 484.676 28.15 484.676 27.95L488.176 20.25C488.176 20.2235 488.187 20.198 488.206 20.1793C488.224 20.1605 488.25 20.15 488.276 20.15Z" fill="black"/>
<path d="M24.1149 131.019L33.7497 126.751C33.8161 126.751 33.8798 126.725 33.9267 126.678C33.9736 126.63 34 126.567 34 126.5C34 126.433 33.9736 126.37 33.9267 126.322C33.8798 126.275 33.8161 126.249 33.7497 126.249L24.1149 121.981C24.0818 121.981 24.0499 121.967 24.0265 121.944C24.003 121.92 23.9898 121.888 23.9898 121.855L19.6104 112.188C19.6104 111.937 19.3601 111.937 19.235 112.188L14.9806 121.855H14.8555L5.09559 126.249C5.03403 126.318 5 126.407 5 126.5C5 126.593 5.03403 126.682 5.09559 126.751L14.8555 131.019H14.9806L19.235 140.812C19.3601 141.063 19.6104 141.063 19.6104 140.812L23.9898 131.145C23.9898 131.112 24.003 131.08 24.0265 131.056C24.0499 131.033 24.0818 131.019 24.1149 131.019Z" fill="black"/>
<path d="M595.501 172.429L602.81 169.19C602.86 169.19 602.909 169.17 602.944 169.135C602.98 169.099 603 169.05 603 169C603 168.95 602.98 168.901 602.944 168.865C602.909 168.83 602.86 168.81 602.81 168.81L595.501 165.571C595.476 165.571 595.452 165.561 595.434 165.544C595.416 165.526 595.406 165.501 595.406 165.476L592.084 158.143C592.084 157.952 591.894 157.952 591.799 158.143L588.572 165.476H588.477L581.073 168.81C581.026 168.862 581 168.93 581 169C581 169.07 581.026 169.138 581.073 169.19L588.477 172.429H588.572L591.799 179.857C591.894 180.048 592.084 180.048 592.084 179.857L595.406 172.524C595.406 172.499 595.416 172.474 595.434 172.456C595.452 172.439 595.476 172.429 595.501 172.429Z" fill="black"/>
<path d="M591.546 306.494L596.862 304.139C596.899 304.139 596.934 304.124 596.96 304.098C596.985 304.072 597 304.037 597 304C597 303.963 596.985 303.928 596.96 303.902C596.934 303.876 596.899 303.861 596.862 303.861L591.546 301.506C591.528 301.506 591.51 301.499 591.497 301.486C591.484 301.473 591.477 301.456 591.477 301.437L589.061 296.104C589.061 295.965 588.923 295.965 588.854 296.104L586.507 301.437H586.438L581.053 303.861C581.019 303.9 581 303.949 581 304C581 304.051 581.019 304.1 581.053 304.139L586.438 306.494H586.507L588.854 311.896C588.923 312.035 589.061 312.035 589.061 311.896L591.477 306.563C591.477 306.544 591.484 306.527 591.497 306.514C591.51 306.501 591.528 306.494 591.546 306.494Z" fill="black"/>
<path d="M711.276 404.15L718.976 400.75C719.029 400.75 719.08 400.729 719.118 400.691C719.155 400.654 719.176 400.603 719.176 400.55C719.176 400.497 719.155 400.446 719.118 400.409C719.08 400.371 719.029 400.35 718.976 400.35L711.276 396.95C711.25 396.95 711.224 396.94 711.206 396.921C711.187 396.902 711.176 396.877 711.176 396.85L707.676 389.15C707.676 388.95 707.476 388.95 707.376 389.15L703.976 396.85H703.876L696.076 400.35C696.027 400.405 696 400.476 696 400.55C696 400.624 696.027 400.695 696.076 400.75L703.876 404.15H703.976L707.376 411.95C707.476 412.15 707.676 412.15 707.676 411.95L711.176 404.25C711.176 404.224 711.187 404.198 711.206 404.179C711.224 404.16 711.25 404.15 711.276 404.15Z" fill="black"/>
</svg>
