<svg width="66" height="69" viewBox="0 0 66 69" fill="none" xmlns="http://www.w3.org/2000/svg">
<path d="M26.9515 53.9992L38.8614 52.2111L39.0388 51.5777L29.701 44.181L27.9604 32.4222L27.3381 32.2479L19.7438 41.3926L8.23375 42.9511C7.8339 43.1807 7.7452 43.4974 8.05637 43.5846L16.9943 51.2108L18.6462 63.2863L19.2685 63.4606L26.9515 53.9992Z" fill="white"/>
<path d="M63.46 53.6433L65.5805 50.3781L65.4653 50.1994L61.6737 50.8732L58.4554 48.7735L58.2798 48.8867L58.8644 52.6847L56.7741 55.8039C56.7439 55.9498 56.8015 56.0392 56.8893 55.9826L60.6507 55.4548L63.9267 57.6438L64.1023 57.5306L63.46 53.6433Z" fill="white"/>
<path d="M10.2964 24.1702L11.8468 23.3453L11.8404 23.2496L10.197 22.6866L9.38604 21.1547L9.292 21.161L8.69253 22.7874L7.18589 23.5613C7.14208 23.6123 7.14528 23.6601 7.1923 23.657L8.79188 24.2709L9.60608 25.8508L9.70011 25.8445L10.2964 24.1702Z" fill="white"/>
<path d="M2.8528 66.7429L4.19461 66.029L4.18907 65.9462L2.76682 65.459L2.06496 64.1332L1.98358 64.1386L1.46477 65.5462L0.160875 66.216C0.12296 66.2601 0.125733 66.3015 0.166422 66.2988L1.55075 66.8301L2.25539 68.1974L2.33677 68.1919L2.8528 66.7429Z" fill="white"/>
<path d="M25.9253 5.34021L28.8663 5.92849L28.9614 5.79511L27.3996 3.27285L27.9862 0.371246L27.8552 0.277792L25.303 1.77767L22.475 1.16943C22.362 1.1894 22.3144 1.25609 22.3799 1.30281L23.8287 3.84504L23.1945 6.81333L23.3255 6.90678L25.9253 5.34021Z" fill="white"/>
</svg>
