<svg width="140" height="239" viewBox="0 0 140 239" fill="none" xmlns="http://www.w3.org/2000/svg">
<path d="M86.038 138.564C99.3279 135.638 110.901 129.021 120.693 118.651C133.411 105.228 139.833 89.0681 139.833 70.6821C139.833 58.658 136.781 47.0793 130.74 36.2639C124.572 25.1305 115.861 16.351 104.733 10.1799C93.8593 4.07243 82.2864 0.955078 70.2683 0.955078C58.1866 0.955078 46.5501 4.00881 35.7402 10.0527C24.7395 16.2238 15.9644 24.9396 9.73281 36.0731L9.66923 36.1367C3.62842 47.0793 0.576172 58.658 0.576172 70.6821C0.576172 83.0243 3.75558 94.8575 10.0507 105.927L10.1143 106.055C16.6003 117.124 25.3754 125.713 36.2489 131.566L36.376 131.63C42.4804 134.874 48.3941 137.165 54.1806 138.564V158.413H4.20069V190.287H54.1806V238.001H86.038V190.287H135.891V158.413H86.038L86.038 138.564ZM70.1411 32.5104C76.6906 32.5104 82.8587 34.1645 89.1538 37.5999L89.281 37.6636C95.3218 40.8445 99.9001 45.3615 103.27 51.4054C106.768 57.7037 108.484 64.0657 108.484 70.7457C108.484 81.4974 104.796 90.3405 97.2295 97.9749C89.7261 105.482 80.8874 109.172 70.1411 109.172C59.522 109.172 50.6197 105.546 43.0528 97.9749C35.5494 90.4042 31.8613 81.4974 31.8613 70.7457C31.8613 64.0657 33.5782 57.7037 37.0755 51.4054C40.4457 45.3615 45.024 40.8445 51.0012 37.5999C57.4236 34.1645 63.6552 32.5104 70.1411 32.5104Z" fill="black"/>
</svg>
